STARTFONT 2.1
COMMENT
COMMENT Converted from OpenType font "UbuntuMono-Italic.ttf" by "otf2bdf 3.0".
COMMENT
FONT -FreeType-Ubuntu Mono-Medium-I-Normal--17-120-100-100-P-80-ISO10646-1
SIZE 12 100 100
FONTBOUNDINGBOX 14 17 -3 -3
STARTPROPERTIES 19
FOUNDRY "FreeType"
FAMILY_NAME "Ubuntu Mono"
WEIGHT_NAME "Medium"
SLANT "I"
SETWIDTH_NAME "Normal"
ADD_STYLE_NAME ""
PIXEL_SIZE 17
POINT_SIZE 120
RESOLUTION_X 100
RESOLUTION_Y 100
SPACING "P"
AVERAGE_WIDTH 80
CHARSET_REGISTRY "ISO10646"
CHARSET_ENCODING "1"
FONT_ASCENT 14
FONT_DESCENT 2
COPYRIGHT "Copyright 2011 Canonical Ltd.  Licensed under the Ubuntu Font Licence 1.0"
_OTF_FONTFILE "UbuntuMono-Italic.ttf"
_OTF_PSNAME "UbuntuMono-Italic"
ENDPROPERTIES
CHARS 1224
STARTCHAR 0000
ENCODING 0
SWIDTH 480 0
DWIDTH 8 0
BBX 0 0 0 0
BITMAP
ENDCHAR
STARTCHAR 0008
ENCODING 8
SWIDTH 480 0
DWIDTH 8 0
BBX 0 0 0 0
BITMAP
ENDCHAR
STARTCHAR 0009
ENCODING 9
SWIDTH 480 0
DWIDTH 8 0
BBX 0 0 0 0
BITMAP
ENDCHAR
STARTCHAR 000D
ENCODING 13
SWIDTH 480 0
DWIDTH 8 0
BBX 0 0 0 0
BITMAP
ENDCHAR
STARTCHAR 001D
ENCODING 29
SWIDTH 480 0
DWIDTH 8 0
BBX 0 0 0 0
BITMAP
ENDCHAR
STARTCHAR 0020
ENCODING 32
SWIDTH 480 0
DWIDTH 8 0
BBX 0 0 0 0
BITMAP
ENDCHAR
STARTCHAR 0021
ENCODING 33
SWIDTH 480 0
DWIDTH 8 0
BBX 4 10 3 0
BITMAP
30
20
20
20
60
40
00
00
C0
C0
ENDCHAR
STARTCHAR 0022
ENCODING 34
SWIDTH 480 0
DWIDTH 8 0
BBX 4 4 4 7
BITMAP
90
90
90
A0
ENDCHAR
STARTCHAR 0023
ENCODING 35
SWIDTH 480 0
DWIDTH 8 0
BBX 8 10 1 0
BITMAP
09
1B
7F
7F
24
24
FE
48
D8
90
ENDCHAR
STARTCHAR 0024
ENCODING 36
SWIDTH 480 0
DWIDTH 8 0
BBX 7 14 1 -2
BITMAP
04
04
1E
30
20
20
18
0C
06
06
EC
78
30
20
ENDCHAR
STARTCHAR 0025
ENCODING 37
SWIDTH 480 0
DWIDTH 8 0
BBX 9 10 1 1
BITMAP
7180
5300
5600
5400
6800
1600
2A00
4A00
CA00
8E00
ENDCHAR
STARTCHAR 0026
ENCODING 38
SWIDTH 480 0
DWIDTH 8 0
BBX 7 11 1 0
BITMAP
08
1E
26
24
2C
30
52
CC
8C
CC
74
ENDCHAR
STARTCHAR 0027
ENCODING 39
SWIDTH 480 0
DWIDTH 8 0
BBX 2 4 5 7
BITMAP
40
C0
80
80
ENDCHAR
STARTCHAR 0028
ENCODING 40
SWIDTH 480 0
DWIDTH 8 0
BBX 7 14 2 -2
BITMAP
0E
18
10
20
60
40
40
C0
C0
40
40
60
20
20
ENDCHAR
STARTCHAR 0029
ENCODING 41
SWIDTH 480 0
DWIDTH 8 0
BBX 6 14 1 -2
BITMAP
18
0C
04
04
04
04
04
0C
08
18
10
20
C0
80
ENDCHAR
STARTCHAR 002A
ENCODING 42
SWIDTH 480 0
DWIDTH 8 0
BBX 7 5 2 4
BITMAP
10
10
FE
38
6C
ENDCHAR
STARTCHAR 002B
ENCODING 43
SWIDTH 480 0
DWIDTH 8 0
BBX 6 7 2 1
BITMAP
10
10
10
FC
20
20
20
ENDCHAR
STARTCHAR 002C
ENCODING 44
SWIDTH 480 0
DWIDTH 8 0
BBX 3 4 2 -2
BITMAP
60
60
20
C0
ENDCHAR
STARTCHAR 002D
ENCODING 45
SWIDTH 480 0
DWIDTH 8 0
BBX 4 1 3 4
BITMAP
F0
ENDCHAR
STARTCHAR 002E
ENCODING 46
SWIDTH 480 0
DWIDTH 8 0
BBX 2 2 3 0
BITMAP
C0
C0
ENDCHAR
STARTCHAR 002F
ENCODING 47
SWIDTH 480 0
DWIDTH 8 0
BBX 9 15 0 -3
BITMAP
0080
0180
0100
0200
0600
0400
0C00
0800
1800
1000
3000
2000
4000
C000
8000
ENDCHAR
STARTCHAR 0030
ENCODING 48
SWIDTH 480 0
DWIDTH 8 0
BBX 8 11 1 0
BITMAP
04
1E
33
63
43
5B
5A
C2
C6
4C
78
ENDCHAR
STARTCHAR 0031
ENCODING 49
SWIDTH 480 0
DWIDTH 8 0
BBX 5 10 2 0
BITMAP
08
38
48
18
10
10
10
30
30
F8
ENDCHAR
STARTCHAR 0032
ENCODING 50
SWIDTH 480 0
DWIDTH 8 0
BBX 8 11 1 0
BITMAP
0C
3E
23
03
02
06
18
30
60
40
FC
ENDCHAR
STARTCHAR 0033
ENCODING 51
SWIDTH 480 0
DWIDTH 8 0
BBX 8 11 1 0
BITMAP
0C
3E
03
02
06
18
06
06
06
84
F8
ENDCHAR
STARTCHAR 0034
ENCODING 52
SWIDTH 480 0
DWIDTH 8 0
BBX 7 10 1 0
BITMAP
06
0E
1A
36
64
44
FE
0C
08
08
ENDCHAR
STARTCHAR 0035
ENCODING 53
SWIDTH 480 0
DWIDTH 8 0
BBX 8 10 1 0
BITMAP
1F
10
10
20
3C
06
06
06
0C
F8
ENDCHAR
STARTCHAR 0036
ENCODING 54
SWIDTH 480 0
DWIDTH 8 0
BBX 7 10 2 0
BITMAP
1E
30
60
C0
FC
84
84
84
8C
F8
ENDCHAR
STARTCHAR 0037
ENCODING 55
SWIDTH 480 0
DWIDTH 8 0
BBX 8 10 2 0
BITMAP
7F
06
0C
08
10
30
20
60
40
C0
ENDCHAR
STARTCHAR 0038
ENCODING 56
SWIDTH 480 0
DWIDTH 8 0
BBX 8 11 1 0
BITMAP
04
1F
21
23
22
1C
66
42
C2
C6
7C
ENDCHAR
STARTCHAR 0039
ENCODING 57
SWIDTH 480 0
DWIDTH 8 0
BBX 8 11 1 0
BITMAP
04
3E
23
61
63
63
3E
06
04
18
F0
ENDCHAR
STARTCHAR 003A
ENCODING 58
SWIDTH 480 0
DWIDTH 8 0
BBX 4 8 3 0
BITMAP
20
70
60
00
00
00
C0
C0
ENDCHAR
STARTCHAR 003B
ENCODING 59
SWIDTH 480 0
DWIDTH 8 0
BBX 5 10 2 -2
BITMAP
10
38
30
00
00
00
60
60
20
C0
ENDCHAR
STARTCHAR 003C
ENCODING 60
SWIDTH 480 0
DWIDTH 8 0
BBX 8 7 1 1
BITMAP
01
07
38
E0
60
1C
04
ENDCHAR
STARTCHAR 003D
ENCODING 61
SWIDTH 480 0
DWIDTH 8 0
BBX 8 5 1 2
BITMAP
7F
7F
00
00
FE
ENDCHAR
STARTCHAR 003E
ENCODING 62
SWIDTH 480 0
DWIDTH 8 0
BBX 7 6 1 2
BITMAP
70
1C
06
0E
70
C0
ENDCHAR
STARTCHAR 003F
ENCODING 63
SWIDTH 480 0
DWIDTH 8 0
BBX 6 11 3 0
BITMAP
30
78
0C
08
18
20
40
00
00
C0
C0
ENDCHAR
STARTCHAR 0040
ENCODING 64
SWIDTH 480 0
DWIDTH 8 0
BBX 8 13 1 -2
BITMAP
04
1F
31
61
4F
59
D3
92
92
DE
C0
40
38
ENDCHAR
STARTCHAR 0041
ENCODING 65
SWIDTH 480 0
DWIDTH 8 0
BBX 8 10 0 0
BITMAP
06
0E
0A
12
13
23
3F
43
43
83
ENDCHAR
STARTCHAR 0042
ENCODING 66
SWIDTH 480 0
DWIDTH 8 0
BBX 8 10 1 0
BITMAP
3E
23
23
62
7C
46
42
C2
86
F8
ENDCHAR
STARTCHAR 0043
ENCODING 67
SWIDTH 480 0
DWIDTH 8 0
BBX 8 11 1 0
BITMAP
06
1F
30
60
40
40
40
C0
40
60
3C
ENDCHAR
STARTCHAR 0044
ENCODING 68
SWIDTH 480 0
DWIDTH 8 0
BBX 8 10 1 0
BITMAP
3E
22
63
43
43
42
C2
C6
8C
F0
ENDCHAR
STARTCHAR 0045
ENCODING 69
SWIDTH 480 0
DWIDTH 8 0
BBX 8 10 1 0
BITMAP
3F
30
20
20
3E
60
40
40
40
FC
ENDCHAR
STARTCHAR 0046
ENCODING 70
SWIDTH 480 0
DWIDTH 8 0
BBX 8 10 1 0
BITMAP
3F
30
20
20
3E
60
40
40
40
C0
ENDCHAR
STARTCHAR 0047
ENCODING 71
SWIDTH 480 0
DWIDTH 8 0
BBX 8 11 1 0
BITMAP
06
1F
30
60
40
40
C2
C2
C6
44
7C
ENDCHAR
STARTCHAR 0048
ENCODING 72
SWIDTH 480 0
DWIDTH 8 0
BBX 8 10 1 0
BITMAP
21
21
61
63
7E
42
C2
C6
86
84
ENDCHAR
STARTCHAR 0049
ENCODING 73
SWIDTH 480 0
DWIDTH 8 0
BBX 8 10 1 0
BITMAP
3F
0C
08
08
18
18
10
10
10
FC
ENDCHAR
STARTCHAR 004A
ENCODING 74
SWIDTH 480 0
DWIDTH 8 0
BBX 8 10 1 0
BITMAP
1F
03
03
02
02
06
06
04
0C
F8
ENDCHAR
STARTCHAR 004B
ENCODING 75
SWIDTH 480 0
DWIDTH 8 0
BBX 8 10 1 0
BITMAP
23
26
2C
78
70
50
48
CC
84
86
ENDCHAR
STARTCHAR 004C
ENCODING 76
SWIDTH 480 0
DWIDTH 8 0
BBX 6 10 1 0
BITMAP
30
20
20
60
60
40
40
40
C0
FC
ENDCHAR
STARTCHAR 004D
ENCODING 77
SWIDTH 480 0
DWIDTH 8 0
BBX 9 10 0 0
BITMAP
1880
1980
1A80
2A80
2D80
2D00
6100
4100
4100
C300
ENDCHAR
STARTCHAR 004E
ENCODING 78
SWIDTH 480 0
DWIDTH 8 0
BBX 8 10 1 0
BITMAP
31
31
71
5B
4A
4A
4A
CA
86
84
ENDCHAR
STARTCHAR 004F
ENCODING 79
SWIDTH 480 0
DWIDTH 8 0
BBX 8 11 1 0
BITMAP
04
1E
23
61
41
43
C3
C2
C6
44
78
ENDCHAR
STARTCHAR 0050
ENCODING 80
SWIDTH 480 0
DWIDTH 8 0
BBX 8 10 1 0
BITMAP
3E
23
21
63
62
7C
40
C0
C0
80
ENDCHAR
STARTCHAR 0051
ENCODING 81
SWIDTH 480 0
DWIDTH 8 0
BBX 8 14 1 -3
BITMAP
04
1E
23
61
41
43
C3
C2
C6
44
78
30
18
08
ENDCHAR
STARTCHAR 0052
ENCODING 82
SWIDTH 480 0
DWIDTH 8 0
BBX 8 10 1 0
BITMAP
3E
23
23
63
46
7C
48
CC
84
84
ENDCHAR
STARTCHAR 0053
ENCODING 83
SWIDTH 480 0
DWIDTH 8 0
BBX 8 11 1 0
BITMAP
04
1F
20
20
30
18
0C
06
06
84
FC
ENDCHAR
STARTCHAR 0054
ENCODING 84
SWIDTH 480 0
DWIDTH 8 0
BBX 7 10 3 0
BITMAP
FE
30
20
20
60
60
40
40
40
C0
ENDCHAR
STARTCHAR 0055
ENCODING 85
SWIDTH 480 0
DWIDTH 8 0
BBX 8 10 1 0
BITMAP
21
21
61
63
42
42
C2
C6
44
78
ENDCHAR
STARTCHAR 0056
ENCODING 86
SWIDTH 480 0
DWIDTH 8 0
BBX 8 10 2 0
BITMAP
C3
C2
C6
C4
CC
48
58
50
70
60
ENDCHAR
STARTCHAR 0057
ENCODING 87
SWIDTH 480 0
DWIDTH 8 0
BBX 9 10 1 0
BITMAP
2180
6100
4100
4100
5B00
5A00
EA00
AA00
CC00
CC00
ENDCHAR
STARTCHAR 0058
ENCODING 88
SWIDTH 480 0
DWIDTH 8 0
BBX 9 10 1 0
BITMAP
3180
1300
1600
1C00
0800
1C00
3400
6400
C600
8600
ENDCHAR
STARTCHAR 0059
ENCODING 89
SWIDTH 480 0
DWIDTH 8 0
BBX 7 10 3 0
BITMAP
86
84
88
D8
50
60
40
40
40
C0
ENDCHAR
STARTCHAR 005A
ENCODING 90
SWIDTH 480 0
DWIDTH 8 0
BBX 8 10 1 0
BITMAP
3F
03
06
0C
18
10
20
40
C0
FC
ENDCHAR
STARTCHAR 005B
ENCODING 91
SWIDTH 480 0
DWIDTH 8 0
BBX 7 15 2 -3
BITMAP
1E
10
10
30
20
20
20
60
40
40
40
C0
80
80
F0
ENDCHAR
STARTCHAR 005C
ENCODING 92
SWIDTH 480 0
DWIDTH 8 0
BBX 2 15 4 -3
BITMAP
80
80
80
80
80
80
C0
C0
C0
C0
C0
40
40
40
40
ENDCHAR
STARTCHAR 005D
ENCODING 93
SWIDTH 480 0
DWIDTH 8 0
BBX 8 15 0 -3
BITMAP
0F
03
02
02
02
06
04
04
04
0C
08
08
08
18
F0
ENDCHAR
STARTCHAR 005E
ENCODING 94
SWIDTH 480 0
DWIDTH 8 0
BBX 7 5 2 5
BITMAP
18
3C
24
44
86
ENDCHAR
STARTCHAR 005F
ENCODING 95
SWIDTH 480 0
DWIDTH 8 0
BBX 7 1 0 -3
BITMAP
FE
ENDCHAR
STARTCHAR 0060
ENCODING 96
SWIDTH 480 0
DWIDTH 8 0
BBX 2 3 5 9
BITMAP
80
40
40
ENDCHAR
STARTCHAR 0061
ENCODING 97
SWIDTH 480 0
DWIDTH 8 0
BBX 8 8 1 0
BITMAP
1F
32
62
46
C6
C4
C4
7C
ENDCHAR
STARTCHAR 0062
ENCODING 98
SWIDTH 480 0
DWIDTH 8 0
BBX 7 11 1 1
BITMAP
30
30
20
3C
26
62
42
42
46
CC
F8
ENDCHAR
STARTCHAR 0063
ENCODING 99
SWIDTH 480 0
DWIDTH 8 0
BBX 7 8 1 0
BITMAP
1E
30
40
C0
C0
C0
C0
7C
ENDCHAR
STARTCHAR 0064
ENCODING 100
SWIDTH 480 0
DWIDTH 8 0
BBX 9 12 1 0
BITMAP
0080
0100
0100
0100
1F00
3200
6200
4200
C600
C400
C400
7E00
ENDCHAR
STARTCHAR 0065
ENCODING 101
SWIDTH 480 0
DWIDTH 8 0
BBX 7 8 1 0
BITMAP
1E
32
42
C6
F8
C0
C0
7C
ENDCHAR
STARTCHAR 0066
ENCODING 102
SWIDTH 480 0
DWIDTH 8 0
BBX 10 15 0 -3
BITMAP
0080
03C0
0600
0400
1F80
0C00
0C00
0800
0800
1800
1800
1000
1000
B000
E000
ENDCHAR
STARTCHAR 0067
ENCODING 103
SWIDTH 480 0
DWIDTH 8 0
BBX 8 11 1 -3
BITMAP
0F
33
62
42
42
C6
6C
34
0C
98
F0
ENDCHAR
STARTCHAR 0068
ENCODING 104
SWIDTH 480 0
DWIDTH 8 0
BBX 7 11 1 1
BITMAP
30
20
20
3C
66
42
46
46
C4
84
84
ENDCHAR
STARTCHAR 0069
ENCODING 105
SWIDTH 480 0
DWIDTH 8 0
BBX 5 11 2 0
BITMAP
18
18
00
F0
30
30
20
20
20
20
38
ENDCHAR
STARTCHAR 006A
ENCODING 106
SWIDTH 480 0
DWIDTH 8 0
BBX 7 14 1 -3
BITMAP
06
06
00
3E
06
04
04
04
0C
08
08
08
90
E0
ENDCHAR
STARTCHAR 006B
ENCODING 107
SWIDTH 480 0
DWIDTH 8 0
BBX 8 11 1 1
BITMAP
10
30
20
23
26
6C
70
58
48
CC
C4
ENDCHAR
STARTCHAR 006C
ENCODING 108
SWIDTH 480 0
DWIDTH 8 0
BBX 4 11 3 0
BITMAP
F0
20
20
20
60
40
40
40
C0
C0
70
ENDCHAR
STARTCHAR 006D
ENCODING 109
SWIDTH 480 0
DWIDTH 8 0
BBX 8 8 1 0
BITMAP
76
4B
4B
5A
D2
82
86
84
ENDCHAR
STARTCHAR 006E
ENCODING 110
SWIDTH 480 0
DWIDTH 8 0
BBX 7 8 1 0
BITMAP
3C
26
62
42
42
46
C4
C4
ENDCHAR
STARTCHAR 006F
ENCODING 111
SWIDTH 480 0
DWIDTH 8 0
BBX 7 8 1 0
BITMAP
1C
36
62
42
C2
C6
CC
78
ENDCHAR
STARTCHAR 0070
ENCODING 112
SWIDTH 480 0
DWIDTH 8 0
BBX 8 11 0 -3
BITMAP
1E
13
31
21
21
23
66
7C
40
40
C0
ENDCHAR
STARTCHAR 0071
ENCODING 113
SWIDTH 480 0
DWIDTH 8 0
BBX 8 11 1 -3
BITMAP
1F
33
62
42
C6
C6
C4
7C
0C
0C
08
ENDCHAR
STARTCHAR 0072
ENCODING 114
SWIDTH 480 0
DWIDTH 8 0
BBX 7 8 2 0
BITMAP
3E
60
40
40
C0
80
80
80
ENDCHAR
STARTCHAR 0073
ENCODING 115
SWIDTH 480 0
DWIDTH 8 0
BBX 7 8 1 0
BITMAP
1E
32
20
30
0C
04
04
FC
ENDCHAR
STARTCHAR 0074
ENCODING 116
SWIDTH 480 0
DWIDTH 8 0
BBX 5 10 3 0
BITMAP
20
60
F8
40
40
C0
C0
80
80
F0
ENDCHAR
STARTCHAR 0075
ENCODING 117
SWIDTH 480 0
DWIDTH 8 0
BBX 8 8 1 0
BITMAP
23
62
42
46
46
C4
CC
7C
ENDCHAR
STARTCHAR 0076
ENCODING 118
SWIDTH 480 0
DWIDTH 8 0
BBX 7 8 2 0
BITMAP
C6
C4
C4
C8
48
50
70
60
ENDCHAR
STARTCHAR 0077
ENCODING 119
SWIDTH 480 0
DWIDTH 8 0
BBX 9 8 1 0
BITMAP
4180
4100
4900
5A00
DA00
EA00
CC00
CC00
ENDCHAR
STARTCHAR 0078
ENCODING 120
SWIDTH 480 0
DWIDTH 8 0
BBX 8 8 1 0
BITMAP
63
22
34
18
18
28
4C
84
ENDCHAR
STARTCHAR 0079
ENCODING 121
SWIDTH 480 0
DWIDTH 8 0
BBX 9 11 0 -3
BITMAP
3180
3180
3100
1300
1200
1600
1C00
0C00
1800
3000
E000
ENDCHAR
STARTCHAR 007A
ENCODING 122
SWIDTH 480 0
DWIDTH 8 0
BBX 7 8 1 0
BITMAP
3E
06
0C
18
30
60
40
FC
ENDCHAR
STARTCHAR 007B
ENCODING 123
SWIDTH 480 0
DWIDTH 8 0
BBX 7 15 2 -3
BITMAP
06
18
10
10
30
20
20
C0
40
40
40
40
C0
C0
70
ENDCHAR
STARTCHAR 007C
ENCODING 124
SWIDTH 480 0
DWIDTH 8 0
BBX 4 15 3 -3
BITMAP
10
10
30
30
20
20
20
60
40
40
40
C0
80
80
80
ENDCHAR
STARTCHAR 007D
ENCODING 125
SWIDTH 480 0
DWIDTH 8 0
BBX 8 15 0 -3
BITMAP
1C
06
02
02
06
04
04
03
04
08
08
08
18
10
E0
ENDCHAR
STARTCHAR 007E
ENCODING 126
SWIDTH 480 0
DWIDTH 8 0
BBX 7 3 1 3
BITMAP
20
7A
8C
ENDCHAR
STARTCHAR 00A0
ENCODING 160
SWIDTH 480 0
DWIDTH 8 0
BBX 0 0 0 0
BITMAP
ENDCHAR
STARTCHAR 00A1
ENCODING 161
SWIDTH 480 0
DWIDTH 8 0
BBX 4 11 2 -3
BITMAP
10
30
00
00
20
20
60
60
40
40
C0
ENDCHAR
STARTCHAR 00A2
ENCODING 162
SWIDTH 480 0
DWIDTH 8 0
BBX 6 12 2 -2
BITMAP
08
08
3C
60
C0
80
80
80
F8
20
20
40
ENDCHAR
STARTCHAR 00A3
ENCODING 163
SWIDTH 480 0
DWIDTH 8 0
BBX 7 11 2 0
BITMAP
04
1E
30
20
60
F8
F8
40
C0
80
F8
ENDCHAR
STARTCHAR 00A4
ENCODING 164
SWIDTH 480 0
DWIDTH 8 0
BBX 7 7 2 2
BITMAP
80
FC
CC
84
84
4C
B6
ENDCHAR
STARTCHAR 00A5
ENCODING 165
SWIDTH 480 0
DWIDTH 8 0
BBX 9 10 1 0
BITMAP
2180
2300
3200
1400
1800
7E00
1000
FE00
1000
3000
ENDCHAR
STARTCHAR 00A6
ENCODING 166
SWIDTH 480 0
DWIDTH 8 0
BBX 4 15 3 -3
BITMAP
10
10
10
30
20
20
00
00
00
40
40
C0
80
80
80
ENDCHAR
STARTCHAR 00A7
ENCODING 167
SWIDTH 480 0
DWIDTH 8 0
BBX 8 13 1 -2
BITMAP
04
1F
30
30
3C
66
42
66
38
0C
0C
F8
60
ENDCHAR
STARTCHAR 00A8
ENCODING 168
SWIDTH 480 0
DWIDTH 8 0
BBX 4 2 4 9
BITMAP
D0
90
ENDCHAR
STARTCHAR 00A9
ENCODING 169
SWIDTH 480 0
DWIDTH 8 0
BBX 7 8 1 0
BITMAP
38
46
9A
A2
A2
BA
42
3C
ENDCHAR
STARTCHAR 00AA
ENCODING 170
SWIDTH 480 0
DWIDTH 8 0
BBX 5 6 3 5
BITMAP
10
68
C8
90
90
F0
ENDCHAR
STARTCHAR 00AB
ENCODING 171
SWIDTH 480 0
DWIDTH 8 0
BBX 6 5 2 1
BITMAP
24
48
90
90
48
ENDCHAR
STARTCHAR 00AC
ENCODING 172
SWIDTH 480 0
DWIDTH 8 0
BBX 7 5 2 1
BITMAP
FE
04
04
04
0C
ENDCHAR
STARTCHAR 00AD
ENCODING 173
SWIDTH 480 0
DWIDTH 8 0
BBX 4 1 3 4
BITMAP
F0
ENDCHAR
STARTCHAR 00AE
ENCODING 174
SWIDTH 480 0
DWIDTH 8 0
BBX 7 8 1 0
BITMAP
38
46
BA
AA
BA
AA
42
3C
ENDCHAR
STARTCHAR 00AF
ENCODING 175
SWIDTH 480 0
DWIDTH 8 0
BBX 4 1 4 10
BITMAP
F0
ENDCHAR
STARTCHAR 00B0
ENCODING 176
SWIDTH 480 0
DWIDTH 8 0
BBX 4 5 4 7
BITMAP
40
B0
90
B0
40
ENDCHAR
STARTCHAR 00B1
ENCODING 177
SWIDTH 480 0
DWIDTH 8 0
BBX 8 9 1 0
BITMAP
0C
08
08
7F
18
10
10
00
FC
ENDCHAR
STARTCHAR 00B2
ENCODING 178
SWIDTH 480 0
DWIDTH 8 0
BBX 5 6 3 5
BITMAP
30
58
18
30
40
F0
ENDCHAR
STARTCHAR 00B3
ENCODING 179
SWIDTH 480 0
DWIDTH 8 0
BBX 5 6 3 5
BITMAP
10
68
18
30
10
F0
ENDCHAR
STARTCHAR 00B4
ENCODING 180
SWIDTH 480 0
DWIDTH 8 0
BBX 3 2 5 10
BITMAP
60
C0
ENDCHAR
STARTCHAR 00B5
ENCODING 181
SWIDTH 480 0
DWIDTH 8 0
BBX 8 11 0 -3
BITMAP
11
31
21
23
23
62
62
7F
40
C0
80
ENDCHAR
STARTCHAR 00B6
ENCODING 182
SWIDTH 480 0
DWIDTH 8 0
BBX 7 13 2 -3
BITMAP
7E
F2
F2
F6
F4
F4
24
2C
28
68
48
58
50
ENDCHAR
STARTCHAR 00B7
ENCODING 183
SWIDTH 480 0
DWIDTH 8 0
BBX 2 3 4 3
BITMAP
80
C0
C0
ENDCHAR
STARTCHAR 00B8
ENCODING 184
SWIDTH 480 0
DWIDTH 8 0
BBX 3 3 2 -3
BITMAP
40
20
C0
ENDCHAR
STARTCHAR 00B9
ENCODING 185
SWIDTH 480 0
DWIDTH 8 0
BBX 4 5 3 5
BITMAP
30
30
20
20
F0
ENDCHAR
STARTCHAR 00BA
ENCODING 186
SWIDTH 480 0
DWIDTH 8 0
BBX 5 6 3 5
BITMAP
10
68
C8
88
88
70
ENDCHAR
STARTCHAR 00BB
ENCODING 187
SWIDTH 480 0
DWIDTH 8 0
BBX 6 6 2 1
BITMAP
48
48
24
48
90
90
ENDCHAR
STARTCHAR 00BC
ENCODING 188
SWIDTH 480 0
DWIDTH 8 0
BBX 8 10 1 0
BITMAP
31
12
26
24
08
10
26
6A
5E
84
ENDCHAR
STARTCHAR 00BD
ENCODING 189
SWIDTH 480 0
DWIDTH 8 0
BBX 8 10 1 0
BITMAP
31
12
24
2C
08
10
2E
62
CC
8E
ENDCHAR
STARTCHAR 00BE
ENCODING 190
SWIDTH 480 0
DWIDTH 8 0
BBX 8 11 1 0
BITMAP
20
51
22
16
E4
08
10
26
6A
5E
84
ENDCHAR
STARTCHAR 00BF
ENCODING 191
SWIDTH 480 0
DWIDTH 8 0
BBX 6 11 1 -3
BITMAP
0C
0C
00
00
08
10
20
40
C0
C8
78
ENDCHAR
STARTCHAR 00C0
ENCODING 192
SWIDTH 480 0
DWIDTH 8 0
BBX 8 13 0 1
BITMAP
06
03
00
06
0E
0A
12
13
23
3F
43
43
83
ENDCHAR
STARTCHAR 00C1
ENCODING 193
SWIDTH 480 0
DWIDTH 8 0
BBX 8 13 0 1
BITMAP
01
02
00
06
0E
0A
12
13
23
3F
43
43
83
ENDCHAR
STARTCHAR 00C2
ENCODING 194
SWIDTH 480 0
DWIDTH 8 0
BBX 9 13 0 1
BITMAP
0300
0580
0000
0600
0E00
0A00
1200
1300
2300
3F00
4300
4300
8300
ENDCHAR
STARTCHAR 00C3
ENCODING 195
SWIDTH 480 0
DWIDTH 8 0
BBX 9 13 0 0
BITMAP
0F80
0000
0000
0600
0E00
0A00
1200
1300
2300
3F00
4300
4300
8300
ENDCHAR
STARTCHAR 00C4
ENCODING 196
SWIDTH 480 0
DWIDTH 8 0
BBX 9 13 0 0
BITMAP
0580
0400
0000
0600
0E00
0A00
1200
1300
2300
3F00
4300
4300
8300
ENDCHAR
STARTCHAR 00C5
ENCODING 197
SWIDTH 480 0
DWIDTH 8 0
BBX 8 12 0 0
BITMAP
07
05
06
0E
0A
12
13
23
3F
43
43
83
ENDCHAR
STARTCHAR 00C6
ENCODING 198
SWIDTH 480 0
DWIDTH 8 0
BBX 10 10 0 0
BITMAP
07C0
0600
0A00
0A00
1700
3400
3C00
6400
4C00
CF00
ENDCHAR
STARTCHAR 00C7
ENCODING 199
SWIDTH 480 0
DWIDTH 8 0
BBX 8 14 1 -3
BITMAP
06
1F
30
60
40
40
40
C0
40
60
3C
10
10
70
ENDCHAR
STARTCHAR 00C8
ENCODING 200
SWIDTH 480 0
DWIDTH 8 0
BBX 8 14 1 0
BITMAP
04
04
02
00
3F
30
20
20
3E
60
40
40
40
FC
ENDCHAR
STARTCHAR 00C9
ENCODING 201
SWIDTH 480 0
DWIDTH 8 0
BBX 8 13 1 1
BITMAP
02
04
00
3F
30
20
20
3E
60
40
40
40
FC
ENDCHAR
STARTCHAR 00CA
ENCODING 202
SWIDTH 480 0
DWIDTH 8 0
BBX 8 14 1 0
BITMAP
02
06
09
00
3F
30
20
20
3E
60
40
40
40
FC
ENDCHAR
STARTCHAR 00CB
ENCODING 203
SWIDTH 480 0
DWIDTH 8 0
BBX 8 13 1 0
BITMAP
0B
08
00
3F
30
20
20
3E
60
40
40
40
FC
ENDCHAR
STARTCHAR 00CC
ENCODING 204
SWIDTH 480 0
DWIDTH 8 0
BBX 8 13 1 1
BITMAP
0C
06
00
3F
0C
08
08
18
18
10
10
10
FC
ENDCHAR
STARTCHAR 00CD
ENCODING 205
SWIDTH 480 0
DWIDTH 8 0
BBX 8 14 1 0
BITMAP
02
06
0C
00
3F
0C
08
08
18
18
10
10
10
FC
ENDCHAR
STARTCHAR 00CE
ENCODING 206
SWIDTH 480 0
DWIDTH 8 0
BBX 8 13 1 1
BITMAP
06
0B
00
3F
0C
08
08
18
18
10
10
10
FC
ENDCHAR
STARTCHAR 00CF
ENCODING 207
SWIDTH 480 0
DWIDTH 8 0
BBX 8 13 1 0
BITMAP
0B
08
00
3F
0C
08
08
18
18
10
10
10
FC
ENDCHAR
STARTCHAR 00D0
ENCODING 208
SWIDTH 480 0
DWIDTH 8 0
BBX 8 10 1 0
BITMAP
3E
32
23
23
F3
62
42
46
CC
F8
ENDCHAR
STARTCHAR 00D1
ENCODING 209
SWIDTH 480 0
DWIDTH 8 0
BBX 8 13 1 0
BITMAP
0F
00
00
31
31
71
5B
4A
4A
4A
CA
86
84
ENDCHAR
STARTCHAR 00D2
ENCODING 210
SWIDTH 480 0
DWIDTH 8 0
BBX 8 13 1 1
BITMAP
04
02
04
1E
23
61
41
43
C3
C2
C6
44
78
ENDCHAR
STARTCHAR 00D3
ENCODING 211
SWIDTH 480 0
DWIDTH 8 0
BBX 8 13 1 1
BITMAP
02
04
04
1E
23
61
41
43
C3
C2
C6
44
78
ENDCHAR
STARTCHAR 00D4
ENCODING 212
SWIDTH 480 0
DWIDTH 8 0
BBX 8 13 1 1
BITMAP
06
09
04
1E
23
61
41
43
C3
C2
C6
44
78
ENDCHAR
STARTCHAR 00D5
ENCODING 213
SWIDTH 480 0
DWIDTH 8 0
BBX 8 13 1 0
BITMAP
0F
00
04
1E
23
61
41
43
C3
C2
C6
44
78
ENDCHAR
STARTCHAR 00D6
ENCODING 214
SWIDTH 480 0
DWIDTH 8 0
BBX 8 13 1 0
BITMAP
09
08
04
1E
23
61
41
43
C3
C2
C6
44
78
ENDCHAR
STARTCHAR 00D7
ENCODING 215
SWIDTH 480 0
DWIDTH 8 0
BBX 6 6 2 1
BITMAP
44
78
30
70
C8
08
ENDCHAR
STARTCHAR 00D8
ENCODING 216
SWIDTH 480 0
DWIDTH 8 0
BBX 8 12 1 -1
BITMAP
05
1F
23
65
4D
4B
D2
E2
E6
CC
F8
80
ENDCHAR
STARTCHAR 00D9
ENCODING 217
SWIDTH 480 0
DWIDTH 8 0
BBX 8 14 1 0
BITMAP
08
0C
04
00
21
21
61
63
42
42
C2
C6
44
78
ENDCHAR
STARTCHAR 00DA
ENCODING 218
SWIDTH 480 0
DWIDTH 8 0
BBX 8 13 1 1
BITMAP
02
04
00
21
21
61
63
42
42
C2
C6
44
78
ENDCHAR
STARTCHAR 00DB
ENCODING 219
SWIDTH 480 0
DWIDTH 8 0
BBX 8 13 1 1
BITMAP
06
0B
00
21
21
61
63
42
42
C2
C6
44
78
ENDCHAR
STARTCHAR 00DC
ENCODING 220
SWIDTH 480 0
DWIDTH 8 0
BBX 8 13 1 0
BITMAP
0B
08
00
21
21
61
63
42
42
C2
C6
44
78
ENDCHAR
STARTCHAR 00DD
ENCODING 221
SWIDTH 480 0
DWIDTH 8 0
BBX 7 13 3 1
BITMAP
0C
10
00
86
84
88
D8
50
60
40
40
40
C0
ENDCHAR
STARTCHAR 00DE
ENCODING 222
SWIDTH 480 0
DWIDTH 8 0
BBX 8 10 1 0
BITMAP
30
3C
3E
63
63
42
4E
F8
C0
80
ENDCHAR
STARTCHAR 00DF
ENCODING 223
SWIDTH 480 0
DWIDTH 8 0
BBX 11 15 -2 -3
BITMAP
0080
03C0
0660
0440
04C0
0500
0D00
0D80
08C0
0840
0840
1B80
1000
3000
E000
ENDCHAR
STARTCHAR 00E0
ENCODING 224
SWIDTH 480 0
DWIDTH 8 0
BBX 8 11 1 1
BITMAP
08
04
00
1F
32
62
46
C6
C4
C4
7C
ENDCHAR
STARTCHAR 00E1
ENCODING 225
SWIDTH 480 0
DWIDTH 8 0
BBX 8 11 1 1
BITMAP
02
04
00
1F
32
62
46
C6
C4
C4
7C
ENDCHAR
STARTCHAR 00E2
ENCODING 226
SWIDTH 480 0
DWIDTH 8 0
BBX 8 11 1 0
BITMAP
04
0A
00
1F
32
62
46
C6
C4
C4
7C
ENDCHAR
STARTCHAR 00E3
ENCODING 227
SWIDTH 480 0
DWIDTH 8 0
BBX 8 11 1 0
BITMAP
0D
16
00
1F
32
62
46
C6
C4
C4
7C
ENDCHAR
STARTCHAR 00E4
ENCODING 228
SWIDTH 480 0
DWIDTH 8 0
BBX 8 11 1 0
BITMAP
0B
0B
00
1F
32
62
46
C6
C4
C4
7C
ENDCHAR
STARTCHAR 00E5
ENCODING 229
SWIDTH 480 0
DWIDTH 8 0
BBX 8 12 1 0
BITMAP
04
0A
0A
04
1F
32
62
46
C6
C4
C4
7C
ENDCHAR
STARTCHAR 00E6
ENCODING 230
SWIDTH 480 0
DWIDTH 8 0
BBX 8 8 1 0
BITMAP
77
15
19
3B
7C
90
B8
EE
ENDCHAR
STARTCHAR 00E7
ENCODING 231
SWIDTH 480 0
DWIDTH 8 0
BBX 7 11 1 -3
BITMAP
1E
30
40
C0
C0
C0
C0
7C
20
10
60
ENDCHAR
STARTCHAR 00E8
ENCODING 232
SWIDTH 480 0
DWIDTH 8 0
BBX 7 11 1 1
BITMAP
0C
04
00
1E
32
42
C6
F8
C0
C0
7C
ENDCHAR
STARTCHAR 00E9
ENCODING 233
SWIDTH 480 0
DWIDTH 8 0
BBX 7 11 1 1
BITMAP
06
0C
00
1E
32
42
C6
F8
C0
C0
7C
ENDCHAR
STARTCHAR 00EA
ENCODING 234
SWIDTH 480 0
DWIDTH 8 0
BBX 7 11 1 0
BITMAP
04
1A
00
1E
32
42
C6
F8
C0
C0
7C
ENDCHAR
STARTCHAR 00EB
ENCODING 235
SWIDTH 480 0
DWIDTH 8 0
BBX 8 11 1 0
BITMAP
0B
1B
00
1E
32
42
C6
F8
C0
C0
7C
ENDCHAR
STARTCHAR 00EC
ENCODING 236
SWIDTH 480 0
DWIDTH 8 0
BBX 5 11 2 1
BITMAP
30
10
00
F0
30
30
20
20
20
20
38
ENDCHAR
STARTCHAR 00ED
ENCODING 237
SWIDTH 480 0
DWIDTH 8 0
BBX 6 11 2 1
BITMAP
0C
10
00
F0
30
30
20
20
20
20
38
ENDCHAR
STARTCHAR 00EE
ENCODING 238
SWIDTH 480 0
DWIDTH 8 0
BBX 5 11 2 0
BITMAP
18
28
00
F0
30
30
20
20
20
20
38
ENDCHAR
STARTCHAR 00EF
ENCODING 239
SWIDTH 480 0
DWIDTH 8 0
BBX 6 11 2 0
BITMAP
2C
2C
00
F0
30
30
20
20
20
20
38
ENDCHAR
STARTCHAR 00F0
ENCODING 240
SWIDTH 480 0
DWIDTH 8 0
BBX 8 11 1 1
BITMAP
0C
07
0A
02
3E
62
42
C2
C6
4C
78
ENDCHAR
STARTCHAR 00F1
ENCODING 241
SWIDTH 480 0
DWIDTH 8 0
BBX 8 11 1 0
BITMAP
19
16
00
3C
26
62
42
42
46
C4
C4
ENDCHAR
STARTCHAR 00F2
ENCODING 242
SWIDTH 480 0
DWIDTH 8 0
BBX 7 11 1 1
BITMAP
08
04
00
1C
36
62
42
C2
C6
CC
78
ENDCHAR
STARTCHAR 00F3
ENCODING 243
SWIDTH 480 0
DWIDTH 8 0
BBX 7 11 1 1
BITMAP
06
0C
00
1C
36
62
42
C2
C6
CC
78
ENDCHAR
STARTCHAR 00F4
ENCODING 244
SWIDTH 480 0
DWIDTH 8 0
BBX 7 11 1 0
BITMAP
04
1A
00
1C
36
62
42
C2
C6
CC
78
ENDCHAR
STARTCHAR 00F5
ENCODING 245
SWIDTH 480 0
DWIDTH 8 0
BBX 8 11 1 0
BITMAP
19
16
00
1C
36
62
42
C2
C6
CC
78
ENDCHAR
STARTCHAR 00F6
ENCODING 246
SWIDTH 480 0
DWIDTH 8 0
BBX 8 11 1 0
BITMAP
1B
1A
00
1C
36
62
42
C2
C6
CC
78
ENDCHAR
STARTCHAR 00F7
ENCODING 247
SWIDTH 480 0
DWIDTH 8 0
BBX 6 7 2 1
BITMAP
10
10
00
FC
00
20
60
ENDCHAR
STARTCHAR 00F8
ENCODING 248
SWIDTH 480 0
DWIDTH 8 0
BBX 8 8 1 -1
BITMAP
1D
36
66
4A
D2
E6
CC
F8
ENDCHAR
STARTCHAR 00F9
ENCODING 249
SWIDTH 480 0
DWIDTH 8 0
BBX 8 11 1 1
BITMAP
18
0C
00
23
62
42
46
46
C4
CC
7C
ENDCHAR
STARTCHAR 00FA
ENCODING 250
SWIDTH 480 0
DWIDTH 8 0
BBX 8 11 1 1
BITMAP
06
0C
00
23
62
42
46
46
C4
CC
7C
ENDCHAR
STARTCHAR 00FB
ENCODING 251
SWIDTH 480 0
DWIDTH 8 0
BBX 8 11 1 0
BITMAP
0C
1E
00
23
62
42
46
46
C4
CC
7C
ENDCHAR
STARTCHAR 00FC
ENCODING 252
SWIDTH 480 0
DWIDTH 8 0
BBX 8 11 1 0
BITMAP
12
12
00
23
62
42
46
46
C4
CC
7C
ENDCHAR
STARTCHAR 00FD
ENCODING 253
SWIDTH 480 0
DWIDTH 8 0
BBX 9 14 0 -2
BITMAP
0300
0600
0000
3180
3180
3100
1300
1200
1600
1C00
0C00
1800
3000
E000
ENDCHAR
STARTCHAR 00FE
ENCODING 254
SWIDTH 480 0
DWIDTH 8 0
BBX 8 14 0 -2
BITMAP
18
18
10
1E
13
31
21
21
23
66
7C
40
40
C0
ENDCHAR
STARTCHAR 00FF
ENCODING 255
SWIDTH 480 0
DWIDTH 8 0
BBX 9 14 0 -3
BITMAP
0900
0900
0000
3180
3180
3100
1300
1200
1600
1C00
0C00
1800
3000
E000
ENDCHAR
STARTCHAR 0100
ENCODING 256
SWIDTH 480 0
DWIDTH 8 0
BBX 9 13 0 0
BITMAP
0780
0000
0000
0600
0E00
0A00
1200
1300
2300
3F00
4300
4300
8300
ENDCHAR
STARTCHAR 0101
ENCODING 257
SWIDTH 480 0
DWIDTH 8 0
BBX 8 11 1 0
BITMAP
0F
00
00
1F
32
62
46
C6
C4
C4
7C
ENDCHAR
STARTCHAR 0102
ENCODING 258
SWIDTH 480 0
DWIDTH 8 0
BBX 9 13 0 0
BITMAP
0580
0200
0000
0600
0E00
0A00
1200
1300
2300
3F00
4300
4300
8300
ENDCHAR
STARTCHAR 0103
ENCODING 259
SWIDTH 480 0
DWIDTH 8 0
BBX 8 11 1 0
BITMAP
09
0E
00
1F
32
62
46
C6
C4
C4
7C
ENDCHAR
STARTCHAR 0104
ENCODING 260
SWIDTH 480 0
DWIDTH 8 0
BBX 8 13 0 -3
BITMAP
06
0E
0A
12
13
23
3F
43
43
83
02
04
06
ENDCHAR
STARTCHAR 0105
ENCODING 261
SWIDTH 480 0
DWIDTH 8 0
BBX 8 11 1 -3
BITMAP
1F
32
62
46
C6
C4
C4
7C
0C
08
0C
ENDCHAR
STARTCHAR 0106
ENCODING 262
SWIDTH 480 0
DWIDTH 8 0
BBX 8 13 1 1
BITMAP
03
04
06
1F
30
60
40
40
40
C0
40
60
3C
ENDCHAR
STARTCHAR 0107
ENCODING 263
SWIDTH 480 0
DWIDTH 8 0
BBX 7 11 1 1
BITMAP
02
04
00
1E
30
40
C0
C0
C0
C0
7C
ENDCHAR
STARTCHAR 0108
ENCODING 264
SWIDTH 480 0
DWIDTH 8 0
BBX 8 14 1 0
BITMAP
02
07
09
06
1F
30
60
40
40
40
C0
40
60
3C
ENDCHAR
STARTCHAR 0109
ENCODING 265
SWIDTH 480 0
DWIDTH 8 0
BBX 7 11 1 0
BITMAP
04
0A
00
1E
30
40
C0
C0
C0
C0
7C
ENDCHAR
STARTCHAR 010A
ENCODING 266
SWIDTH 480 0
DWIDTH 8 0
BBX 8 13 1 0
BITMAP
06
00
06
1F
30
60
40
40
40
C0
40
60
3C
ENDCHAR
STARTCHAR 010B
ENCODING 267
SWIDTH 480 0
DWIDTH 8 0
BBX 7 11 1 0
BITMAP
06
04
00
1E
30
40
C0
C0
C0
C0
7C
ENDCHAR
STARTCHAR 010C
ENCODING 268
SWIDTH 480 0
DWIDTH 8 0
BBX 8 13 1 1
BITMAP
07
02
06
1F
30
60
40
40
40
C0
40
60
3C
ENDCHAR
STARTCHAR 010D
ENCODING 269
SWIDTH 480 0
DWIDTH 8 0
BBX 7 11 1 1
BITMAP
0A
04
00
1E
30
40
C0
C0
C0
C0
7C
ENDCHAR
STARTCHAR 010E
ENCODING 270
SWIDTH 480 0
DWIDTH 8 0
BBX 8 13 1 1
BITMAP
0E
04
00
3E
22
63
43
43
42
C2
C6
8C
F0
ENDCHAR
STARTCHAR 010F
ENCODING 271
SWIDTH 480 0
DWIDTH 8 0
BBX 10 12 1 0
BITMAP
00C0
0280
0280
0680
1C00
6400
4400
CC00
8C00
8800
8800
F800
ENDCHAR
STARTCHAR 0110
ENCODING 272
SWIDTH 480 0
DWIDTH 8 0
BBX 8 10 1 0
BITMAP
3E
32
23
23
F3
62
42
46
CC
F8
ENDCHAR
STARTCHAR 0111
ENCODING 273
SWIDTH 480 0
DWIDTH 8 0
BBX 9 11 1 1
BITMAP
0100
0F80
0300
1E00
3200
6200
4600
C400
C400
CC00
7C00
ENDCHAR
STARTCHAR 0112
ENCODING 274
SWIDTH 480 0
DWIDTH 8 0
BBX 8 13 1 0
BITMAP
0F
00
00
3F
30
20
20
3E
60
40
40
40
FC
ENDCHAR
STARTCHAR 0113
ENCODING 275
SWIDTH 480 0
DWIDTH 8 0
BBX 8 11 1 0
BITMAP
1F
00
00
1E
32
42
C6
F8
C0
C0
7C
ENDCHAR
STARTCHAR 0114
ENCODING 276
SWIDTH 480 0
DWIDTH 8 0
BBX 8 13 1 0
BITMAP
0D
06
00
3F
30
20
20
3E
60
40
40
40
FC
ENDCHAR
STARTCHAR 0115
ENCODING 277
SWIDTH 480 0
DWIDTH 8 0
BBX 8 11 1 0
BITMAP
0B
0E
00
1E
32
42
C6
F8
C0
C0
7C
ENDCHAR
STARTCHAR 0116
ENCODING 278
SWIDTH 480 0
DWIDTH 8 0
BBX 8 13 1 0
BITMAP
06
00
00
3F
30
20
20
3E
60
40
40
40
FC
ENDCHAR
STARTCHAR 0117
ENCODING 279
SWIDTH 480 0
DWIDTH 8 0
BBX 7 11 1 0
BITMAP
04
04
00
1E
32
42
C6
F8
C0
C0
7C
ENDCHAR
STARTCHAR 0118
ENCODING 280
SWIDTH 480 0
DWIDTH 8 0
BBX 8 13 1 -3
BITMAP
3F
30
20
20
3E
60
40
40
40
FC
0C
08
0C
ENDCHAR
STARTCHAR 0119
ENCODING 281
SWIDTH 480 0
DWIDTH 8 0
BBX 7 11 1 -3
BITMAP
1E
32
42
C6
F8
C0
C0
7C
08
10
18
ENDCHAR
STARTCHAR 011A
ENCODING 282
SWIDTH 480 0
DWIDTH 8 0
BBX 8 14 1 0
BITMAP
01
07
00
00
3F
30
20
20
3E
60
40
40
40
FC
ENDCHAR
STARTCHAR 011B
ENCODING 283
SWIDTH 480 0
DWIDTH 8 0
BBX 7 11 1 1
BITMAP
0A
04
00
1E
32
42
C6
F8
C0
C0
7C
ENDCHAR
STARTCHAR 011C
ENCODING 284
SWIDTH 480 0
DWIDTH 8 0
BBX 8 14 1 0
BITMAP
02
06
09
06
1F
30
60
40
40
C2
C2
C6
44
7C
ENDCHAR
STARTCHAR 011D
ENCODING 285
SWIDTH 480 0
DWIDTH 8 0
BBX 8 14 1 -3
BITMAP
06
0A
00
0F
33
62
42
42
C6
6C
34
0C
98
F0
ENDCHAR
STARTCHAR 011E
ENCODING 286
SWIDTH 480 0
DWIDTH 8 0
BBX 8 13 1 0
BITMAP
0D
06
06
1F
30
60
40
40
C2
C2
C6
44
7C
ENDCHAR
STARTCHAR 011F
ENCODING 287
SWIDTH 480 0
DWIDTH 8 0
BBX 8 14 1 -3
BITMAP
09
0E
00
0F
33
62
42
42
C6
6C
34
0C
98
F0
ENDCHAR
STARTCHAR 0120
ENCODING 288
SWIDTH 480 0
DWIDTH 8 0
BBX 8 13 1 0
BITMAP
06
00
06
1F
30
60
40
40
C2
C2
C6
44
7C
ENDCHAR
STARTCHAR 0121
ENCODING 289
SWIDTH 480 0
DWIDTH 8 0
BBX 8 14 1 -3
BITMAP
06
04
00
0F
33
62
42
42
C6
6C
34
0C
98
F0
ENDCHAR
STARTCHAR 0122
ENCODING 290
SWIDTH 480 0
DWIDTH 8 0
BBX 8 14 1 -3
BITMAP
06
1F
30
60
40
40
C2
C2
C6
44
7C
00
30
60
ENDCHAR
STARTCHAR 0123
ENCODING 291
SWIDTH 480 0
DWIDTH 8 0
BBX 8 14 1 -2
BITMAP
06
04
00
0F
33
62
42
42
C6
6C
34
0C
98
F0
ENDCHAR
STARTCHAR 0124
ENCODING 292
SWIDTH 480 0
DWIDTH 8 0
BBX 8 13 1 1
BITMAP
06
0B
00
21
21
61
63
7E
42
C2
C6
86
84
ENDCHAR
STARTCHAR 0125
ENCODING 293
SWIDTH 480 0
DWIDTH 8 0
BBX 7 14 1 0
BITMAP
08
1C
00
30
20
20
3C
66
42
46
46
C4
84
84
ENDCHAR
STARTCHAR 0126
ENCODING 294
SWIDTH 480 0
DWIDTH 8 0
BBX 9 10 1 0
BITMAP
3100
7F80
2200
2200
7E00
4600
4600
4400
C400
CC00
ENDCHAR
STARTCHAR 0127
ENCODING 295
SWIDTH 480 0
DWIDTH 8 0
BBX 7 11 1 1
BITMAP
10
3C
30
3C
26
22
62
62
46
44
C4
ENDCHAR
STARTCHAR 0128
ENCODING 296
SWIDTH 480 0
DWIDTH 8 0
BBX 8 13 1 0
BITMAP
0F
00
00
3F
0C
08
08
18
18
10
10
10
FC
ENDCHAR
STARTCHAR 0129
ENCODING 297
SWIDTH 480 0
DWIDTH 8 0
BBX 6 11 2 0
BITMAP
34
4C
00
F0
30
30
20
20
20
20
38
ENDCHAR
STARTCHAR 012A
ENCODING 298
SWIDTH 480 0
DWIDTH 8 0
BBX 8 13 1 0
BITMAP
0F
00
00
3F
0C
08
08
18
18
10
10
10
FC
ENDCHAR
STARTCHAR 012B
ENCODING 299
SWIDTH 480 0
DWIDTH 8 0
BBX 6 11 2 0
BITMAP
3C
00
00
F0
30
30
20
20
20
20
38
ENDCHAR
STARTCHAR 012C
ENCODING 300
SWIDTH 480 0
DWIDTH 8 0
BBX 8 13 1 0
BITMAP
0B
04
00
3F
0C
08
08
18
18
10
10
10
FC
ENDCHAR
STARTCHAR 012D
ENCODING 301
SWIDTH 480 0
DWIDTH 8 0
BBX 6 11 2 0
BITMAP
24
18
00
F0
30
30
20
20
20
20
38
ENDCHAR
STARTCHAR 012E
ENCODING 302
SWIDTH 480 0
DWIDTH 8 0
BBX 8 13 1 -3
BITMAP
3F
0C
08
08
18
18
10
10
10
FC
20
40
60
ENDCHAR
STARTCHAR 012F
ENCODING 303
SWIDTH 480 0
DWIDTH 8 0
BBX 5 14 2 -3
BITMAP
18
18
00
F0
30
30
20
20
20
20
38
10
20
30
ENDCHAR
STARTCHAR 0130
ENCODING 304
SWIDTH 480 0
DWIDTH 8 0
BBX 8 13 1 0
BITMAP
06
04
00
3F
0C
08
08
18
18
10
10
10
FC
ENDCHAR
STARTCHAR 0131
ENCODING 305
SWIDTH 480 0
DWIDTH 8 0
BBX 5 8 2 0
BITMAP
F0
30
30
20
20
20
20
38
ENDCHAR
STARTCHAR 0132
ENCODING 306
SWIDTH 480 0
DWIDTH 8 0
BBX 10 10 0 0
BITMAP
10C0
30C0
2080
2080
2180
6180
6100
4100
5300
DE00
ENDCHAR
STARTCHAR 0133
ENCODING 307
SWIDTH 480 0
DWIDTH 8 0
BBX 7 14 2 -3
BITMAP
36
26
00
64
64
4C
48
C8
C8
98
98
10
B0
E0
ENDCHAR
STARTCHAR 0134
ENCODING 308
SWIDTH 480 0
DWIDTH 8 0
BBX 8 14 1 0
BITMAP
02
07
09
00
1F
03
03
02
02
06
06
04
0C
F8
ENDCHAR
STARTCHAR 0135
ENCODING 309
SWIDTH 480 0
DWIDTH 8 0
BBX 7 14 1 -3
BITMAP
04
1A
00
3E
06
04
04
04
0C
08
08
08
90
E0
ENDCHAR
STARTCHAR 0136
ENCODING 310
SWIDTH 480 0
DWIDTH 8 0
BBX 8 13 1 -3
BITMAP
23
26
2C
78
70
50
48
CC
84
86
00
20
60
ENDCHAR
STARTCHAR 0137
ENCODING 311
SWIDTH 480 0
DWIDTH 8 0
BBX 8 14 1 -2
BITMAP
10
30
20
23
26
6C
70
58
48
CC
C4
00
30
60
ENDCHAR
STARTCHAR 0138
ENCODING 312
SWIDTH 480 0
DWIDTH 8 0
BBX 8 8 1 0
BITMAP
23
26
6C
70
50
48
CC
C4
ENDCHAR
STARTCHAR 0139
ENCODING 313
SWIDTH 480 0
DWIDTH 8 0
BBX 6 13 1 1
BITMAP
0C
10
00
30
20
20
60
60
40
40
40
C0
FC
ENDCHAR
STARTCHAR 013A
ENCODING 314
SWIDTH 480 0
DWIDTH 8 0
BBX 4 13 3 1
BITMAP
30
00
F0
20
20
20
60
40
40
40
C0
C0
70
ENDCHAR
STARTCHAR 013B
ENCODING 315
SWIDTH 480 0
DWIDTH 8 0
BBX 6 13 1 -3
BITMAP
30
20
20
60
60
40
40
40
C0
FC
00
30
60
ENDCHAR
STARTCHAR 013C
ENCODING 316
SWIDTH 480 0
DWIDTH 8 0
BBX 4 14 3 -3
BITMAP
F0
20
20
20
60
40
40
40
C0
C0
70
00
60
C0
ENDCHAR
STARTCHAR 013D
ENCODING 317
SWIDTH 480 0
DWIDTH 8 0
BBX 6 10 1 0
BITMAP
34
24
28
60
60
40
40
40
C0
FC
ENDCHAR
STARTCHAR 013E
ENCODING 318
SWIDTH 480 0
DWIDTH 8 0
BBX 6 12 3 0
BITMAP
04
F4
24
28
20
60
40
40
40
C0
C0
70
ENDCHAR
STARTCHAR 013F
ENCODING 319
SWIDTH 480 0
DWIDTH 8 0
BBX 7 10 1 0
BITMAP
30
20
20
60
66
40
40
40
C0
FC
ENDCHAR
STARTCHAR 0140
ENCODING 320
SWIDTH 480 0
DWIDTH 8 0
BBX 7 11 3 0
BITMAP
F0
20
20
20
60
46
40
40
C0
C0
70
ENDCHAR
STARTCHAR 0141
ENCODING 321
SWIDTH 480 0
DWIDTH 8 0
BBX 6 10 1 0
BITMAP
30
30
20
28
70
E0
40
40
C0
FC
ENDCHAR
STARTCHAR 0142
ENCODING 322
SWIDTH 480 0
DWIDTH 8 0
BBX 4 11 3 0
BITMAP
F0
20
20
20
70
C0
40
40
C0
C0
70
ENDCHAR
STARTCHAR 0143
ENCODING 323
SWIDTH 480 0
DWIDTH 8 0
BBX 8 13 1 1
BITMAP
02
04
00
31
31
71
5B
4A
4A
4A
CA
86
84
ENDCHAR
STARTCHAR 0144
ENCODING 324
SWIDTH 480 0
DWIDTH 8 0
BBX 7 11 1 1
BITMAP
06
0C
00
3C
26
62
42
42
46
C4
C4
ENDCHAR
STARTCHAR 0145
ENCODING 325
SWIDTH 480 0
DWIDTH 8 0
BBX 8 13 1 -3
BITMAP
31
31
71
5B
4A
4A
4A
CA
86
84
00
20
60
ENDCHAR
STARTCHAR 0146
ENCODING 326
SWIDTH 480 0
DWIDTH 8 0
BBX 7 11 1 -3
BITMAP
3C
26
62
42
42
46
C4
C4
00
20
60
ENDCHAR
STARTCHAR 0147
ENCODING 327
SWIDTH 480 0
DWIDTH 8 0
BBX 8 14 1 0
BITMAP
09
06
04
00
31
31
71
5B
4A
4A
4A
CA
86
84
ENDCHAR
STARTCHAR 0148
ENCODING 328
SWIDTH 480 0
DWIDTH 8 0
BBX 7 11 1 1
BITMAP
0A
0C
00
3C
26
62
42
42
46
C4
C4
ENDCHAR
STARTCHAR 0149
ENCODING 329
SWIDTH 480 0
DWIDTH 8 0
BBX 7 12 1 0
BITMAP
30
20
20
00
3C
26
62
42
42
46
C4
C4
ENDCHAR
STARTCHAR 014A
ENCODING 330
SWIDTH 480 0
DWIDTH 8 0
BBX 8 13 1 -3
BITMAP
31
31
71
5B
4A
4A
4A
C6
86
84
04
0C
18
ENDCHAR
STARTCHAR 014B
ENCODING 331
SWIDTH 480 0
DWIDTH 8 0
BBX 7 11 1 -3
BITMAP
3C
26
62
42
42
46
C4
C4
04
0C
38
ENDCHAR
STARTCHAR 014C
ENCODING 332
SWIDTH 480 0
DWIDTH 8 0
BBX 8 13 1 0
BITMAP
0F
00
04
1E
23
61
41
43
C3
C2
C6
44
78
ENDCHAR
STARTCHAR 014D
ENCODING 333
SWIDTH 480 0
DWIDTH 8 0
BBX 8 11 1 0
BITMAP
1F
00
00
1C
36
62
42
C2
C6
CC
78
ENDCHAR
STARTCHAR 014E
ENCODING 334
SWIDTH 480 0
DWIDTH 8 0
BBX 8 13 1 0
BITMAP
09
06
04
1E
23
61
41
43
C3
C2
C6
44
78
ENDCHAR
STARTCHAR 014F
ENCODING 335
SWIDTH 480 0
DWIDTH 8 0
BBX 8 11 1 0
BITMAP
0B
0E
00
1C
36
62
42
C2
C6
CC
78
ENDCHAR
STARTCHAR 0150
ENCODING 336
SWIDTH 480 0
DWIDTH 8 0
BBX 9 14 1 0
BITMAP
0400
0D80
0A00
0400
1E00
2300
6100
4100
4300
C300
C200
C600
4400
7800
ENDCHAR
STARTCHAR 0151
ENCODING 337
SWIDTH 480 0
DWIDTH 8 0
BBX 8 11 1 1
BITMAP
0D
12
00
1C
36
62
42
C2
C6
CC
78
ENDCHAR
STARTCHAR 0152
ENCODING 338
SWIDTH 480 0
DWIDTH 8 0
BBX 9 10 1 0
BITMAP
3F80
2400
4400
4400
CE00
8800
8800
8800
D800
7E00
ENDCHAR
STARTCHAR 0153
ENCODING 339
SWIDTH 480 0
DWIDTH 8 0
BBX 8 8 1 0
BITMAP
37
7D
C9
CB
9E
98
98
EE
ENDCHAR
STARTCHAR 0154
ENCODING 340
SWIDTH 480 0
DWIDTH 8 0
BBX 8 14 1 0
BITMAP
02
06
0C
00
3E
23
23
63
46
7C
48
CC
84
84
ENDCHAR
STARTCHAR 0155
ENCODING 341
SWIDTH 480 0
DWIDTH 8 0
BBX 7 11 2 1
BITMAP
04
08
00
3E
60
40
40
C0
80
80
80
ENDCHAR
STARTCHAR 0156
ENCODING 342
SWIDTH 480 0
DWIDTH 8 0
BBX 8 13 1 -3
BITMAP
3E
23
23
63
46
7C
48
CC
84
84
00
20
60
ENDCHAR
STARTCHAR 0157
ENCODING 343
SWIDTH 480 0
DWIDTH 8 0
BBX 9 11 0 -3
BITMAP
0F80
1800
1000
1000
3000
2000
2000
2000
0000
4000
C000
ENDCHAR
STARTCHAR 0158
ENCODING 344
SWIDTH 480 0
DWIDTH 8 0
BBX 8 13 1 1
BITMAP
0E
04
00
3E
23
23
63
46
7C
48
CC
84
84
ENDCHAR
STARTCHAR 0159
ENCODING 345
SWIDTH 480 0
DWIDTH 8 0
BBX 7 11 2 1
BITMAP
16
08
00
3E
60
40
40
C0
80
80
80
ENDCHAR
STARTCHAR 015A
ENCODING 346
SWIDTH 480 0
DWIDTH 8 0
BBX 8 14 1 0
BITMAP
02
06
0C
04
1F
20
20
30
18
0C
06
06
84
FC
ENDCHAR
STARTCHAR 015B
ENCODING 347
SWIDTH 480 0
DWIDTH 8 0
BBX 7 11 1 1
BITMAP
06
0C
00
1E
32
20
30
0C
04
04
FC
ENDCHAR
STARTCHAR 015C
ENCODING 348
SWIDTH 480 0
DWIDTH 8 0
BBX 8 13 1 1
BITMAP
06
0B
04
1F
20
20
30
18
0C
06
06
84
FC
ENDCHAR
STARTCHAR 015D
ENCODING 349
SWIDTH 480 0
DWIDTH 8 0
BBX 7 11 1 0
BITMAP
04
1A
00
1E
32
20
30
0C
04
04
FC
ENDCHAR
STARTCHAR 015E
ENCODING 350
SWIDTH 480 0
DWIDTH 8 0
BBX 8 14 1 -3
BITMAP
04
1F
20
20
30
18
0C
06
06
84
FC
20
30
60
ENDCHAR
STARTCHAR 015F
ENCODING 351
SWIDTH 480 0
DWIDTH 8 0
BBX 7 11 1 -3
BITMAP
1E
32
20
30
0C
04
04
FC
20
10
60
ENDCHAR
STARTCHAR 0160
ENCODING 352
SWIDTH 480 0
DWIDTH 8 0
BBX 8 14 1 0
BITMAP
09
06
04
04
1F
20
20
30
18
0C
06
06
84
FC
ENDCHAR
STARTCHAR 0161
ENCODING 353
SWIDTH 480 0
DWIDTH 8 0
BBX 8 12 1 0
BITMAP
08
0B
04
00
1E
32
20
30
0C
04
04
FC
ENDCHAR
STARTCHAR 0162
ENCODING 354
SWIDTH 480 0
DWIDTH 8 0
BBX 8 13 2 -3
BITMAP
7F
18
10
10
30
30
20
20
20
60
40
40
C0
ENDCHAR
STARTCHAR 0163
ENCODING 355
SWIDTH 480 0
DWIDTH 8 0
BBX 6 13 2 -3
BITMAP
30
30
FC
20
60
60
40
40
40
78
20
20
E0
ENDCHAR
STARTCHAR 0164
ENCODING 356
SWIDTH 480 0
DWIDTH 8 0
BBX 7 14 3 0
BITMAP
24
18
10
00
FE
30
20
20
60
60
40
40
40
C0
ENDCHAR
STARTCHAR 0165
ENCODING 357
SWIDTH 480 0
DWIDTH 8 0
BBX 6 12 3 0
BITMAP
04
0C
28
60
F8
40
40
C0
C0
80
80
F0
ENDCHAR
STARTCHAR 0166
ENCODING 358
SWIDTH 480 0
DWIDTH 8 0
BBX 7 10 3 0
BITMAP
FE
30
20
20
F0
60
40
40
C0
C0
ENDCHAR
STARTCHAR 0167
ENCODING 359
SWIDTH 480 0
DWIDTH 8 0
BBX 6 10 2 0
BITMAP
10
30
7C
20
20
FC
60
40
40
78
ENDCHAR
STARTCHAR 0168
ENCODING 360
SWIDTH 480 0
DWIDTH 8 0
BBX 8 13 1 0
BITMAP
0F
00
00
21
21
61
63
42
42
C2
C6
44
78
ENDCHAR
STARTCHAR 0169
ENCODING 361
SWIDTH 480 0
DWIDTH 8 0
BBX 8 11 1 0
BITMAP
19
16
00
23
62
42
46
46
C4
CC
7C
ENDCHAR
STARTCHAR 016A
ENCODING 362
SWIDTH 480 0
DWIDTH 8 0
BBX 8 13 1 0
BITMAP
0F
00
00
21
21
61
63
42
42
C2
C6
44
78
ENDCHAR
STARTCHAR 016B
ENCODING 363
SWIDTH 480 0
DWIDTH 8 0
BBX 8 11 1 0
BITMAP
1E
00
00
23
62
42
46
46
C4
CC
7C
ENDCHAR
STARTCHAR 016C
ENCODING 364
SWIDTH 480 0
DWIDTH 8 0
BBX 8 13 1 0
BITMAP
0B
04
00
21
21
61
63
42
42
C2
C6
44
78
ENDCHAR
STARTCHAR 016D
ENCODING 365
SWIDTH 480 0
DWIDTH 8 0
BBX 8 11 1 0
BITMAP
12
0C
00
23
62
42
46
46
C4
CC
7C
ENDCHAR
STARTCHAR 016E
ENCODING 366
SWIDTH 480 0
DWIDTH 8 0
BBX 8 14 1 0
BITMAP
06
0A
0E
00
21
21
61
63
42
42
C2
C6
44
78
ENDCHAR
STARTCHAR 016F
ENCODING 367
SWIDTH 480 0
DWIDTH 8 0
BBX 8 12 1 0
BITMAP
04
1A
0A
04
23
62
42
46
46
C4
CC
7C
ENDCHAR
STARTCHAR 0170
ENCODING 368
SWIDTH 480 0
DWIDTH 8 0
BBX 8 14 1 0
BITMAP
04
0D
1A
00
21
21
61
63
42
42
C2
C6
44
78
ENDCHAR
STARTCHAR 0171
ENCODING 369
SWIDTH 480 0
DWIDTH 8 0
BBX 8 11 1 1
BITMAP
0B
16
00
23
62
42
46
46
C4
CC
7C
ENDCHAR
STARTCHAR 0172
ENCODING 370
SWIDTH 480 0
DWIDTH 8 0
BBX 8 13 1 -3
BITMAP
21
21
61
63
42
42
C2
C6
44
78
10
20
30
ENDCHAR
STARTCHAR 0173
ENCODING 371
SWIDTH 480 0
DWIDTH 8 0
BBX 8 11 1 -3
BITMAP
23
62
42
46
46
C4
CC
7C
0C
08
0C
ENDCHAR
STARTCHAR 0174
ENCODING 372
SWIDTH 480 0
DWIDTH 8 0
BBX 9 13 1 1
BITMAP
0600
0B00
0000
2180
6100
4100
4100
5B00
5A00
EA00
AA00
CC00
CC00
ENDCHAR
STARTCHAR 0175
ENCODING 373
SWIDTH 480 0
DWIDTH 8 0
BBX 9 11 1 0
BITMAP
0400
1A00
0000
4180
4100
4900
5A00
DA00
EA00
CC00
CC00
ENDCHAR
STARTCHAR 0176
ENCODING 374
SWIDTH 480 0
DWIDTH 8 0
BBX 7 13 3 1
BITMAP
18
24
00
86
84
88
D8
50
60
40
40
40
C0
ENDCHAR
STARTCHAR 0177
ENCODING 375
SWIDTH 480 0
DWIDTH 8 0
BBX 9 14 0 -3
BITMAP
0600
0B00
0000
3180
3180
3100
1300
1200
1600
1C00
0C00
1800
3000
E000
ENDCHAR
STARTCHAR 0178
ENCODING 376
SWIDTH 480 0
DWIDTH 8 0
BBX 7 13 3 0
BITMAP
6C
00
00
86
84
88
D8
50
60
40
40
40
C0
ENDCHAR
STARTCHAR 0179
ENCODING 377
SWIDTH 480 0
DWIDTH 8 0
BBX 8 13 1 1
BITMAP
02
04
00
3F
03
06
0C
18
10
20
40
C0
FC
ENDCHAR
STARTCHAR 017A
ENCODING 378
SWIDTH 480 0
DWIDTH 8 0
BBX 7 11 1 1
BITMAP
06
0C
00
3E
06
0C
18
30
60
40
FC
ENDCHAR
STARTCHAR 017B
ENCODING 379
SWIDTH 480 0
DWIDTH 8 0
BBX 8 13 1 0
BITMAP
06
04
00
3F
03
06
0C
18
10
20
40
C0
FC
ENDCHAR
STARTCHAR 017C
ENCODING 380
SWIDTH 480 0
DWIDTH 8 0
BBX 7 11 1 0
BITMAP
04
04
00
3E
06
0C
18
30
60
40
FC
ENDCHAR
STARTCHAR 017D
ENCODING 381
SWIDTH 480 0
DWIDTH 8 0
BBX 8 14 1 0
BITMAP
09
06
04
00
3F
03
06
0C
18
10
20
40
C0
FC
ENDCHAR
STARTCHAR 017E
ENCODING 382
SWIDTH 480 0
DWIDTH 8 0
BBX 7 11 1 1
BITMAP
0A
0C
00
3E
06
0C
18
30
60
40
FC
ENDCHAR
STARTCHAR 017F
ENCODING 383
SWIDTH 480 0
DWIDTH 8 0
BBX 10 15 0 -3
BITMAP
0080
03C0
0600
0400
0400
0C00
0C00
0800
0800
1800
1800
1000
1000
B000
E000
ENDCHAR
STARTCHAR 0180
ENCODING 384
SWIDTH 480 0
DWIDTH 8 0
BBX 8 11 1 1
BITMAP
10
7C
30
3E
32
63
63
42
46
CC
F8
ENDCHAR
STARTCHAR 0181
ENCODING 385
SWIDTH 480 0
DWIDTH 8 0
BBX 7 10 2 0
BITMAP
FC
B6
A6
24
78
6C
44
44
4C
F8
ENDCHAR
STARTCHAR 0182
ENCODING 386
SWIDTH 480 0
DWIDTH 8 0
BBX 8 10 1 0
BITMAP
3F
20
20
60
7E
42
42
C2
C4
F8
ENDCHAR
STARTCHAR 0183
ENCODING 387
SWIDTH 480 0
DWIDTH 8 0
BBX 8 11 1 0
BITMAP
3F
30
20
3C
26
62
42
42
46
CC
F8
ENDCHAR
STARTCHAR 0184
ENCODING 388
SWIDTH 480 0
DWIDTH 8 0
BBX 8 11 1 1
BITMAP
30
30
30
3E
32
63
63
42
46
CC
F8
ENDCHAR
STARTCHAR 0185
ENCODING 389
SWIDTH 480 0
DWIDTH 8 0
BBX 7 10 1 0
BITMAP
30
30
20
38
7E
62
42
42
46
F8
ENDCHAR
STARTCHAR 0186
ENCODING 390
SWIDTH 480 0
DWIDTH 8 0
BBX 8 11 1 0
BITMAP
08
3E
03
03
03
03
03
02
06
8C
F8
ENDCHAR
STARTCHAR 0187
ENCODING 391
SWIDTH 480 0
DWIDTH 8 0
BBX 10 12 1 0
BITMAP
00C0
0700
1F00
3000
6000
4000
4000
4000
C000
4000
6000
3C00
ENDCHAR
STARTCHAR 0188
ENCODING 392
SWIDTH 480 0
DWIDTH 8 0
BBX 9 9 1 0
BITMAP
0380
1E00
3000
6000
4000
C000
C000
4000
7800
ENDCHAR
STARTCHAR 0189
ENCODING 393
SWIDTH 480 0
DWIDTH 8 0
BBX 8 10 1 0
BITMAP
3E
32
23
23
F3
62
42
46
CC
F8
ENDCHAR
STARTCHAR 018A
ENCODING 394
SWIDTH 480 0
DWIDTH 8 0
BBX 7 10 2 0
BITMAP
FC
B6
A2
22
62
66
44
4C
48
F0
ENDCHAR
STARTCHAR 018B
ENCODING 395
SWIDTH 480 0
DWIDTH 8 0
BBX 8 10 1 0
BITMAP
1F
01
03
03
3E
42
C2
C6
C4
7C
ENDCHAR
STARTCHAR 018C
ENCODING 396
SWIDTH 480 0
DWIDTH 8 0
BBX 8 11 1 0
BITMAP
1F
01
01
0F
32
62
42
C6
C6
C4
7E
ENDCHAR
STARTCHAR 018D
ENCODING 397
SWIDTH 480 0
DWIDTH 8 0
BBX 7 11 1 -3
BITMAP
1C
36
62
42
42
46
38
18
08
98
F0
ENDCHAR
STARTCHAR 018E
ENCODING 398
SWIDTH 480 0
DWIDTH 8 0
BBX 8 10 1 0
BITMAP
3F
03
02
02
3E
06
06
04
04
FC
ENDCHAR
STARTCHAR 018F
ENCODING 399
SWIDTH 480 0
DWIDTH 8 0
BBX 8 11 1 0
BITMAP
08
3E
03
01
01
7F
FF
C2
C6
C4
78
ENDCHAR
STARTCHAR 0190
ENCODING 400
SWIDTH 480 0
DWIDTH 8 0
BBX 8 10 1 1
BITMAP
1F
30
20
30
1C
60
40
C0
C2
7E
ENDCHAR
STARTCHAR 0191
ENCODING 401
SWIDTH 480 0
DWIDTH 8 0
BBX 10 13 -1 -3
BITMAP
0FC0
0C00
0800
0800
0F80
1800
1000
1000
1000
3000
2000
2000
C000
ENDCHAR
STARTCHAR 0192
ENCODING 402
SWIDTH 480 0
DWIDTH 8 0
BBX 10 15 0 -3
BITMAP
0080
03C0
0600
0400
1F80
0C00
0C00
0800
0800
1800
1800
1000
1000
B000
E000
ENDCHAR
STARTCHAR 0193
ENCODING 403
SWIDTH 480 0
DWIDTH 8 0
BBX 10 12 1 0
BITMAP
00C0
0500
1F00
2000
6000
4000
4000
C200
C200
C600
4400
7C00
ENDCHAR
STARTCHAR 0194
ENCODING 404
SWIDTH 480 0
DWIDTH 8 0
BBX 8 13 2 -3
BITMAP
C3
42
46
4C
68
78
30
20
70
D0
90
B0
60
ENDCHAR
STARTCHAR 0195
ENCODING 405
SWIDTH 480 0
DWIDTH 8 0
BBX 8 12 1 0
BITMAP
10
20
20
60
79
49
4B
5A
D2
92
96
9C
ENDCHAR
STARTCHAR 0196
ENCODING 406
SWIDTH 480 0
DWIDTH 8 0
BBX 6 10 3 0
BITMAP
FC
20
20
60
60
40
40
C0
C0
70
ENDCHAR
STARTCHAR 0197
ENCODING 407
SWIDTH 480 0
DWIDTH 8 0
BBX 8 10 1 0
BITMAP
3F
0C
08
08
3C
18
10
10
10
FC
ENDCHAR
STARTCHAR 0198
ENCODING 408
SWIDTH 480 0
DWIDTH 8 0
BBX 9 10 1 1
BITMAP
2380
2600
2C00
7800
7000
5000
4800
CC00
8400
8600
ENDCHAR
STARTCHAR 0199
ENCODING 409
SWIDTH 480 0
DWIDTH 8 0
BBX 8 12 1 0
BITMAP
08
1C
30
20
23
26
6C
70
58
48
CC
C4
ENDCHAR
STARTCHAR 019A
ENCODING 410
SWIDTH 480 0
DWIDTH 8 0
BBX 6 11 2 0
BITMAP
78
10
10
10
FC
FC
20
20
60
60
38
ENDCHAR
STARTCHAR 019B
ENCODING 411
SWIDTH 480 0
DWIDTH 8 0
BBX 7 12 1 0
BITMAP
30
38
0E
3C
0C
1C
14
24
64
44
C4
84
ENDCHAR
STARTCHAR 019C
ENCODING 412
SWIDTH 480 0
DWIDTH 8 0
BBX 8 10 1 0
BITMAP
21
61
61
41
4B
5A
D2
92
96
FC
ENDCHAR
STARTCHAR 019D
ENCODING 413
SWIDTH 480 0
DWIDTH 8 0
BBX 11 13 -2 -3
BITMAP
0620
0620
0E20
0B60
0940
0940
0940
19C0
10C0
1080
1000
2000
E000
ENDCHAR
STARTCHAR 019E
ENCODING 414
SWIDTH 480 0
DWIDTH 8 0
BBX 7 11 1 -3
BITMAP
3C
26
62
42
42
46
C4
C4
04
0C
08
ENDCHAR
STARTCHAR 019F
ENCODING 415
SWIDTH 480 0
DWIDTH 8 0
BBX 8 11 1 0
BITMAP
04
1E
23
61
41
7F
C3
C2
C6
C4
78
ENDCHAR
STARTCHAR 01A0
ENCODING 416
SWIDTH 480 0
DWIDTH 8 0
BBX 9 12 1 0
BITMAP
0080
0480
1F00
2300
6300
4300
4300
C200
C200
C600
CC00
7800
ENDCHAR
STARTCHAR 01A1
ENCODING 417
SWIDTH 480 0
DWIDTH 8 0
BBX 9 9 1 0
BITMAP
0180
1D00
3600
6200
4200
C200
C600
CC00
7800
ENDCHAR
STARTCHAR 01A2
ENCODING 418
SWIDTH 480 0
DWIDTH 8 0
BBX 8 11 1 0
BITMAP
02
3F
6D
4D
4D
CB
8A
8A
9A
96
E4
ENDCHAR
STARTCHAR 01A3
ENCODING 419
SWIDTH 480 0
DWIDTH 8 0
BBX 8 11 1 -3
BITMAP
36
5B
CB
9A
9A
92
96
E4
04
04
0C
ENDCHAR
STARTCHAR 01A4
ENCODING 420
SWIDTH 480 0
DWIDTH 8 0
BBX 7 10 2 0
BITMAP
FE
B2
A2
22
66
7C
40
40
40
C0
ENDCHAR
STARTCHAR 01A5
ENCODING 421
SWIDTH 480 0
DWIDTH 8 0
BBX 8 15 0 -3
BITMAP
04
0C
18
10
1E
13
31
21
21
23
66
7C
40
40
C0
ENDCHAR
STARTCHAR 01A6
ENCODING 422
SWIDTH 480 0
DWIDTH 8 0
BBX 8 14 1 -2
BITMAP
10
30
3E
23
23
63
46
7C
48
CC
84
86
06
02
ENDCHAR
STARTCHAR 01A7
ENCODING 423
SWIDTH 480 0
DWIDTH 8 0
BBX 8 11 1 0
BITMAP
0C
3F
03
03
02
1C
70
40
C0
C0
7C
ENDCHAR
STARTCHAR 01A8
ENCODING 424
SWIDTH 480 0
DWIDTH 8 0
BBX 7 8 1 0
BITMAP
3C
06
02
0C
70
C0
C0
7C
ENDCHAR
STARTCHAR 01A9
ENCODING 425
SWIDTH 480 0
DWIDTH 8 0
BBX 9 10 0 0
BITMAP
1F80
1800
0800
0C00
0400
0C00
1800
2000
4000
FE00
ENDCHAR
STARTCHAR 01AA
ENCODING 426
SWIDTH 480 0
DWIDTH 8 0
BBX 4 15 3 -3
BITMAP
20
F0
90
B0
50
30
20
20
20
60
60
40
40
60
30
ENDCHAR
STARTCHAR 01AB
ENCODING 427
SWIDTH 480 0
DWIDTH 8 0
BBX 7 13 2 -3
BITMAP
30
30
FE
20
60
60
40
40
40
78
08
18
30
ENDCHAR
STARTCHAR 01AC
ENCODING 428
SWIDTH 480 0
DWIDTH 8 0
BBX 8 10 2 0
BITMAP
7F
98
98
10
10
10
30
20
20
20
ENDCHAR
STARTCHAR 01AD
ENCODING 429
SWIDTH 480 0
DWIDTH 8 0
BBX 7 12 2 0
BITMAP
06
1E
10
30
FC
20
60
60
40
40
40
78
ENDCHAR
STARTCHAR 01AE
ENCODING 430
SWIDTH 480 0
DWIDTH 8 0
BBX 7 13 3 -3
BITMAP
FE
30
20
20
60
60
40
40
40
C0
80
C0
60
ENDCHAR
STARTCHAR 01AF
ENCODING 431
SWIDTH 480 0
DWIDTH 8 0
BBX 10 12 1 0
BITMAP
0040
00C0
2300
6300
4200
4200
4600
C600
8400
8400
CC00
7800
ENDCHAR
STARTCHAR 01B0
ENCODING 432
SWIDTH 480 0
DWIDTH 8 0
BBX 9 9 1 0
BITMAP
0080
6300
6600
4600
4400
C400
C400
CC00
7400
ENDCHAR
STARTCHAR 01B1
ENCODING 433
SWIDTH 480 0
DWIDTH 8 0
BBX 9 10 1 0
BITMAP
7B80
3200
2300
4300
4300
C300
C200
C200
C400
7800
ENDCHAR
STARTCHAR 01B2
ENCODING 434
SWIDTH 480 0
DWIDTH 8 0
BBX 8 10 1 0
BITMAP
26
63
61
43
43
42
C2
C6
CC
78
ENDCHAR
STARTCHAR 01B3
ENCODING 435
SWIDTH 480 0
DWIDTH 8 0
BBX 8 10 2 0
BITMAP
83
C4
4C
48
50
30
20
60
60
40
ENDCHAR
STARTCHAR 01B4
ENCODING 436
SWIDTH 480 0
DWIDTH 8 0
BBX 10 11 0 -3
BITMAP
31C0
3100
3200
3200
3600
1400
1C00
1800
1000
3000
C000
ENDCHAR
STARTCHAR 01B5
ENCODING 437
SWIDTH 480 0
DWIDTH 8 0
BBX 8 10 1 0
BITMAP
3F
03
06
0C
7E
10
20
40
C0
FC
ENDCHAR
STARTCHAR 01B6
ENCODING 438
SWIDTH 480 0
DWIDTH 8 0
BBX 7 8 1 0
BITMAP
3E
06
0C
7E
30
60
40
FC
ENDCHAR
STARTCHAR 01B7
ENCODING 439
SWIDTH 480 0
DWIDTH 8 0
BBX 8 10 1 0
BITMAP
3F
02
04
08
1C
06
02
02
04
F8
ENDCHAR
STARTCHAR 01B8
ENCODING 440
SWIDTH 480 0
DWIDTH 8 0
BBX 8 10 1 0
BITMAP
3F
10
18
08
1C
60
40
C0
40
7E
ENDCHAR
STARTCHAR 01B9
ENCODING 441
SWIDTH 480 0
DWIDTH 8 0
BBX 8 11 1 -3
BITMAP
3F
30
10
18
08
78
40
C0
C0
64
38
ENDCHAR
STARTCHAR 01BA
ENCODING 442
SWIDTH 480 0
DWIDTH 8 0
BBX 7 11 1 -3
BITMAP
3E
02
0C
18
1C
04
04
1C
F0
80
80
ENDCHAR
STARTCHAR 01BB
ENCODING 443
SWIDTH 480 0
DWIDTH 8 0
BBX 8 11 1 0
BITMAP
0C
3E
03
03
02
04
7E
30
60
C0
FC
ENDCHAR
STARTCHAR 01BC
ENCODING 444
SWIDTH 480 0
DWIDTH 8 0
BBX 8 10 1 0
BITMAP
3F
10
10
30
3C
06
02
06
04
F8
ENDCHAR
STARTCHAR 01BD
ENCODING 445
SWIDTH 480 0
DWIDTH 8 0
BBX 6 8 2 0
BITMAP
7C
20
60
70
18
0C
08
F8
ENDCHAR
STARTCHAR 01BE
ENCODING 446
SWIDTH 480 0
DWIDTH 8 0
BBX 6 10 2 0
BITMAP
30
30
FC
20
20
30
18
0C
0C
F8
ENDCHAR
STARTCHAR 01BF
ENCODING 447
SWIDTH 480 0
DWIDTH 8 0
BBX 8 11 0 -3
BITMAP
1E
33
31
21
21
23
66
58
60
40
C0
ENDCHAR
STARTCHAR 01C0
ENCODING 448
SWIDTH 480 0
DWIDTH 8 0
BBX 4 15 3 -3
BITMAP
10
10
30
30
20
20
20
60
40
40
40
C0
80
80
80
ENDCHAR
STARTCHAR 01C1
ENCODING 449
SWIDTH 480 0
DWIDTH 8 0
BBX 8 15 1 -3
BITMAP
1B
1B
12
12
36
36
24
24
24
6C
48
48
48
D8
90
ENDCHAR
STARTCHAR 01C2
ENCODING 450
SWIDTH 480 0
DWIDTH 8 0
BBX 8 15 1 -3
BITMAP
04
04
0C
0C
08
08
7F
18
FE
10
10
30
20
20
20
ENDCHAR
STARTCHAR 01C3
ENCODING 451
SWIDTH 480 0
DWIDTH 8 0
BBX 4 10 3 0
BITMAP
30
20
20
20
60
40
00
00
C0
C0
ENDCHAR
STARTCHAR 01C4
ENCODING 452
SWIDTH 480 0
DWIDTH 8 0
BBX 11 13 0 1
BITMAP
00A0
0040
0000
1DC0
3440
2480
2580
2D00
6D00
4A00
5A00
5400
E700
ENDCHAR
STARTCHAR 01C5
ENCODING 453
SWIDTH 480 0
DWIDTH 8 0
BBX 10 10 0 1
BITMAP
1CC0
3400
25C0
2480
2C80
6900
4900
5A00
5200
E700
ENDCHAR
STARTCHAR 01C6
ENCODING 454
SWIDTH 480 0
DWIDTH 8 0
BBX 11 11 0 1
BITMAP
0620
04C0
0400
1DC0
2C80
4880
4900
C900
DA00
D200
7700
ENDCHAR
STARTCHAR 01C7
ENCODING 455
SWIDTH 480 0
DWIDTH 8 0
BBX 10 10 0 0
BITMAP
30C0
30C0
2080
2080
2180
6180
4100
4100
4300
F600
ENDCHAR
STARTCHAR 01C8
ENCODING 456
SWIDTH 480 0
DWIDTH 8 0
BBX 10 14 0 -3
BITMAP
00C0
10C0
3000
3180
2180
2100
6100
6100
4300
4200
FA00
0600
0400
1800
ENDCHAR
STARTCHAR 01C9
ENCODING 457
SWIDTH 480 0
DWIDTH 8 0
BBX 8 14 1 -2
BITMAP
33
22
20
26
64
64
44
4C
C8
C8
48
18
10
60
ENDCHAR
STARTCHAR 01CA
ENCODING 458
SWIDTH 480 0
DWIDTH 8 0
BBX 10 10 0 0
BITMAP
3440
34C0
3480
3480
5880
5980
5900
5900
5B00
9600
ENDCHAR
STARTCHAR 01CB
ENCODING 459
SWIDTH 480 0
DWIDTH 8 0
BBX 10 14 0 -3
BITMAP
00C0
12C0
3400
3480
3480
3580
5900
5900
5900
5900
D300
0200
0600
1C00
ENDCHAR
STARTCHAR 01CC
ENCODING 460
SWIDTH 480 0
DWIDTH 8 0
BBX 9 14 1 -3
BITMAP
0180
0180
0000
7900
4900
4B00
DA00
9200
9200
9200
9600
0400
0C00
3800
ENDCHAR
STARTCHAR 01CD
ENCODING 461
SWIDTH 480 0
DWIDTH 8 0
BBX 8 14 0 0
BITMAP
04
07
02
00
06
0E
0A
12
13
23
3F
43
43
83
ENDCHAR
STARTCHAR 01CE
ENCODING 462
SWIDTH 480 0
DWIDTH 8 0
BBX 8 11 1 1
BITMAP
0A
04
00
1F
32
62
46
C6
C4
C4
7C
ENDCHAR
STARTCHAR 01CF
ENCODING 463
SWIDTH 480 0
DWIDTH 8 0
BBX 8 14 1 0
BITMAP
09
0E
04
00
3F
0C
08
08
18
18
10
10
10
FC
ENDCHAR
STARTCHAR 01D0
ENCODING 464
SWIDTH 480 0
DWIDTH 8 0
BBX 6 11 2 1
BITMAP
2C
10
00
F0
30
30
20
20
20
20
38
ENDCHAR
STARTCHAR 01D1
ENCODING 465
SWIDTH 480 0
DWIDTH 8 0
BBX 8 14 1 0
BITMAP
09
06
04
04
1E
23
61
41
43
C3
C2
C6
44
78
ENDCHAR
STARTCHAR 01D2
ENCODING 466
SWIDTH 480 0
DWIDTH 8 0
BBX 7 11 1 1
BITMAP
0A
0C
00
1C
36
62
42
C2
C6
CC
78
ENDCHAR
STARTCHAR 01D3
ENCODING 467
SWIDTH 480 0
DWIDTH 8 0
BBX 8 14 1 0
BITMAP
09
0E
04
00
21
21
61
63
42
42
C2
C6
44
78
ENDCHAR
STARTCHAR 01D4
ENCODING 468
SWIDTH 480 0
DWIDTH 8 0
BBX 8 11 1 1
BITMAP
0E
0C
00
23
62
42
46
46
C4
CC
7C
ENDCHAR
STARTCHAR 01D5
ENCODING 469
SWIDTH 480 0
DWIDTH 8 0
BBX 8 14 1 0
BITMAP
0F
00
1B
00
21
21
61
63
42
42
C2
C6
44
78
ENDCHAR
STARTCHAR 01D6
ENCODING 470
SWIDTH 480 0
DWIDTH 8 0
BBX 8 12 1 0
BITMAP
1E
00
12
00
23
62
42
46
46
C4
CC
7C
ENDCHAR
STARTCHAR 01D7
ENCODING 471
SWIDTH 480 0
DWIDTH 8 0
BBX 8 13 1 1
BITMAP
15
11
00
21
21
61
63
42
42
C2
C6
44
78
ENDCHAR
STARTCHAR 01D8
ENCODING 472
SWIDTH 480 0
DWIDTH 8 0
BBX 8 12 1 1
BITMAP
04
00
12
00
23
62
42
46
46
C4
CC
7C
ENDCHAR
STARTCHAR 01D9
ENCODING 473
SWIDTH 480 0
DWIDTH 8 0
BBX 8 14 1 0
BITMAP
02
15
11
00
21
21
61
63
42
42
C2
C6
44
78
ENDCHAR
STARTCHAR 01DA
ENCODING 474
SWIDTH 480 0
DWIDTH 8 0
BBX 8 12 1 0
BITMAP
0E
00
12
00
23
62
42
46
46
C4
CC
7C
ENDCHAR
STARTCHAR 01DB
ENCODING 475
SWIDTH 480 0
DWIDTH 8 0
BBX 8 14 1 0
BITMAP
04
15
11
00
21
21
61
63
42
42
C2
C6
44
78
ENDCHAR
STARTCHAR 01DC
ENCODING 476
SWIDTH 480 0
DWIDTH 8 0
BBX 8 13 1 0
BITMAP
08
08
04
12
00
23
62
42
46
46
C4
CC
7C
ENDCHAR
STARTCHAR 01DD
ENCODING 477
SWIDTH 480 0
DWIDTH 8 0
BBX 8 8 1 0
BITMAP
3C
06
02
1F
72
C2
C4
78
ENDCHAR
STARTCHAR 01DE
ENCODING 478
SWIDTH 480 0
DWIDTH 8 0
BBX 9 14 0 0
BITMAP
0780
0000
0D80
0000
0600
0E00
0A00
1A00
1300
2300
3F00
4300
4300
8300
ENDCHAR
STARTCHAR 01DF
ENCODING 479
SWIDTH 480 0
DWIDTH 8 0
BBX 8 12 1 0
BITMAP
0F
00
1B
00
1F
32
62
46
C6
C4
C4
7C
ENDCHAR
STARTCHAR 01E0
ENCODING 480
SWIDTH 480 0
DWIDTH 8 0
BBX 9 14 0 0
BITMAP
0780
0000
0200
0000
0600
0E00
0A00
1A00
1300
2300
3F00
4300
4300
8300
ENDCHAR
STARTCHAR 01E1
ENCODING 481
SWIDTH 480 0
DWIDTH 8 0
BBX 8 12 1 0
BITMAP
0F
00
04
00
1F
32
62
46
C6
C4
C4
7C
ENDCHAR
STARTCHAR 01E2
ENCODING 482
SWIDTH 480 0
DWIDTH 8 0
BBX 10 13 0 0
BITMAP
03C0
0000
0000
07C0
0600
0A00
0A00
1700
3400
3C00
6400
4C00
CF00
ENDCHAR
STARTCHAR 01E3
ENCODING 483
SWIDTH 480 0
DWIDTH 8 0
BBX 8 11 1 0
BITMAP
1E
00
00
77
15
19
3B
7C
90
B8
EE
ENDCHAR
STARTCHAR 01E4
ENCODING 484
SWIDTH 480 0
DWIDTH 8 0
BBX 8 11 1 0
BITMAP
04
1F
30
60
40
40
C2
CE
C4
44
7C
ENDCHAR
STARTCHAR 01E5
ENCODING 485
SWIDTH 480 0
DWIDTH 8 0
BBX 8 11 1 -3
BITMAP
1F
32
62
4F
46
C4
6C
3C
08
98
F0
ENDCHAR
STARTCHAR 01E6
ENCODING 486
SWIDTH 480 0
DWIDTH 8 0
BBX 8 13 1 1
BITMAP
07
02
06
1F
30
60
40
40
C2
C2
C6
44
7C
ENDCHAR
STARTCHAR 01E7
ENCODING 487
SWIDTH 480 0
DWIDTH 8 0
BBX 8 14 1 -2
BITMAP
0F
06
00
0F
33
62
42
42
C6
6C
34
0C
98
F0
ENDCHAR
STARTCHAR 01E8
ENCODING 488
SWIDTH 480 0
DWIDTH 8 0
BBX 8 14 1 0
BITMAP
08
0E
04
00
23
26
2C
78
70
50
48
CC
84
86
ENDCHAR
STARTCHAR 01E9
ENCODING 489
SWIDTH 480 0
DWIDTH 8 0
BBX 8 14 1 0
BITMAP
14
08
00
10
30
20
23
26
6C
70
58
48
CC
C4
ENDCHAR
STARTCHAR 01EA
ENCODING 490
SWIDTH 480 0
DWIDTH 8 0
BBX 8 14 1 -3
BITMAP
04
1E
23
61
41
43
C3
C2
C6
C4
78
20
60
30
ENDCHAR
STARTCHAR 01EB
ENCODING 491
SWIDTH 480 0
DWIDTH 8 0
BBX 7 11 1 -3
BITMAP
1C
36
62
42
C2
C6
CC
78
30
20
30
ENDCHAR
STARTCHAR 01EC
ENCODING 492
SWIDTH 480 0
DWIDTH 8 0
BBX 8 16 1 -3
BITMAP
0F
00
04
1E
23
61
41
43
C3
C2
C6
C4
78
20
60
30
ENDCHAR
STARTCHAR 01ED
ENCODING 493
SWIDTH 480 0
DWIDTH 8 0
BBX 8 14 1 -3
BITMAP
1F
00
00
1C
36
62
42
C2
C6
CC
78
30
20
30
ENDCHAR
STARTCHAR 01EE
ENCODING 494
SWIDTH 480 0
DWIDTH 8 0
BBX 8 14 1 0
BITMAP
09
0E
04
00
3F
02
04
08
1C
06
02
02
04
F8
ENDCHAR
STARTCHAR 01EF
ENCODING 495
SWIDTH 480 0
DWIDTH 8 0
BBX 7 14 1 -2
BITMAP
0A
0C
00
3E
02
04
08
30
3C
04
04
0C
98
F0
ENDCHAR
STARTCHAR 01F0
ENCODING 496
SWIDTH 480 0
DWIDTH 8 0
BBX 8 14 1 -2
BITMAP
0F
04
00
3E
06
04
04
04
0C
08
08
08
90
E0
ENDCHAR
STARTCHAR 01F1
ENCODING 497
SWIDTH 480 0
DWIDTH 8 0
BBX 10 10 0 0
BITMAP
1DC0
3440
2480
2580
2D00
6D00
4A00
5A00
5400
E700
ENDCHAR
STARTCHAR 01F2
ENCODING 498
SWIDTH 480 0
DWIDTH 8 0
BBX 10 10 0 0
BITMAP
1C00
3400
25C0
2480
2C80
6900
4900
5A00
5200
E700
ENDCHAR
STARTCHAR 01F3
ENCODING 499
SWIDTH 480 0
DWIDTH 8 0
BBX 10 11 0 1
BITMAP
0600
0400
0400
1DC0
2C80
4880
4900
C900
DA00
D200
7700
ENDCHAR
STARTCHAR 01F4
ENCODING 500
SWIDTH 480 0
DWIDTH 8 0
BBX 8 14 1 0
BITMAP
02
06
0C
06
1F
30
60
40
40
C2
C2
C6
44
7C
ENDCHAR
STARTCHAR 01F5
ENCODING 501
SWIDTH 480 0
DWIDTH 8 0
BBX 8 14 1 -2
BITMAP
02
04
00
0F
33
62
42
42
C6
6C
34
0C
98
F0
ENDCHAR
STARTCHAR 01F6
ENCODING 502
SWIDTH 480 0
DWIDTH 8 0
BBX 9 10 0 0
BITMAP
1200
3600
2480
2480
3D80
6D80
4900
4900
4B00
CE00
ENDCHAR
STARTCHAR 01F7
ENCODING 503
SWIDTH 480 0
DWIDTH 8 0
BBX 9 13 0 -3
BITMAP
1F80
1080
1080
1080
3180
2100
2300
2600
7C00
7000
4000
4000
C000
ENDCHAR
STARTCHAR 01F8
ENCODING 504
SWIDTH 480 0
DWIDTH 8 0
BBX 8 14 1 0
BITMAP
08
0C
06
00
31
31
71
5B
4A
4A
4A
CA
86
84
ENDCHAR
STARTCHAR 01F9
ENCODING 505
SWIDTH 480 0
DWIDTH 8 0
BBX 7 11 1 1
BITMAP
08
04
04
3C
26
62
42
42
46
C4
C4
ENDCHAR
STARTCHAR 01FA
ENCODING 506
SWIDTH 480 0
DWIDTH 8 0
BBX 8 14 0 0
BITMAP
01
02
02
05
06
06
0A
1A
13
23
3F
43
43
83
ENDCHAR
STARTCHAR 01FB
ENCODING 507
SWIDTH 480 0
DWIDTH 8 0
BBX 8 13 1 1
BITMAP
06
00
0E
0A
04
1F
32
62
46
C6
C4
C4
7C
ENDCHAR
STARTCHAR 01FC
ENCODING 508
SWIDTH 480 0
DWIDTH 8 0
BBX 10 13 0 1
BITMAP
0080
0100
0000
07C0
0600
0A00
0A00
1700
3400
3C00
6400
4C00
CF00
ENDCHAR
STARTCHAR 01FD
ENCODING 509
SWIDTH 480 0
DWIDTH 8 0
BBX 8 11 1 1
BITMAP
06
0C
00
77
15
19
3B
7C
90
B8
EE
ENDCHAR
STARTCHAR 01FE
ENCODING 510
SWIDTH 480 0
DWIDTH 8 0
BBX 8 14 1 0
BITMAP
04
08
05
1F
23
65
4D
4B
D2
E2
E6
CC
F8
80
ENDCHAR
STARTCHAR 01FF
ENCODING 511
SWIDTH 480 0
DWIDTH 8 0
BBX 8 11 1 0
BITMAP
06
0C
00
1D
36
66
4A
D2
E6
CC
F8
ENDCHAR
STARTCHAR 0200
ENCODING 512
SWIDTH 480 0
DWIDTH 8 0
BBX 8 14 0 0
BITMAP
08
09
05
00
06
0E
0A
12
13
23
3F
43
43
83
ENDCHAR
STARTCHAR 0201
ENCODING 513
SWIDTH 480 0
DWIDTH 8 0
BBX 8 11 1 0
BITMAP
34
1A
00
1F
32
62
46
C6
C4
C4
7C
ENDCHAR
STARTCHAR 0202
ENCODING 514
SWIDTH 480 0
DWIDTH 8 0
BBX 8 14 0 0
BITMAP
02
05
08
00
06
0E
0A
12
13
23
3F
43
43
83
ENDCHAR
STARTCHAR 0203
ENCODING 515
SWIDTH 480 0
DWIDTH 8 0
BBX 8 11 1 0
BITMAP
0E
12
00
1F
32
62
46
C6
C4
C4
7C
ENDCHAR
STARTCHAR 0204
ENCODING 516
SWIDTH 480 0
DWIDTH 8 0
BBX 8 14 1 0
BITMAP
12
1A
09
00
3F
30
20
20
3E
60
40
40
40
FC
ENDCHAR
STARTCHAR 0205
ENCODING 517
SWIDTH 480 0
DWIDTH 8 0
BBX 7 11 1 0
BITMAP
34
1A
00
1E
32
42
C6
F8
C0
C0
7C
ENDCHAR
STARTCHAR 0206
ENCODING 518
SWIDTH 480 0
DWIDTH 8 0
BBX 8 14 1 0
BITMAP
02
0F
09
00
3F
30
20
20
3E
60
40
40
40
FC
ENDCHAR
STARTCHAR 0207
ENCODING 519
SWIDTH 480 0
DWIDTH 8 0
BBX 7 11 1 0
BITMAP
0E
12
00
1E
32
42
C6
F8
C0
C0
7C
ENDCHAR
STARTCHAR 0208
ENCODING 520
SWIDTH 480 0
DWIDTH 8 0
BBX 8 14 1 0
BITMAP
10
12
0A
00
3F
0C
08
08
18
18
10
10
10
FC
ENDCHAR
STARTCHAR 0209
ENCODING 521
SWIDTH 480 0
DWIDTH 8 0
BBX 5 11 2 0
BITMAP
58
28
00
F0
30
30
20
20
20
20
38
ENDCHAR
STARTCHAR 020A
ENCODING 522
SWIDTH 480 0
DWIDTH 8 0
BBX 8 14 1 0
BITMAP
04
0A
01
00
3F
0C
08
08
18
18
10
10
10
FC
ENDCHAR
STARTCHAR 020B
ENCODING 523
SWIDTH 480 0
DWIDTH 8 0
BBX 6 11 2 0
BITMAP
38
24
00
F0
30
30
20
20
20
20
38
ENDCHAR
STARTCHAR 020C
ENCODING 524
SWIDTH 480 0
DWIDTH 8 0
BBX 8 14 1 0
BITMAP
12
1A
09
04
1E
23
61
41
43
C3
C2
C6
44
78
ENDCHAR
STARTCHAR 020D
ENCODING 525
SWIDTH 480 0
DWIDTH 8 0
BBX 7 11 1 0
BITMAP
34
12
02
1C
36
62
42
C2
C6
CC
78
ENDCHAR
STARTCHAR 020E
ENCODING 526
SWIDTH 480 0
DWIDTH 8 0
BBX 8 14 1 0
BITMAP
04
0B
09
04
1E
23
61
41
43
C3
C2
C6
44
78
ENDCHAR
STARTCHAR 020F
ENCODING 527
SWIDTH 480 0
DWIDTH 8 0
BBX 7 11 1 0
BITMAP
0E
12
00
1C
36
62
42
C2
C6
CC
78
ENDCHAR
STARTCHAR 0210
ENCODING 528
SWIDTH 480 0
DWIDTH 8 0
BBX 8 14 1 0
BITMAP
14
16
0A
00
3E
23
23
63
46
7C
48
CC
84
84
ENDCHAR
STARTCHAR 0211
ENCODING 529
SWIDTH 480 0
DWIDTH 8 0
BBX 7 11 2 0
BITMAP
68
34
00
3E
60
40
40
C0
80
80
80
ENDCHAR
STARTCHAR 0212
ENCODING 530
SWIDTH 480 0
DWIDTH 8 0
BBX 8 14 1 0
BITMAP
04
0A
01
00
3E
23
23
63
46
7C
48
CC
84
84
ENDCHAR
STARTCHAR 0213
ENCODING 531
SWIDTH 480 0
DWIDTH 8 0
BBX 7 11 2 0
BITMAP
1C
24
00
3E
60
40
40
C0
80
80
80
ENDCHAR
STARTCHAR 0214
ENCODING 532
SWIDTH 480 0
DWIDTH 8 0
BBX 8 14 1 0
BITMAP
10
12
0A
00
21
21
61
63
42
42
C2
C6
44
78
ENDCHAR
STARTCHAR 0215
ENCODING 533
SWIDTH 480 0
DWIDTH 8 0
BBX 8 11 1 0
BITMAP
34
12
02
23
62
42
46
46
C4
CC
7C
ENDCHAR
STARTCHAR 0216
ENCODING 534
SWIDTH 480 0
DWIDTH 8 0
BBX 8 14 1 0
BITMAP
04
0A
01
00
21
21
61
63
42
42
C2
C6
44
78
ENDCHAR
STARTCHAR 0217
ENCODING 535
SWIDTH 480 0
DWIDTH 8 0
BBX 8 11 1 0
BITMAP
0E
12
00
23
62
42
46
46
C4
CC
7C
ENDCHAR
STARTCHAR 0218
ENCODING 536
SWIDTH 480 0
DWIDTH 8 0
BBX 8 14 1 -3
BITMAP
04
1F
20
20
30
18
0C
06
06
84
FC
00
20
C0
ENDCHAR
STARTCHAR 0219
ENCODING 537
SWIDTH 480 0
DWIDTH 8 0
BBX 7 11 1 -3
BITMAP
1E
32
20
30
0C
04
04
FC
00
20
60
ENDCHAR
STARTCHAR 021A
ENCODING 538
SWIDTH 480 0
DWIDTH 8 0
BBX 9 13 1 -3
BITMAP
3F80
0C00
0800
0800
1800
1800
1000
1000
1000
3000
0000
2000
C000
ENDCHAR
STARTCHAR 021B
ENCODING 539
SWIDTH 480 0
DWIDTH 8 0
BBX 5 13 3 -3
BITMAP
20
60
F8
40
40
C0
C0
80
80
F0
00
40
80
ENDCHAR
STARTCHAR 021C
ENCODING 540
SWIDTH 480 0
DWIDTH 8 0
BBX 9 14 0 -3
BITMAP
0400
3F00
0180
0180
0100
0300
1C00
0600
0300
0300
0300
0600
3C00
E000
ENDCHAR
STARTCHAR 021D
ENCODING 541
SWIDTH 480 0
DWIDTH 8 0
BBX 8 11 0 -3
BITMAP
1E
03
01
03
1E
1E
02
02
06
3C
E0
ENDCHAR
STARTCHAR 021E
ENCODING 542
SWIDTH 480 0
DWIDTH 8 0
BBX 8 14 1 0
BITMAP
09
0E
04
00
21
21
61
63
7E
42
C2
C6
86
84
ENDCHAR
STARTCHAR 021F
ENCODING 543
SWIDTH 480 0
DWIDTH 8 0
BBX 7 14 1 0
BITMAP
04
18
00
30
20
20
3C
66
42
46
46
C4
84
84
ENDCHAR
STARTCHAR 0220
ENCODING 544
SWIDTH 480 0
DWIDTH 8 0
BBX 8 14 1 -3
BITMAP
0C
3F
21
61
63
43
42
C2
C6
86
84
04
0C
0C
ENDCHAR
STARTCHAR 0221
ENCODING 545
SWIDTH 480 0
DWIDTH 8 0
BBX 7 14 1 -2
BITMAP
06
04
04
3C
6C
C8
88
88
98
90
FE
32
72
4C
ENDCHAR
STARTCHAR 0222
ENCODING 546
SWIDTH 480 0
DWIDTH 8 0
BBX 8 10 1 0
BITMAP
31
23
23
36
3C
42
C2
82
C6
78
ENDCHAR
STARTCHAR 0223
ENCODING 547
SWIDTH 480 0
DWIDTH 8 0
BBX 8 12 1 0
BITMAP
11
31
21
23
32
3C
66
42
C2
C6
C4
78
ENDCHAR
STARTCHAR 0224
ENCODING 548
SWIDTH 480 0
DWIDTH 8 0
BBX 8 13 1 -3
BITMAP
3F
03
06
0C
18
10
20
40
C0
FC
04
0C
18
ENDCHAR
STARTCHAR 0225
ENCODING 549
SWIDTH 480 0
DWIDTH 8 0
BBX 7 11 1 -3
BITMAP
3E
06
0C
18
30
60
40
FC
0C
08
30
ENDCHAR
STARTCHAR 0226
ENCODING 550
SWIDTH 480 0
DWIDTH 8 0
BBX 8 13 0 0
BITMAP
02
02
00
06
0E
0A
12
13
23
3F
43
43
83
ENDCHAR
STARTCHAR 0227
ENCODING 551
SWIDTH 480 0
DWIDTH 8 0
BBX 8 11 1 0
BITMAP
04
04
00
1F
32
62
46
C6
C4
C4
7C
ENDCHAR
STARTCHAR 0228
ENCODING 552
SWIDTH 480 0
DWIDTH 8 0
BBX 8 13 1 -3
BITMAP
3F
20
20
60
7C
40
40
40
C0
FC
10
10
70
ENDCHAR
STARTCHAR 0229
ENCODING 553
SWIDTH 480 0
DWIDTH 8 0
BBX 7 11 1 -3
BITMAP
1E
32
42
C6
F8
C0
C0
7C
10
10
70
ENDCHAR
STARTCHAR 022A
ENCODING 554
SWIDTH 480 0
DWIDTH 8 0
BBX 8 14 1 0
BITMAP
0F
00
1B
00
1E
33
61
41
41
C3
C2
C6
44
78
ENDCHAR
STARTCHAR 022B
ENCODING 555
SWIDTH 480 0
DWIDTH 8 0
BBX 8 12 1 0
BITMAP
0F
00
1B
00
1C
36
62
42
C2
C6
CC
78
ENDCHAR
STARTCHAR 022C
ENCODING 556
SWIDTH 480 0
DWIDTH 8 0
BBX 8 14 1 0
BITMAP
0F
00
1F
00
1E
33
61
41
41
C3
C2
C6
44
78
ENDCHAR
STARTCHAR 022D
ENCODING 557
SWIDTH 480 0
DWIDTH 8 0
BBX 8 12 1 0
BITMAP
0F
00
1E
00
1C
36
62
42
C2
C6
CC
78
ENDCHAR
STARTCHAR 022E
ENCODING 558
SWIDTH 480 0
DWIDTH 8 0
BBX 8 13 1 0
BITMAP
06
00
04
1E
23
61
41
43
C3
C2
C6
44
78
ENDCHAR
STARTCHAR 022F
ENCODING 559
SWIDTH 480 0
DWIDTH 8 0
BBX 7 11 1 0
BITMAP
04
04
00
1C
36
62
42
C2
C6
CC
78
ENDCHAR
STARTCHAR 0230
ENCODING 560
SWIDTH 480 0
DWIDTH 8 0
BBX 8 14 1 0
BITMAP
0F
00
06
00
1E
33
61
41
41
C3
C2
C6
44
78
ENDCHAR
STARTCHAR 0231
ENCODING 561
SWIDTH 480 0
DWIDTH 8 0
BBX 8 12 1 0
BITMAP
0F
00
0C
00
1C
36
62
42
C2
C6
CC
78
ENDCHAR
STARTCHAR 0232
ENCODING 562
SWIDTH 480 0
DWIDTH 8 0
BBX 7 13 3 0
BITMAP
3C
00
00
86
84
88
D8
50
60
40
40
40
C0
ENDCHAR
STARTCHAR 0233
ENCODING 563
SWIDTH 480 0
DWIDTH 8 0
BBX 9 14 0 -3
BITMAP
0F00
0000
0000
3180
3180
3100
1300
1200
1600
1C00
0C00
1800
3000
E000
ENDCHAR
STARTCHAR 0234
ENCODING 564
SWIDTH 480 0
DWIDTH 8 0
BBX 6 14 1 -3
BITMAP
3C
08
08
08
18
10
10
10
30
20
3C
64
E4
98
ENDCHAR
STARTCHAR 0235
ENCODING 565
SWIDTH 480 0
DWIDTH 8 0
BBX 8 11 0 -3
BITMAP
3C
24
24
64
64
4C
48
CF
19
39
26
ENDCHAR
STARTCHAR 0236
ENCODING 566
SWIDTH 480 0
DWIDTH 8 0
BBX 8 13 1 -3
BITMAP
08
18
3F
10
10
10
30
20
20
3C
64
AC
38
ENDCHAR
STARTCHAR 0237
ENCODING 567
SWIDTH 480 0
DWIDTH 8 0
BBX 7 11 1 -3
BITMAP
3E
06
04
04
04
0C
08
08
08
90
E0
ENDCHAR
STARTCHAR 0238
ENCODING 568
SWIDTH 480 0
DWIDTH 8 0
BBX 8 11 1 1
BITMAP
04
04
0C
3E
6B
C9
9B
93
92
96
FC
ENDCHAR
STARTCHAR 0239
ENCODING 569
SWIDTH 480 0
DWIDTH 8 0
BBX 8 11 1 -3
BITMAP
3E
6B
C9
9B
93
92
96
FC
20
20
20
ENDCHAR
STARTCHAR 023A
ENCODING 570
SWIDTH 480 0
DWIDTH 8 0
BBX 9 12 0 -1
BITMAP
0080
0700
0F00
0A00
1B00
1700
2700
3F00
4B00
5300
9300
2000
ENDCHAR
STARTCHAR 023B
ENCODING 571
SWIDTH 480 0
DWIDTH 8 0
BBX 9 13 1 -2
BITMAP
0100
0300
1F80
3200
2400
4400
4800
4800
D000
5000
6000
3C00
4000
ENDCHAR
STARTCHAR 023C
ENCODING 572
SWIDTH 480 0
DWIDTH 8 0
BBX 8 10 1 -1
BITMAP
02
1F
34
64
48
C8
D0
50
7C
20
ENDCHAR
STARTCHAR 023D
ENCODING 573
SWIDTH 480 0
DWIDTH 8 0
BBX 5 10 2 0
BITMAP
20
20
60
40
F8
40
C0
C0
80
F8
ENDCHAR
STARTCHAR 023E
ENCODING 574
SWIDTH 480 0
DWIDTH 8 0
BBX 10 11 1 -1
BITMAP
00C0
3F80
0D00
0A00
0C00
1800
1800
3000
7000
5000
B000
ENDCHAR
STARTCHAR 023F
ENCODING 575
SWIDTH 480 0
DWIDTH 8 0
BBX 7 11 1 -3
BITMAP
1E
30
20
30
1C
04
04
FC
60
30
18
ENDCHAR
STARTCHAR 0240
ENCODING 576
SWIDTH 480 0
DWIDTH 8 0
BBX 7 11 1 -3
BITMAP
3E
06
0C
18
30
60
40
E0
30
1C
0C
ENDCHAR
STARTCHAR 0241
ENCODING 577
SWIDTH 480 0
DWIDTH 8 0
BBX 7 11 2 0
BITMAP
18
7C
06
06
0C
38
60
40
40
40
C0
ENDCHAR
STARTCHAR 0242
ENCODING 578
SWIDTH 480 0
DWIDTH 8 0
BBX 5 8 3 0
BITMAP
F0
88
08
18
60
C0
80
80
ENDCHAR
STARTCHAR 0243
ENCODING 579
SWIDTH 480 0
DWIDTH 8 0
BBX 8 10 1 0
BITMAP
3F
33
21
22
3C
66
42
F2
46
FC
ENDCHAR
STARTCHAR 0244
ENCODING 580
SWIDTH 480 0
DWIDTH 8 0
BBX 8 10 1 0
BITMAP
31
21
23
62
FF
42
46
44
44
78
ENDCHAR
STARTCHAR 0245
ENCODING 581
SWIDTH 480 0
DWIDTH 8 0
BBX 8 10 0 0
BITMAP
06
0E
0A
13
13
23
23
43
43
83
ENDCHAR
STARTCHAR 0246
ENCODING 582
SWIDTH 480 0
DWIDTH 8 0
BBX 9 12 1 -2
BITMAP
0080
3F00
2300
2200
6400
7E00
4800
5800
5000
E000
FE00
4000
ENDCHAR
STARTCHAR 0247
ENCODING 583
SWIDTH 480 0
DWIDTH 8 0
BBX 7 10 1 -1
BITMAP
04
1E
3A
6A
4E
FC
D0
60
7C
40
ENDCHAR
STARTCHAR 0248
ENCODING 584
SWIDTH 480 0
DWIDTH 8 0
BBX 8 10 1 0
BITMAP
1F
03
02
02
1F
06
04
04
8C
F8
ENDCHAR
STARTCHAR 0249
ENCODING 585
SWIDTH 480 0
DWIDTH 8 0
BBX 8 14 0 -3
BITMAP
03
03
00
1F
02
02
3F
06
04
04
04
0C
D8
70
ENDCHAR
STARTCHAR 024A
ENCODING 586
SWIDTH 480 0
DWIDTH 8 0
BBX 8 14 1 -3
BITMAP
0C
1E
23
63
43
42
C2
C2
C6
CE
7C
04
04
06
ENDCHAR
STARTCHAR 024B
ENCODING 587
SWIDTH 480 0
DWIDTH 8 0
BBX 8 11 1 -3
BITMAP
1F
33
62
42
C6
C6
C4
7C
0C
0C
06
ENDCHAR
STARTCHAR 024C
ENCODING 588
SWIDTH 480 0
DWIDTH 8 0
BBX 8 10 1 0
BITMAP
3E
23
23
23
66
FC
4C
44
C4
C4
ENDCHAR
STARTCHAR 024D
ENCODING 589
SWIDTH 480 0
DWIDTH 8 0
BBX 8 8 1 0
BITMAP
1F
30
20
20
F8
40
40
40
ENDCHAR
STARTCHAR 024E
ENCODING 590
SWIDTH 480 0
DWIDTH 8 0
BBX 8 10 2 0
BITMAP
43
42
FF
6C
28
30
20
20
20
60
ENDCHAR
STARTCHAR 024F
ENCODING 591
SWIDTH 480 0
DWIDTH 8 0
BBX 9 11 0 -3
BITMAP
3180
3180
3100
3F80
1200
1600
1C00
0C00
1800
3000
E000
ENDCHAR
STARTCHAR 0292
ENCODING 658
SWIDTH 480 0
DWIDTH 8 0
BBX 7 11 1 -3
BITMAP
3E
02
04
08
30
3C
04
04
0C
98
F0
ENDCHAR
STARTCHAR 02BC
ENCODING 700
SWIDTH 480 0
DWIDTH 8 0
BBX 2 3 5 8
BITMAP
40
C0
80
ENDCHAR
STARTCHAR 02C6
ENCODING 710
SWIDTH 480 0
DWIDTH 8 0
BBX 4 2 4 9
BITMAP
60
D0
ENDCHAR
STARTCHAR 02C7
ENCODING 711
SWIDTH 480 0
DWIDTH 8 0
BBX 3 2 5 10
BITMAP
A0
C0
ENDCHAR
STARTCHAR 02C9
ENCODING 713
SWIDTH 480 0
DWIDTH 8 0
BBX 4 1 4 10
BITMAP
F0
ENDCHAR
STARTCHAR 02D8
ENCODING 728
SWIDTH 480 0
DWIDTH 8 0
BBX 4 2 4 9
BITMAP
90
60
ENDCHAR
STARTCHAR 02D9
ENCODING 729
SWIDTH 480 0
DWIDTH 8 0
BBX 2 2 5 9
BITMAP
C0
C0
ENDCHAR
STARTCHAR 02DA
ENCODING 730
SWIDTH 480 0
DWIDTH 8 0
BBX 3 3 5 9
BITMAP
40
A0
E0
ENDCHAR
STARTCHAR 02DB
ENCODING 731
SWIDTH 480 0
DWIDTH 8 0
BBX 2 3 2 -3
BITMAP
40
80
C0
ENDCHAR
STARTCHAR 02DC
ENCODING 732
SWIDTH 480 0
DWIDTH 8 0
BBX 5 2 4 9
BITMAP
C8
B0
ENDCHAR
STARTCHAR 02DD
ENCODING 733
SWIDTH 480 0
DWIDTH 8 0
BBX 5 3 4 9
BITMAP
40
58
B0
ENDCHAR
STARTCHAR 0311
ENCODING 785
SWIDTH 480 0
DWIDTH 8 0
BBX 4 2 4 9
BITMAP
70
90
ENDCHAR
STARTCHAR 0384
ENCODING 900
SWIDTH 480 0
DWIDTH 8 0
BBX 2 2 5 10
BITMAP
40
80
ENDCHAR
STARTCHAR 0385
ENCODING 901
SWIDTH 480 0
DWIDTH 8 0
BBX 6 3 3 9
BITMAP
10
D4
A4
ENDCHAR
STARTCHAR 0386
ENCODING 902
SWIDTH 480 0
DWIDTH 8 0
BBX 8 10 0 1
BITMAP
16
2E
2B
1B
13
23
3F
41
41
C1
ENDCHAR
STARTCHAR 0388
ENCODING 904
SWIDTH 480 0
DWIDTH 8 0
BBX 9 10 0 1
BITMAP
5F80
D000
9000
3000
3E00
2000
2000
6000
4000
7E00
ENDCHAR
STARTCHAR 0389
ENCODING 905
SWIDTH 480 0
DWIDTH 8 0
BBX 9 10 0 1
BITMAP
5080
9080
B080
3180
3F00
2100
6100
6300
4300
4200
ENDCHAR
STARTCHAR 038A
ENCODING 906
SWIDTH 480 0
DWIDTH 8 0
BBX 8 10 1 1
BITMAP
FF
8C
08
08
18
18
10
10
10
FC
ENDCHAR
STARTCHAR 038C
ENCODING 908
SWIDTH 480 0
DWIDTH 8 0
BBX 8 11 1 0
BITMAP
04
DE
A3
63
43
43
C2
C2
C6
CC
78
ENDCHAR
STARTCHAR 038E
ENCODING 910
SWIDTH 480 0
DWIDTH 8 0
BBX 10 10 0 1
BITMAP
B0C0
9080
1100
1300
1E00
0C00
0800
0800
1800
1800
ENDCHAR
STARTCHAR 038F
ENCODING 911
SWIDTH 480 0
DWIDTH 8 0
BBX 9 11 0 0
BITMAP
0200
4F00
5180
3080
2080
6180
6100
6100
6200
2600
EF00
ENDCHAR
STARTCHAR 0390
ENCODING 912
SWIDTH 480 0
DWIDTH 8 0
BBX 7 11 2 1
BITMAP
5E
54
00
F0
30
30
20
20
20
20
38
ENDCHAR
STARTCHAR 0391
ENCODING 913
SWIDTH 480 0
DWIDTH 8 0
BBX 8 10 0 0
BITMAP
06
0E
0A
12
13
23
3F
43
43
83
ENDCHAR
STARTCHAR 0392
ENCODING 914
SWIDTH 480 0
DWIDTH 8 0
BBX 8 10 1 0
BITMAP
3E
23
23
62
7C
46
42
C2
86
F8
ENDCHAR
STARTCHAR 0393
ENCODING 915
SWIDTH 480 0
DWIDTH 8 0
BBX 8 10 1 0
BITMAP
1F
10
10
30
30
20
20
20
60
F8
ENDCHAR
STARTCHAR 0394
ENCODING 916
SWIDTH 480 0
DWIDTH 8 0
BBX 8 10 0 0
BITMAP
06
0E
0A
13
13
23
23
43
43
FF
ENDCHAR
STARTCHAR 0395
ENCODING 917
SWIDTH 480 0
DWIDTH 8 0
BBX 8 10 1 0
BITMAP
3F
30
20
20
3E
60
40
40
40
FC
ENDCHAR
STARTCHAR 0396
ENCODING 918
SWIDTH 480 0
DWIDTH 8 0
BBX 8 10 1 0
BITMAP
3F
03
06
0C
18
10
20
40
C0
FC
ENDCHAR
STARTCHAR 0397
ENCODING 919
SWIDTH 480 0
DWIDTH 8 0
BBX 8 10 1 0
BITMAP
21
21
61
63
7E
42
C2
C6
86
84
ENDCHAR
STARTCHAR 0398
ENCODING 920
SWIDTH 480 0
DWIDTH 8 0
BBX 8 11 1 0
BITMAP
04
1E
23
61
41
5B
C3
C2
C6
44
78
ENDCHAR
STARTCHAR 0399
ENCODING 921
SWIDTH 480 0
DWIDTH 8 0
BBX 8 10 1 0
BITMAP
3F
0C
08
08
18
18
10
10
10
FC
ENDCHAR
STARTCHAR 039A
ENCODING 922
SWIDTH 480 0
DWIDTH 8 0
BBX 8 10 1 0
BITMAP
23
26
2C
78
70
50
48
CC
84
86
ENDCHAR
STARTCHAR 039B
ENCODING 923
SWIDTH 480 0
DWIDTH 8 0
BBX 8 10 0 0
BITMAP
06
0E
0A
13
13
23
23
43
43
83
ENDCHAR
STARTCHAR 039C
ENCODING 924
SWIDTH 480 0
DWIDTH 8 0
BBX 9 10 0 0
BITMAP
1880
1980
1A80
2A80
2D80
2D00
6100
4100
4100
C300
ENDCHAR
STARTCHAR 039D
ENCODING 925
SWIDTH 480 0
DWIDTH 8 0
BBX 8 10 1 0
BITMAP
31
31
71
5B
4A
4A
4A
CA
86
84
ENDCHAR
STARTCHAR 039E
ENCODING 926
SWIDTH 480 0
DWIDTH 8 0
BBX 8 10 1 0
BITMAP
3F
00
00
00
7E
00
00
00
00
FC
ENDCHAR
STARTCHAR 039F
ENCODING 927
SWIDTH 480 0
DWIDTH 8 0
BBX 8 11 1 0
BITMAP
04
1E
23
61
41
43
C3
C2
C6
44
78
ENDCHAR
STARTCHAR 03A0
ENCODING 928
SWIDTH 480 0
DWIDTH 8 0
BBX 8 10 1 0
BITMAP
3F
21
61
63
42
42
C2
C6
86
84
ENDCHAR
STARTCHAR 03A1
ENCODING 929
SWIDTH 480 0
DWIDTH 8 0
BBX 8 10 1 0
BITMAP
3E
23
21
63
62
7C
40
C0
C0
80
ENDCHAR
STARTCHAR 03A3
ENCODING 931
SWIDTH 480 0
DWIDTH 8 0
BBX 9 10 0 0
BITMAP
1F80
1800
0800
0C00
0400
0C00
1800
2000
4000
FE00
ENDCHAR
STARTCHAR 03A4
ENCODING 932
SWIDTH 480 0
DWIDTH 8 0
BBX 7 10 3 0
BITMAP
FE
30
20
20
60
60
40
40
40
C0
ENDCHAR
STARTCHAR 03A5
ENCODING 933
SWIDTH 480 0
DWIDTH 8 0
BBX 7 10 3 0
BITMAP
86
84
88
D8
50
60
40
40
40
C0
ENDCHAR
STARTCHAR 03A6
ENCODING 934
SWIDTH 480 0
DWIDTH 8 0
BBX 8 11 1 0
BITMAP
04
1E
3F
6B
49
4B
DB
52
7C
38
30
ENDCHAR
STARTCHAR 03A7
ENCODING 935
SWIDTH 480 0
DWIDTH 8 0
BBX 9 10 1 0
BITMAP
3180
1300
1600
1C00
0800
1C00
3400
6400
C600
8600
ENDCHAR
STARTCHAR 03A8
ENCODING 936
SWIDTH 480 0
DWIDTH 8 0
BBX 8 10 2 0
BITMAP
43
C2
92
92
B6
B4
F8
20
20
60
ENDCHAR
STARTCHAR 03A9
ENCODING 937
SWIDTH 480 0
DWIDTH 8 0
BBX 9 11 0 0
BITMAP
0200
0F00
1180
3080
2080
6180
6100
6100
6200
2600
EF00
ENDCHAR
STARTCHAR 03AA
ENCODING 938
SWIDTH 480 0
DWIDTH 8 0
BBX 8 13 1 0
BITMAP
1B
00
00
3F
0C
08
08
18
18
10
10
10
FC
ENDCHAR
STARTCHAR 03AB
ENCODING 939
SWIDTH 480 0
DWIDTH 8 0
BBX 7 13 3 0
BITMAP
6C
00
00
86
84
88
D8
50
60
40
40
40
C0
ENDCHAR
STARTCHAR 03AC
ENCODING 940
SWIDTH 480 0
DWIDTH 8 0
BBX 8 12 1 0
BITMAP
02
02
04
00
1F
32
62
46
C6
C4
C4
7E
ENDCHAR
STARTCHAR 03AD
ENCODING 941
SWIDTH 480 0
DWIDTH 8 0
BBX 6 11 2 1
BITMAP
04
08
00
3C
60
40
78
F0
80
80
F8
ENDCHAR
STARTCHAR 03AE
ENCODING 942
SWIDTH 480 0
DWIDTH 8 0
BBX 7 14 1 -2
BITMAP
02
04
00
3C
26
62
42
42
46
C4
C4
04
0C
08
ENDCHAR
STARTCHAR 03AF
ENCODING 943
SWIDTH 480 0
DWIDTH 8 0
BBX 5 12 2 0
BITMAP
08
08
10
00
F0
30
30
20
20
20
20
38
ENDCHAR
STARTCHAR 03B0
ENCODING 944
SWIDTH 480 0
DWIDTH 8 0
BBX 8 12 1 0
BITMAP
04
35
29
00
23
62
42
46
46
C4
4C
78
ENDCHAR
STARTCHAR 03B1
ENCODING 945
SWIDTH 480 0
DWIDTH 8 0
BBX 8 8 1 0
BITMAP
1F
32
62
46
C6
C4
C4
7E
ENDCHAR
STARTCHAR 03B2
ENCODING 946
SWIDTH 480 0
DWIDTH 8 0
BBX 9 15 0 -3
BITMAP
0200
0F00
1980
1180
1100
1600
3300
2100
2100
2300
6200
7C00
4000
4000
C000
ENDCHAR
STARTCHAR 03B3
ENCODING 947
SWIDTH 480 0
DWIDTH 8 0
BBX 7 11 2 -3
BITMAP
C6
C6
C4
4C
48
50
70
60
40
40
C0
ENDCHAR
STARTCHAR 03B4
ENCODING 948
SWIDTH 480 0
DWIDTH 8 0
BBX 8 12 1 0
BITMAP
06
1F
10
10
0C
34
62
42
42
C6
44
7C
ENDCHAR
STARTCHAR 03B5
ENCODING 949
SWIDTH 480 0
DWIDTH 8 0
BBX 6 8 2 0
BITMAP
3C
60
40
78
F0
80
80
F8
ENDCHAR
STARTCHAR 03B6
ENCODING 950
SWIDTH 480 0
DWIDTH 8 0
BBX 7 14 2 -3
BITMAP
3E
0C
18
30
60
C0
80
80
80
C0
78
08
18
10
ENDCHAR
STARTCHAR 03B7
ENCODING 951
SWIDTH 480 0
DWIDTH 8 0
BBX 7 11 1 -3
BITMAP
3C
26
62
42
42
46
C4
C4
04
0C
08
ENDCHAR
STARTCHAR 03B8
ENCODING 952
SWIDTH 480 0
DWIDTH 8 0
BBX 7 12 2 0
BITMAP
08
3C
66
46
C6
86
FE
84
84
8C
98
F0
ENDCHAR
STARTCHAR 03B9
ENCODING 953
SWIDTH 480 0
DWIDTH 8 0
BBX 5 8 2 0
BITMAP
F0
30
30
20
20
20
20
38
ENDCHAR
STARTCHAR 03BA
ENCODING 954
SWIDTH 480 0
DWIDTH 8 0
BBX 8 8 1 0
BITMAP
23
26
6C
70
50
48
CC
C4
ENDCHAR
STARTCHAR 03BB
ENCODING 955
SWIDTH 480 0
DWIDTH 8 0
BBX 6 12 1 0
BITMAP
30
38
08
0C
0C
1C
14
24
64
44
C4
84
ENDCHAR
STARTCHAR 03BC
ENCODING 956
SWIDTH 480 0
DWIDTH 8 0
BBX 8 11 0 -3
BITMAP
11
31
21
23
23
62
62
7F
40
C0
80
ENDCHAR
STARTCHAR 03BD
ENCODING 957
SWIDTH 480 0
DWIDTH 8 0
BBX 7 8 2 0
BITMAP
C6
C4
C4
C8
48
50
70
60
ENDCHAR
STARTCHAR 03BE
ENCODING 958
SWIDTH 480 0
DWIDTH 8 0
BBX 7 15 2 -3
BITMAP
04
3E
20
60
60
3C
70
C0
80
80
C0
78
08
18
10
ENDCHAR
STARTCHAR 03BF
ENCODING 959
SWIDTH 480 0
DWIDTH 8 0
BBX 7 8 1 0
BITMAP
1C
36
62
42
C2
C6
CC
78
ENDCHAR
STARTCHAR 03C0
ENCODING 960
SWIDTH 480 0
DWIDTH 8 0
BBX 8 8 1 0
BITMAP
3F
62
62
42
46
44
C4
84
ENDCHAR
STARTCHAR 03C1
ENCODING 961
SWIDTH 480 0
DWIDTH 8 0
BBX 8 11 0 -3
BITMAP
0E
1B
31
21
21
23
62
7C
40
40
C0
ENDCHAR
STARTCHAR 03C2
ENCODING 962
SWIDTH 480 0
DWIDTH 8 0
BBX 8 11 1 -3
BITMAP
1F
30
60
40
40
C0
60
3C
0C
0C
08
ENDCHAR
STARTCHAR 03C3
ENCODING 963
SWIDTH 480 0
DWIDTH 8 0
BBX 8 8 1 0
BITMAP
1F
36
42
C2
C2
C6
CC
78
ENDCHAR
STARTCHAR 03C4
ENCODING 964
SWIDTH 480 0
DWIDTH 8 0
BBX 7 8 2 0
BITMAP
FE
20
60
60
40
40
40
78
ENDCHAR
STARTCHAR 03C5
ENCODING 965
SWIDTH 480 0
DWIDTH 8 0
BBX 8 8 1 0
BITMAP
23
62
42
46
46
C4
4C
78
ENDCHAR
STARTCHAR 03C6
ENCODING 966
SWIDTH 480 0
DWIDTH 8 0
BBX 8 11 1 -3
BITMAP
1C
6A
4B
DB
93
92
D6
7C
20
20
20
ENDCHAR
STARTCHAR 03C7
ENCODING 967
SWIDTH 480 0
DWIDTH 8 0
BBX 8 8 1 0
BITMAP
63
22
34
18
18
28
4C
84
ENDCHAR
STARTCHAR 03C8
ENCODING 968
SWIDTH 480 0
DWIDTH 8 0
BBX 8 11 1 -3
BITMAP
41
41
4B
DA
92
92
D4
7C
20
20
20
ENDCHAR
STARTCHAR 03C9
ENCODING 969
SWIDTH 480 0
DWIDTH 8 0
BBX 7 8 1 0
BITMAP
22
62
42
92
92
92
B6
FC
ENDCHAR
STARTCHAR 03CA
ENCODING 970
SWIDTH 480 0
DWIDTH 8 0
BBX 6 11 2 0
BITMAP
2C
2C
00
F0
30
30
20
20
20
20
38
ENDCHAR
STARTCHAR 03CB
ENCODING 971
SWIDTH 480 0
DWIDTH 8 0
BBX 8 11 1 0
BITMAP
12
12
00
23
62
42
46
46
C4
4C
78
ENDCHAR
STARTCHAR 03CC
ENCODING 972
SWIDTH 480 0
DWIDTH 8 0
BBX 7 11 1 1
BITMAP
02
04
00
1C
36
62
42
C2
C6
CC
78
ENDCHAR
STARTCHAR 03CD
ENCODING 973
SWIDTH 480 0
DWIDTH 8 0
BBX 8 11 1 1
BITMAP
06
0C
00
23
62
42
46
46
C4
4C
78
ENDCHAR
STARTCHAR 03CE
ENCODING 974
SWIDTH 480 0
DWIDTH 8 0
BBX 7 11 1 1
BITMAP
06
0C
00
22
62
42
92
92
92
B6
FC
ENDCHAR
STARTCHAR 0400
ENCODING 1024
SWIDTH 480 0
DWIDTH 8 0
BBX 8 13 1 1
BITMAP
0C
06
00
3F
30
20
20
3E
60
40
40
40
FC
ENDCHAR
STARTCHAR 0401
ENCODING 1025
SWIDTH 480 0
DWIDTH 8 0
BBX 8 13 1 0
BITMAP
0B
08
00
3F
30
20
20
3E
60
40
40
40
FC
ENDCHAR
STARTCHAR 0402
ENCODING 1026
SWIDTH 480 0
DWIDTH 8 0
BBX 6 10 2 0
BITMAP
FC
20
60
40
7C
44
C4
84
8C
B8
ENDCHAR
STARTCHAR 0403
ENCODING 1027
SWIDTH 480 0
DWIDTH 8 0
BBX 8 14 1 0
BITMAP
01
03
06
00
1F
10
10
30
30
20
20
20
60
F8
ENDCHAR
STARTCHAR 0404
ENCODING 1028
SWIDTH 480 0
DWIDTH 8 0
BBX 8 11 1 0
BITMAP
06
1F
30
60
40
7C
40
C0
40
60
3C
ENDCHAR
STARTCHAR 0405
ENCODING 1029
SWIDTH 480 0
DWIDTH 8 0
BBX 8 11 1 0
BITMAP
04
1F
20
20
30
18
0C
06
06
84
FC
ENDCHAR
STARTCHAR 0406
ENCODING 1030
SWIDTH 480 0
DWIDTH 8 0
BBX 8 10 1 0
BITMAP
3F
0C
08
08
18
18
10
10
10
FC
ENDCHAR
STARTCHAR 0407
ENCODING 1031
SWIDTH 480 0
DWIDTH 8 0
BBX 8 13 1 0
BITMAP
0B
08
00
3F
0C
08
08
18
18
10
10
10
FC
ENDCHAR
STARTCHAR 0408
ENCODING 1032
SWIDTH 480 0
DWIDTH 8 0
BBX 8 10 1 0
BITMAP
1F
03
03
02
02
06
06
04
0C
F8
ENDCHAR
STARTCHAR 0409
ENCODING 1033
SWIDTH 480 0
DWIDTH 8 0
BBX 9 10 0 0
BITMAP
0E00
0A00
1600
1700
1700
3580
2580
2900
6900
CE00
ENDCHAR
STARTCHAR 040A
ENCODING 1034
SWIDTH 480 0
DWIDTH 8 0
BBX 8 10 1 0
BITMAP
24
64
4C
48
7E
CB
8B
92
92
9C
ENDCHAR
STARTCHAR 040B
ENCODING 1035
SWIDTH 480 0
DWIDTH 8 0
BBX 6 10 2 0
BITMAP
FC
20
60
40
7C
44
C4
8C
8C
88
ENDCHAR
STARTCHAR 040C
ENCODING 1036
SWIDTH 480 0
DWIDTH 8 0
BBX 8 13 1 1
BITMAP
02
04
00
23
26
2C
78
70
50
48
CC
84
86
ENDCHAR
STARTCHAR 040D
ENCODING 1037
SWIDTH 480 0
DWIDTH 8 0
BBX 8 14 1 0
BITMAP
08
0C
06
00
21
23
65
4F
4A
52
62
A2
C6
84
ENDCHAR
STARTCHAR 040E
ENCODING 1038
SWIDTH 480 0
DWIDTH 8 0
BBX 9 13 1 0
BITMAP
0900
0600
0000
2080
2180
3100
3200
1600
1400
1C00
1800
3000
E000
ENDCHAR
STARTCHAR 040F
ENCODING 1039
SWIDTH 480 0
DWIDTH 8 0
BBX 8 13 1 -3
BITMAP
21
21
61
63
42
42
C2
C6
86
FC
20
20
20
ENDCHAR
STARTCHAR 0410
ENCODING 1040
SWIDTH 480 0
DWIDTH 8 0
BBX 8 10 0 0
BITMAP
06
0E
0A
12
13
23
3F
43
43
83
ENDCHAR
STARTCHAR 0411
ENCODING 1041
SWIDTH 480 0
DWIDTH 8 0
BBX 8 10 1 0
BITMAP
3F
20
60
60
7E
42
42
C2
84
F8
ENDCHAR
STARTCHAR 0412
ENCODING 1042
SWIDTH 480 0
DWIDTH 8 0
BBX 8 10 1 0
BITMAP
3E
23
23
62
7C
46
42
C2
86
F8
ENDCHAR
STARTCHAR 0413
ENCODING 1043
SWIDTH 480 0
DWIDTH 8 0
BBX 8 10 1 0
BITMAP
1F
10
10
30
30
20
20
20
60
F8
ENDCHAR
STARTCHAR 0414
ENCODING 1044
SWIDTH 480 0
DWIDTH 8 0
BBX 9 13 0 -3
BITMAP
0780
0C80
0980
0900
1900
1100
1300
3300
6200
FF00
8200
8200
8200
ENDCHAR
STARTCHAR 0415
ENCODING 1045
SWIDTH 480 0
DWIDTH 8 0
BBX 8 10 1 0
BITMAP
3F
30
20
20
3E
60
40
40
40
FC
ENDCHAR
STARTCHAR 0416
ENCODING 1046
SWIDTH 480 0
DWIDTH 8 0
BBX 10 10 0 0
BITMAP
12C0
1680
1500
1F00
0E00
1E00
2A00
6B00
4900
9900
ENDCHAR
STARTCHAR 0417
ENCODING 1047
SWIDTH 480 0
DWIDTH 8 0
BBX 8 10 1 1
BITMAP
3E
03
03
06
3C
06
02
06
04
F8
ENDCHAR
STARTCHAR 0418
ENCODING 1048
SWIDTH 480 0
DWIDTH 8 0
BBX 8 10 1 0
BITMAP
21
23
65
4F
4A
52
62
A2
C6
84
ENDCHAR
STARTCHAR 0419
ENCODING 1049
SWIDTH 480 0
DWIDTH 8 0
BBX 8 13 1 0
BITMAP
09
06
00
21
23
65
4F
4A
52
62
A2
C6
84
ENDCHAR
STARTCHAR 041A
ENCODING 1050
SWIDTH 480 0
DWIDTH 8 0
BBX 8 10 1 0
BITMAP
23
26
2C
78
70
50
48
CC
84
86
ENDCHAR
STARTCHAR 041B
ENCODING 1051
SWIDTH 480 0
DWIDTH 8 0
BBX 9 10 0 0
BITMAP
0780
0C80
0880
0980
1900
1100
1100
3300
6300
C200
ENDCHAR
STARTCHAR 041C
ENCODING 1052
SWIDTH 480 0
DWIDTH 8 0
BBX 9 10 0 0
BITMAP
1880
1980
1A80
2A80
2D80
2D00
6100
4100
4100
C300
ENDCHAR
STARTCHAR 041D
ENCODING 1053
SWIDTH 480 0
DWIDTH 8 0
BBX 8 10 1 0
BITMAP
21
21
61
63
7E
42
C2
C6
86
84
ENDCHAR
STARTCHAR 041E
ENCODING 1054
SWIDTH 480 0
DWIDTH 8 0
BBX 8 11 1 0
BITMAP
04
1E
23
61
41
43
C3
C2
C6
44
78
ENDCHAR
STARTCHAR 041F
ENCODING 1055
SWIDTH 480 0
DWIDTH 8 0
BBX 8 10 1 0
BITMAP
3F
21
61
63
42
42
C2
C6
86
84
ENDCHAR
STARTCHAR 0420
ENCODING 1056
SWIDTH 480 0
DWIDTH 8 0
BBX 8 10 1 0
BITMAP
3E
23
21
63
62
7C
40
C0
C0
80
ENDCHAR
STARTCHAR 0421
ENCODING 1057
SWIDTH 480 0
DWIDTH 8 0
BBX 8 11 1 0
BITMAP
06
1F
30
60
40
40
40
C0
40
60
3C
ENDCHAR
STARTCHAR 0422
ENCODING 1058
SWIDTH 480 0
DWIDTH 8 0
BBX 7 10 3 0
BITMAP
FE
30
20
20
60
60
40
40
40
C0
ENDCHAR
STARTCHAR 0423
ENCODING 1059
SWIDTH 480 0
DWIDTH 8 0
BBX 9 10 1 0
BITMAP
2080
2180
3100
3200
1600
1400
1C00
1800
3000
E000
ENDCHAR
STARTCHAR 0424
ENCODING 1060
SWIDTH 480 0
DWIDTH 8 0
BBX 8 11 1 0
BITMAP
04
1E
3F
6B
49
4B
DB
52
7C
38
30
ENDCHAR
STARTCHAR 0425
ENCODING 1061
SWIDTH 480 0
DWIDTH 8 0
BBX 9 10 1 0
BITMAP
3180
1300
1600
1C00
0800
1C00
3400
6400
C600
8600
ENDCHAR
STARTCHAR 0426
ENCODING 1062
SWIDTH 480 0
DWIDTH 8 0
BBX 8 13 1 -3
BITMAP
21
21
63
62
42
42
C6
C6
84
FE
04
04
04
ENDCHAR
STARTCHAR 0427
ENCODING 1063
SWIDTH 480 0
DWIDTH 8 0
BBX 7 10 2 0
BITMAP
42
42
C2
C6
C4
7C
04
0C
0C
08
ENDCHAR
STARTCHAR 0428
ENCODING 1064
SWIDTH 480 0
DWIDTH 8 0
BBX 8 10 1 0
BITMAP
21
21
61
43
4A
5A
D2
96
94
FC
ENDCHAR
STARTCHAR 0429
ENCODING 1065
SWIDTH 480 0
DWIDTH 8 0
BBX 8 13 1 -3
BITMAP
21
21
63
42
5A
52
D6
96
B4
FE
04
04
04
ENDCHAR
STARTCHAR 042A
ENCODING 1066
SWIDTH 480 0
DWIDTH 8 0
BBX 6 10 2 0
BITMAP
E0
20
60
70
7C
44
C4
C4
8C
F0
ENDCHAR
STARTCHAR 042B
ENCODING 1067
SWIDTH 480 0
DWIDTH 8 0
BBX 10 10 0 0
BITMAP
10C0
3080
2080
3880
3D80
6500
4500
4D00
4B00
F300
ENDCHAR
STARTCHAR 042C
ENCODING 1068
SWIDTH 480 0
DWIDTH 8 0
BBX 7 10 1 0
BITMAP
20
20
20
70
7E
42
42
C2
86
F8
ENDCHAR
STARTCHAR 042D
ENCODING 1069
SWIDTH 480 0
DWIDTH 8 0
BBX 8 11 1 0
BITMAP
08
3E
03
01
01
1F
03
02
06
8C
F8
ENDCHAR
STARTCHAR 042E
ENCODING 1070
SWIDTH 480 0
DWIDTH 8 0
BBX 8 11 1 0
BITMAP
02
27
69
69
59
71
51
D3
92
96
9C
ENDCHAR
STARTCHAR 042F
ENCODING 1071
SWIDTH 480 0
DWIDTH 8 0
BBX 8 10 1 0
BITMAP
1F
31
21
23
22
1E
32
66
C6
84
ENDCHAR
STARTCHAR 0430
ENCODING 1072
SWIDTH 480 0
DWIDTH 8 0
BBX 8 8 1 0
BITMAP
1F
32
62
46
C6
C4
C4
7C
ENDCHAR
STARTCHAR 0431
ENCODING 1073
SWIDTH 480 0
DWIDTH 8 0
BBX 7 11 2 1
BITMAP
1E
30
60
58
FC
84
84
84
8C
88
F0
ENDCHAR
STARTCHAR 0432
ENCODING 1074
SWIDTH 480 0
DWIDTH 8 0
BBX 7 8 1 0
BITMAP
1C
26
62
7C
4C
C6
C6
FC
ENDCHAR
STARTCHAR 0433
ENCODING 1075
SWIDTH 480 0
DWIDTH 8 0
BBX 7 8 1 0
BITMAP
3C
06
02
0C
70
C0
C0
7C
ENDCHAR
STARTCHAR 0434
ENCODING 1076
SWIDTH 480 0
DWIDTH 8 0
BBX 7 12 1 0
BITMAP
10
3C
06
02
1E
3E
62
42
42
C6
4C
78
ENDCHAR
STARTCHAR 0435
ENCODING 1077
SWIDTH 480 0
DWIDTH 8 0
BBX 7 8 1 0
BITMAP
1E
32
42
C6
F8
C0
C0
7C
ENDCHAR
STARTCHAR 0436
ENCODING 1078
SWIDTH 480 0
DWIDTH 8 0
BBX 9 8 0 0
BITMAP
2480
2500
3500
2A00
3E00
2A00
2A00
DB00
ENDCHAR
STARTCHAR 0437
ENCODING 1079
SWIDTH 480 0
DWIDTH 8 0
BBX 7 8 1 0
BITMAP
3E
22
02
3E
3C
06
06
FC
ENDCHAR
STARTCHAR 0438
ENCODING 1080
SWIDTH 480 0
DWIDTH 8 0
BBX 8 8 1 0
BITMAP
23
62
42
46
46
C4
CC
7C
ENDCHAR
STARTCHAR 0439
ENCODING 1081
SWIDTH 480 0
DWIDTH 8 0
BBX 8 11 1 0
BITMAP
12
1C
00
23
62
42
46
46
C4
CC
7C
ENDCHAR
STARTCHAR 043A
ENCODING 1082
SWIDTH 480 0
DWIDTH 8 0
BBX 8 8 1 0
BITMAP
23
26
6C
70
50
48
CC
C4
ENDCHAR
STARTCHAR 043B
ENCODING 1083
SWIDTH 480 0
DWIDTH 8 0
BBX 9 8 0 0
BITMAP
0F80
0900
0900
1900
1300
3200
6200
C200
ENDCHAR
STARTCHAR 043C
ENCODING 1084
SWIDTH 480 0
DWIDTH 8 0
BBX 9 8 0 0
BITMAP
1080
3180
3280
3380
7D00
4D00
4100
C300
ENDCHAR
STARTCHAR 043D
ENCODING 1085
SWIDTH 480 0
DWIDTH 8 0
BBX 8 8 1 0
BITMAP
23
62
62
7E
7E
44
C4
84
ENDCHAR
STARTCHAR 043E
ENCODING 1086
SWIDTH 480 0
DWIDTH 8 0
BBX 7 8 1 0
BITMAP
1C
36
62
42
C2
C6
CC
78
ENDCHAR
STARTCHAR 043F
ENCODING 1087
SWIDTH 480 0
DWIDTH 8 0
BBX 7 8 1 0
BITMAP
3C
26
62
42
42
46
C4
C4
ENDCHAR
STARTCHAR 0440
ENCODING 1088
SWIDTH 480 0
DWIDTH 8 0
BBX 8 11 0 -3
BITMAP
1E
13
31
21
21
23
66
7C
40
40
C0
ENDCHAR
STARTCHAR 0441
ENCODING 1089
SWIDTH 480 0
DWIDTH 8 0
BBX 7 8 1 0
BITMAP
1E
30
40
C0
C0
C0
C0
7C
ENDCHAR
STARTCHAR 0442
ENCODING 1090
SWIDTH 480 0
DWIDTH 8 0
BBX 8 8 1 0
BITMAP
76
4B
4B
5A
D2
82
86
84
ENDCHAR
STARTCHAR 0443
ENCODING 1091
SWIDTH 480 0
DWIDTH 8 0
BBX 9 11 0 -3
BITMAP
3180
3180
3100
1300
1200
1600
1C00
0C00
1800
3000
E000
ENDCHAR
STARTCHAR 0444
ENCODING 1092
SWIDTH 480 0
DWIDTH 8 0
BBX 8 14 1 -2
BITMAP
04
04
0C
1C
6A
4B
DB
93
92
D6
7C
20
20
20
ENDCHAR
STARTCHAR 0445
ENCODING 1093
SWIDTH 480 0
DWIDTH 8 0
BBX 8 8 1 0
BITMAP
63
22
34
18
18
28
4C
84
ENDCHAR
STARTCHAR 0446
ENCODING 1094
SWIDTH 480 0
DWIDTH 8 0
BBX 7 10 1 -2
BITMAP
62
66
46
44
C4
C4
CC
7E
04
04
ENDCHAR
STARTCHAR 0447
ENCODING 1095
SWIDTH 480 0
DWIDTH 8 0
BBX 7 8 2 0
BITMAP
C6
84
84
84
FC
08
08
08
ENDCHAR
STARTCHAR 0448
ENCODING 1096
SWIDTH 480 0
DWIDTH 8 0
BBX 8 8 1 0
BITMAP
41
43
5A
D2
92
96
94
FE
ENDCHAR
STARTCHAR 0449
ENCODING 1097
SWIDTH 480 0
DWIDTH 8 0
BBX 8 10 1 -2
BITMAP
41
43
5A
D2
92
96
96
FA
02
02
ENDCHAR
STARTCHAR 044A
ENCODING 1098
SWIDTH 480 0
DWIDTH 8 0
BBX 6 8 2 0
BITMAP
E0
60
40
78
44
C4
8C
F8
ENDCHAR
STARTCHAR 044B
ENCODING 1099
SWIDTH 480 0
DWIDTH 8 0
BBX 8 8 1 0
BITMAP
61
41
43
F2
DA
8A
9E
F4
ENDCHAR
STARTCHAR 044C
ENCODING 1100
SWIDTH 480 0
DWIDTH 8 0
BBX 7 8 1 0
BITMAP
20
20
60
7C
46
42
46
FC
ENDCHAR
STARTCHAR 044D
ENCODING 1101
SWIDTH 480 0
DWIDTH 8 0
BBX 7 8 1 0
BITMAP
3C
06
02
3E
3E
06
0C
F8
ENDCHAR
STARTCHAR 044E
ENCODING 1102
SWIDTH 480 0
DWIDTH 8 0
BBX 8 8 1 0
BITMAP
66
4B
5B
53
F3
D2
92
9C
ENDCHAR
STARTCHAR 044F
ENCODING 1103
SWIDTH 480 0
DWIDTH 8 0
BBX 8 8 1 0
BITMAP
1F
32
62
62
3E
24
44
C4
ENDCHAR
STARTCHAR 0450
ENCODING 1104
SWIDTH 480 0
DWIDTH 8 0
BBX 7 11 1 1
BITMAP
08
04
00
1E
32
42
C6
F8
C0
C0
7C
ENDCHAR
STARTCHAR 0451
ENCODING 1105
SWIDTH 480 0
DWIDTH 8 0
BBX 8 11 1 0
BITMAP
0B
1B
00
1E
32
42
C6
F8
C0
C0
7C
ENDCHAR
STARTCHAR 0452
ENCODING 1106
SWIDTH 480 0
DWIDTH 8 0
BBX 7 14 1 -2
BITMAP
10
3C
30
3C
26
22
62
62
46
44
C4
04
0C
38
ENDCHAR
STARTCHAR 0453
ENCODING 1107
SWIDTH 480 0
DWIDTH 8 0
BBX 7 11 1 1
BITMAP
06
0C
00
3C
06
02
0C
70
C0
C0
7C
ENDCHAR
STARTCHAR 0454
ENCODING 1108
SWIDTH 480 0
DWIDTH 8 0
BBX 7 8 1 0
BITMAP
1E
30
60
7C
FC
C0
40
7C
ENDCHAR
STARTCHAR 0455
ENCODING 1109
SWIDTH 480 0
DWIDTH 8 0
BBX 7 8 1 0
BITMAP
1E
32
20
30
0C
04
04
FC
ENDCHAR
STARTCHAR 0456
ENCODING 1110
SWIDTH 480 0
DWIDTH 8 0
BBX 5 11 2 0
BITMAP
18
18
00
F0
30
30
20
20
20
20
38
ENDCHAR
STARTCHAR 0457
ENCODING 1111
SWIDTH 480 0
DWIDTH 8 0
BBX 6 11 2 0
BITMAP
2C
2C
00
F0
30
30
20
20
20
20
38
ENDCHAR
STARTCHAR 0458
ENCODING 1112
SWIDTH 480 0
DWIDTH 8 0
BBX 7 14 1 -3
BITMAP
06
06
00
3E
06
04
04
04
0C
08
08
08
90
E0
ENDCHAR
STARTCHAR 0459
ENCODING 1113
SWIDTH 480 0
DWIDTH 8 0
BBX 8 8 0 0
BITMAP
1E
16
14
17
25
2D
69
CE
ENDCHAR
STARTCHAR 045A
ENCODING 1114
SWIDTH 480 0
DWIDTH 8 0
BBX 7 8 1 0
BITMAP
64
4C
48
7E
CA
9A
92
9C
ENDCHAR
STARTCHAR 045B
ENCODING 1115
SWIDTH 480 0
DWIDTH 8 0
BBX 7 11 1 1
BITMAP
10
3C
30
3C
26
22
62
62
46
44
C4
ENDCHAR
STARTCHAR 045C
ENCODING 1116
SWIDTH 480 0
DWIDTH 8 0
BBX 8 11 1 1
BITMAP
06
0C
00
23
26
6C
70
50
48
CC
C4
ENDCHAR
STARTCHAR 045D
ENCODING 1117
SWIDTH 480 0
DWIDTH 8 0
BBX 8 11 1 1
BITMAP
18
0C
00
23
62
42
46
46
C4
CC
7C
ENDCHAR
STARTCHAR 045E
ENCODING 1118
SWIDTH 480 0
DWIDTH 8 0
BBX 9 14 0 -3
BITMAP
0900
0E00
0000
3180
3180
3100
1300
1200
1600
1C00
0C00
1800
3000
E000
ENDCHAR
STARTCHAR 045F
ENCODING 1119
SWIDTH 480 0
DWIDTH 8 0
BBX 8 11 1 -3
BITMAP
23
62
42
46
46
C4
CC
7C
00
20
20
ENDCHAR
STARTCHAR 0462
ENCODING 1122
SWIDTH 480 0
DWIDTH 8 0
BBX 6 11 2 0
BITMAP
30
7C
20
60
60
7C
44
C4
C4
8C
F0
ENDCHAR
STARTCHAR 0463
ENCODING 1123
SWIDTH 480 0
DWIDTH 8 0
BBX 9 8 0 0
BITMAP
3800
2C00
6400
6F00
4980
4980
4900
DF00
ENDCHAR
STARTCHAR 0472
ENCODING 1138
SWIDTH 480 0
DWIDTH 8 0
BBX 8 11 1 0
BITMAP
04
1E
23
61
41
7B
CF
C2
C6
CC
78
ENDCHAR
STARTCHAR 0473
ENCODING 1139
SWIDTH 480 0
DWIDTH 8 0
BBX 7 8 1 0
BITMAP
1C
32
62
72
CE
C6
C4
78
ENDCHAR
STARTCHAR 0474
ENCODING 1140
SWIDTH 480 0
DWIDTH 8 0
BBX 8 10 2 0
BITMAP
C7
C4
CC
C8
D8
D0
D0
E0
E0
C0
ENDCHAR
STARTCHAR 0475
ENCODING 1141
SWIDTH 480 0
DWIDTH 8 0
BBX 7 8 2 0
BITMAP
86
8C
88
98
D0
E0
E0
40
ENDCHAR
STARTCHAR 048A
ENCODING 1162
SWIDTH 480 0
DWIDTH 8 0
BBX 8 16 1 -3
BITMAP
1B
0C
00
23
27
67
4A
5A
52
66
A4
C4
86
04
0C
08
ENDCHAR
STARTCHAR 048B
ENCODING 1163
SWIDTH 480 0
DWIDTH 8 0
BBX 7 13 1 -3
BITMAP
12
1C
00
22
62
46
46
44
C4
CC
76
04
0C
ENDCHAR
STARTCHAR 048C
ENCODING 1164
SWIDTH 480 0
DWIDTH 8 0
BBX 7 10 1 0
BITMAP
10
7C
20
38
3E
66
62
46
44
F8
ENDCHAR
STARTCHAR 048D
ENCODING 1165
SWIDTH 480 0
DWIDTH 8 0
BBX 7 8 1 0
BITMAP
20
F8
60
7C
46
42
C6
FC
ENDCHAR
STARTCHAR 048E
ENCODING 1166
SWIDTH 480 0
DWIDTH 8 0
BBX 8 10 1 0
BITMAP
3E
23
21
6B
6A
7C
44
C4
C0
80
ENDCHAR
STARTCHAR 048F
ENCODING 1167
SWIDTH 480 0
DWIDTH 8 0
BBX 8 11 0 -3
BITMAP
1E
13
31
21
21
2B
66
7C
44
40
C0
ENDCHAR
STARTCHAR 0490
ENCODING 1168
SWIDTH 480 0
DWIDTH 8 0
BBX 10 12 0 0
BITMAP
0040
00C0
0F80
0800
0800
1800
1000
1000
1000
3000
3000
F800
ENDCHAR
STARTCHAR 0491
ENCODING 1169
SWIDTH 480 0
DWIDTH 8 0
BBX 7 10 2 0
BITMAP
06
04
7C
60
40
40
C0
C0
80
80
ENDCHAR
STARTCHAR 0492
ENCODING 1170
SWIDTH 480 0
DWIDTH 8 0
BBX 8 10 1 0
BITMAP
1F
10
10
30
7C
20
20
20
60
F8
ENDCHAR
STARTCHAR 0493
ENCODING 1171
SWIDTH 480 0
DWIDTH 8 0
BBX 7 8 1 0
BITMAP
3C
22
02
3C
7C
40
C0
7C
ENDCHAR
STARTCHAR 0494
ENCODING 1172
SWIDTH 480 0
DWIDTH 8 0
BBX 7 13 1 -3
BITMAP
3E
20
20
60
7C
46
46
C6
86
84
0C
18
70
ENDCHAR
STARTCHAR 0495
ENCODING 1173
SWIDTH 480 0
DWIDTH 8 0
BBX 7 11 1 -3
BITMAP
3E
20
60
78
4C
46
C6
C4
0C
18
30
ENDCHAR
STARTCHAR 0496
ENCODING 1174
SWIDTH 480 0
DWIDTH 8 0
BBX 10 13 0 -3
BITMAP
12C0
1680
1500
1F00
0E00
1E00
2A00
6B00
4B00
9B00
0100
0300
0300
ENDCHAR
STARTCHAR 0497
ENCODING 1175
SWIDTH 480 0
DWIDTH 8 0
BBX 9 10 0 -2
BITMAP
2480
2500
3500
2A00
3E00
2A00
2A00
DB80
0100
0100
ENDCHAR
STARTCHAR 0498
ENCODING 1176
SWIDTH 480 0
DWIDTH 8 0
BBX 8 13 1 -2
BITMAP
3E
03
03
06
3C
06
02
06
04
F8
20
30
60
ENDCHAR
STARTCHAR 0499
ENCODING 1177
SWIDTH 480 0
DWIDTH 8 0
BBX 7 11 1 -3
BITMAP
3E
22
02
3E
3C
06
06
FC
20
10
60
ENDCHAR
STARTCHAR 049A
ENCODING 1178
SWIDTH 480 0
DWIDTH 8 0
BBX 8 13 1 -3
BITMAP
23
26
2C
78
70
50
58
C8
8C
86
04
04
04
ENDCHAR
STARTCHAR 049B
ENCODING 1179
SWIDTH 480 0
DWIDTH 8 0
BBX 8 10 1 -2
BITMAP
23
24
68
70
50
48
CC
C6
04
04
ENDCHAR
STARTCHAR 049C
ENCODING 1180
SWIDTH 480 0
DWIDTH 8 0
BBX 9 10 0 0
BITMAP
1080
3180
2B00
2E00
3C00
7C00
7600
4200
4200
C300
ENDCHAR
STARTCHAR 049D
ENCODING 1181
SWIDTH 480 0
DWIDTH 8 0
BBX 8 8 1 0
BITMAP
63
46
54
78
E8
AC
84
84
ENDCHAR
STARTCHAR 049E
ENCODING 1182
SWIDTH 480 0
DWIDTH 8 0
BBX 8 10 1 0
BITMAP
33
72
24
28
70
58
48
4C
C4
86
ENDCHAR
STARTCHAR 049F
ENCODING 1183
SWIDTH 480 0
DWIDTH 8 0
BBX 8 8 1 0
BITMAP
23
F6
6C
50
70
48
CC
C4
ENDCHAR
STARTCHAR 04A0
ENCODING 1184
SWIDTH 480 0
DWIDTH 8 0
BBX 7 10 2 0
BITMAP
E2
24
6C
78
70
50
D8
C8
88
8C
ENDCHAR
STARTCHAR 04A1
ENCODING 1185
SWIDTH 480 0
DWIDTH 8 0
BBX 7 8 2 0
BITMAP
E6
6C
58
70
70
D8
98
88
ENDCHAR
STARTCHAR 04A2
ENCODING 1186
SWIDTH 480 0
DWIDTH 8 0
BBX 8 13 1 -3
BITMAP
21
21
61
63
7E
42
C2
C6
84
86
06
04
04
ENDCHAR
STARTCHAR 04A3
ENCODING 1187
SWIDTH 480 0
DWIDTH 8 0
BBX 8 10 1 -2
BITMAP
23
62
62
7E
7E
44
C4
86
04
04
ENDCHAR
STARTCHAR 04A4
ENCODING 1188
SWIDTH 480 0
DWIDTH 8 0
BBX 9 10 1 0
BITMAP
2380
2300
6200
6200
7E00
4600
C400
C400
8400
8C00
ENDCHAR
STARTCHAR 04A5
ENCODING 1189
SWIDTH 480 0
DWIDTH 8 0
BBX 8 8 1 0
BITMAP
23
66
46
7C
7C
CC
8C
88
ENDCHAR
STARTCHAR 04A6
ENCODING 1190
SWIDTH 480 0
DWIDTH 8 0
BBX 7 13 1 -3
BITMAP
3C
28
68
48
5E
52
D2
92
B2
A6
04
0C
10
ENDCHAR
STARTCHAR 04A7
ENCODING 1191
SWIDTH 480 0
DWIDTH 8 0
BBX 8 11 0 -3
BITMAP
38
24
24
67
4D
49
49
C9
03
06
0C
ENDCHAR
STARTCHAR 04A8
ENCODING 1192
SWIDTH 480 0
DWIDTH 8 0
BBX 8 14 1 -3
BITMAP
06
1F
20
66
4A
D3
D2
D2
F2
F4
78
10
1C
04
ENDCHAR
STARTCHAR 04A9
ENCODING 1193
SWIDTH 480 0
DWIDTH 8 0
BBX 7 10 1 -2
BITMAP
1C
20
4E
DA
92
92
D4
78
10
0C
ENDCHAR
STARTCHAR 04AA
ENCODING 1194
SWIDTH 480 0
DWIDTH 8 0
BBX 8 14 1 -3
BITMAP
06
1F
30
60
40
40
40
C0
40
60
3C
10
10
70
ENDCHAR
STARTCHAR 04AB
ENCODING 1195
SWIDTH 480 0
DWIDTH 8 0
BBX 7 11 1 -3
BITMAP
1E
30
40
C0
C0
C0
C0
7C
20
10
60
ENDCHAR
STARTCHAR 04AC
ENCODING 1196
SWIDTH 480 0
DWIDTH 8 0
BBX 7 13 3 -3
BITMAP
FE
30
20
20
60
60
40
40
40
C0
40
C0
C0
ENDCHAR
STARTCHAR 04AD
ENCODING 1197
SWIDTH 480 0
DWIDTH 8 0
BBX 8 10 1 -2
BITMAP
76
4B
4B
5A
D2
82
86
86
06
06
ENDCHAR
STARTCHAR 04AE
ENCODING 1198
SWIDTH 480 0
DWIDTH 8 0
BBX 7 10 3 0
BITMAP
86
84
88
D8
50
60
40
40
40
C0
ENDCHAR
STARTCHAR 04AF
ENCODING 1199
SWIDTH 480 0
DWIDTH 8 0
BBX 7 11 2 -3
BITMAP
C6
C4
C4
C8
48
50
70
60
40
40
40
ENDCHAR
STARTCHAR 04B0
ENCODING 1200
SWIDTH 480 0
DWIDTH 8 0
BBX 8 10 2 0
BITMAP
43
42
44
6C
38
30
FC
20
20
60
ENDCHAR
STARTCHAR 04B1
ENCODING 1201
SWIDTH 480 0
DWIDTH 8 0
BBX 8 11 1 -3
BITMAP
63
62
62
64
24
28
38
FC
20
20
20
ENDCHAR
STARTCHAR 04B2
ENCODING 1202
SWIDTH 480 0
DWIDTH 8 0
BBX 8 13 1 -3
BITMAP
31
13
16
1C
18
18
2C
64
C4
86
04
04
04
ENDCHAR
STARTCHAR 04B3
ENCODING 1203
SWIDTH 480 0
DWIDTH 8 0
BBX 8 10 1 -2
BITMAP
63
26
3C
18
38
28
4C
86
04
04
ENDCHAR
STARTCHAR 04B4
ENCODING 1204
SWIDTH 480 0
DWIDTH 8 0
BBX 7 13 2 -3
BITMAP
F2
62
66
44
44
C4
CC
8C
88
FC
08
08
08
ENDCHAR
STARTCHAR 04B5
ENCODING 1205
SWIDTH 480 0
DWIDTH 8 0
BBX 7 10 2 -2
BITMAP
F6
44
C4
CC
8C
88
88
FC
0C
08
ENDCHAR
STARTCHAR 04B6
ENCODING 1206
SWIDTH 480 0
DWIDTH 8 0
BBX 7 13 2 -3
BITMAP
42
42
C6
C4
C4
7C
0C
0C
08
0C
08
08
08
ENDCHAR
STARTCHAR 04B7
ENCODING 1207
SWIDTH 480 0
DWIDTH 8 0
BBX 7 10 2 -2
BITMAP
C6
84
84
84
FC
08
08
0C
08
08
ENDCHAR
STARTCHAR 04B8
ENCODING 1208
SWIDTH 480 0
DWIDTH 8 0
BBX 7 10 2 0
BITMAP
42
42
C2
D6
D4
7C
24
2C
0C
08
ENDCHAR
STARTCHAR 04B9
ENCODING 1209
SWIDTH 480 0
DWIDTH 8 0
BBX 7 8 2 0
BITMAP
C6
84
84
A4
FC
28
28
08
ENDCHAR
STARTCHAR 04BA
ENCODING 1210
SWIDTH 480 0
DWIDTH 8 0
BBX 7 10 1 0
BITMAP
20
20
20
7C
66
42
42
C2
86
84
ENDCHAR
STARTCHAR 04BB
ENCODING 1211
SWIDTH 480 0
DWIDTH 8 0
BBX 7 11 1 1
BITMAP
30
20
20
3C
66
42
46
46
C4
84
84
ENDCHAR
STARTCHAR 04BC
ENCODING 1212
SWIDTH 480 0
DWIDTH 8 0
BBX 8 11 1 0
BITMAP
02
0F
09
51
D1
7F
30
20
20
30
1E
ENDCHAR
STARTCHAR 04BD
ENCODING 1213
SWIDTH 480 0
DWIDTH 8 0
BBX 8 8 1 0
BITMAP
0E
1B
B1
A2
7C
20
20
3E
ENDCHAR
STARTCHAR 04BE
ENCODING 1214
SWIDTH 480 0
DWIDTH 8 0
BBX 8 14 1 -3
BITMAP
02
0F
09
51
D1
7F
30
20
20
30
1E
08
18
10
ENDCHAR
STARTCHAR 04BF
ENCODING 1215
SWIDTH 480 0
DWIDTH 8 0
BBX 8 10 1 -2
BITMAP
0E
1B
B1
A2
7C
20
20
3E
18
10
ENDCHAR
STARTCHAR 04C0
ENCODING 1216
SWIDTH 480 0
DWIDTH 8 0
BBX 8 10 1 0
BITMAP
3F
0C
08
08
18
18
10
10
10
FC
ENDCHAR
STARTCHAR 04C1
ENCODING 1217
SWIDTH 480 0
DWIDTH 8 0
BBX 10 13 0 0
BITMAP
0480
0300
0000
12C0
1680
1500
1F00
0E00
1E00
2A00
6B00
4900
9900
ENDCHAR
STARTCHAR 04C2
ENCODING 1218
SWIDTH 480 0
DWIDTH 8 0
BBX 9 11 0 0
BITMAP
0980
0700
0000
2480
2500
3500
2A00
3E00
2A00
2A00
DB00
ENDCHAR
STARTCHAR 04C3
ENCODING 1219
SWIDTH 480 0
DWIDTH 8 0
BBX 8 13 1 -3
BITMAP
21
22
24
68
78
4C
46
C2
86
86
0C
18
70
ENDCHAR
STARTCHAR 04C4
ENCODING 1220
SWIDTH 480 0
DWIDTH 8 0
BBX 8 11 1 -3
BITMAP
23
26
68
70
4C
44
C4
C4
04
18
30
ENDCHAR
STARTCHAR 04C5
ENCODING 1221
SWIDTH 480 0
DWIDTH 8 0
BBX 9 13 0 -3
BITMAP
0780
0D80
0900
0900
1900
1300
1300
3200
6200
C700
0200
0600
0400
ENDCHAR
STARTCHAR 04C6
ENCODING 1222
SWIDTH 480 0
DWIDTH 8 0
BBX 8 10 0 -2
BITMAP
0F
09
0B
1B
12
32
62
C6
02
04
ENDCHAR
STARTCHAR 04C7
ENCODING 1223
SWIDTH 480 0
DWIDTH 8 0
BBX 8 13 1 -3
BITMAP
21
21
61
63
7E
42
C2
C6
86
84
04
0C
38
ENDCHAR
STARTCHAR 04C8
ENCODING 1224
SWIDTH 480 0
DWIDTH 8 0
BBX 8 11 1 -3
BITMAP
23
62
62
7E
7E
44
C4
84
0C
08
30
ENDCHAR
STARTCHAR 04C9
ENCODING 1225
SWIDTH 480 0
DWIDTH 8 0
BBX 8 13 1 -3
BITMAP
21
21
63
62
7E
42
C6
C4
84
86
04
0C
08
ENDCHAR
STARTCHAR 04CA
ENCODING 1226
SWIDTH 480 0
DWIDTH 8 0
BBX 7 10 1 -2
BITMAP
22
62
66
7E
7C
44
C4
8C
04
08
ENDCHAR
STARTCHAR 04CB
ENCODING 1227
SWIDTH 480 0
DWIDTH 8 0
BBX 7 13 2 -3
BITMAP
42
42
C2
C6
C4
7C
04
0C
0C
18
10
10
30
ENDCHAR
STARTCHAR 04CC
ENCODING 1228
SWIDTH 480 0
DWIDTH 8 0
BBX 7 10 2 -2
BITMAP
C6
84
84
84
FC
08
08
18
10
30
ENDCHAR
STARTCHAR 04CD
ENCODING 1229
SWIDTH 480 0
DWIDTH 8 0
BBX 9 13 0 -3
BITMAP
1980
2980
2B00
2B00
2D00
6D00
4300
4300
4200
C300
0300
0600
0400
ENDCHAR
STARTCHAR 04CE
ENCODING 1230
SWIDTH 480 0
DWIDTH 8 0
BBX 8 10 0 -2
BITMAP
31
33
33
75
57
5B
42
C3
03
06
ENDCHAR
STARTCHAR 04CF
ENCODING 1231
SWIDTH 480 0
DWIDTH 8 0
BBX 8 10 1 0
BITMAP
3F
0C
08
08
18
18
10
10
10
FC
ENDCHAR
STARTCHAR 04D0
ENCODING 1232
SWIDTH 480 0
DWIDTH 8 0
BBX 9 13 0 0
BITMAP
0580
0300
0000
0600
0E00
0A00
1200
1300
2300
3F00
4300
4300
8300
ENDCHAR
STARTCHAR 04D1
ENCODING 1233
SWIDTH 480 0
DWIDTH 8 0
BBX 8 11 1 0
BITMAP
09
0E
00
1F
32
62
46
C6
C4
C4
7C
ENDCHAR
STARTCHAR 04D2
ENCODING 1234
SWIDTH 480 0
DWIDTH 8 0
BBX 9 13 0 0
BITMAP
0D80
0000
0000
0600
0E00
0A00
1200
1300
2300
3F00
4300
4300
8300
ENDCHAR
STARTCHAR 04D3
ENCODING 1235
SWIDTH 480 0
DWIDTH 8 0
BBX 8 11 1 0
BITMAP
0B
0B
00
1F
32
62
46
C6
C4
C4
7C
ENDCHAR
STARTCHAR 04D4
ENCODING 1236
SWIDTH 480 0
DWIDTH 8 0
BBX 10 10 0 0
BITMAP
07C0
0600
0A00
0A00
1700
3400
3C00
6400
4C00
CF00
ENDCHAR
STARTCHAR 04D5
ENCODING 1237
SWIDTH 480 0
DWIDTH 8 0
BBX 8 8 1 0
BITMAP
77
15
19
3B
7C
90
B8
EE
ENDCHAR
STARTCHAR 04D6
ENCODING 1238
SWIDTH 480 0
DWIDTH 8 0
BBX 8 13 1 0
BITMAP
09
06
00
3F
30
20
20
3E
60
40
40
40
FC
ENDCHAR
STARTCHAR 04D7
ENCODING 1239
SWIDTH 480 0
DWIDTH 8 0
BBX 8 11 1 0
BITMAP
13
0E
00
1E
32
42
C6
F8
C0
C0
7C
ENDCHAR
STARTCHAR 04D8
ENCODING 1240
SWIDTH 480 0
DWIDTH 8 0
BBX 8 11 1 0
BITMAP
08
3E
03
01
01
7F
FF
C2
C6
C4
78
ENDCHAR
STARTCHAR 04D9
ENCODING 1241
SWIDTH 480 0
DWIDTH 8 0
BBX 8 8 1 0
BITMAP
3C
06
03
1F
72
42
C6
78
ENDCHAR
STARTCHAR 04DA
ENCODING 1242
SWIDTH 480 0
DWIDTH 8 0
BBX 8 13 1 0
BITMAP
1B
00
08
3E
03
01
01
7F
FF
C2
C6
C4
78
ENDCHAR
STARTCHAR 04DB
ENCODING 1243
SWIDTH 480 0
DWIDTH 8 0
BBX 8 11 1 0
BITMAP
1A
12
00
3C
06
03
1F
72
42
C6
78
ENDCHAR
STARTCHAR 04DC
ENCODING 1244
SWIDTH 480 0
DWIDTH 8 0
BBX 10 13 0 0
BITMAP
0580
0400
0000
12C0
1680
1500
1F00
0E00
1E00
2A00
6B00
4900
9900
ENDCHAR
STARTCHAR 04DD
ENCODING 1245
SWIDTH 480 0
DWIDTH 8 0
BBX 9 11 0 0
BITMAP
0D00
0900
0000
2480
2500
3500
2A00
3E00
2A00
2A00
DB00
ENDCHAR
STARTCHAR 04DE
ENCODING 1246
SWIDTH 480 0
DWIDTH 8 0
BBX 8 13 1 0
BITMAP
1B
00
00
3E
03
03
06
3C
06
02
06
04
F8
ENDCHAR
STARTCHAR 04DF
ENCODING 1247
SWIDTH 480 0
DWIDTH 8 0
BBX 7 11 1 0
BITMAP
1A
12
00
3E
22
02
3E
3C
06
06
FC
ENDCHAR
STARTCHAR 04E0
ENCODING 1248
SWIDTH 480 0
DWIDTH 8 0
BBX 8 10 1 0
BITMAP
3F
02
04
08
1C
06
02
02
04
F8
ENDCHAR
STARTCHAR 04E1
ENCODING 1249
SWIDTH 480 0
DWIDTH 8 0
BBX 7 11 1 -3
BITMAP
3E
02
04
08
30
3C
04
04
0C
98
F0
ENDCHAR
STARTCHAR 04E2
ENCODING 1250
SWIDTH 480 0
DWIDTH 8 0
BBX 8 13 1 0
BITMAP
0F
00
00
21
23
65
4F
4A
52
62
A2
C6
84
ENDCHAR
STARTCHAR 04E3
ENCODING 1251
SWIDTH 480 0
DWIDTH 8 0
BBX 8 11 1 0
BITMAP
1E
00
00
23
62
42
46
46
C4
CC
7C
ENDCHAR
STARTCHAR 04E4
ENCODING 1252
SWIDTH 480 0
DWIDTH 8 0
BBX 8 13 1 0
BITMAP
1B
00
00
21
23
65
4F
4A
52
62
A2
C6
84
ENDCHAR
STARTCHAR 04E5
ENCODING 1253
SWIDTH 480 0
DWIDTH 8 0
BBX 8 11 1 0
BITMAP
12
12
00
23
62
42
46
46
C4
CC
7C
ENDCHAR
STARTCHAR 04E6
ENCODING 1254
SWIDTH 480 0
DWIDTH 8 0
BBX 8 13 1 0
BITMAP
1B
00
04
1E
23
61
41
43
C3
C2
C6
44
78
ENDCHAR
STARTCHAR 04E7
ENCODING 1255
SWIDTH 480 0
DWIDTH 8 0
BBX 8 11 1 0
BITMAP
1B
1A
00
1C
36
62
42
C2
C6
CC
78
ENDCHAR
STARTCHAR 04E8
ENCODING 1256
SWIDTH 480 0
DWIDTH 8 0
BBX 8 11 1 0
BITMAP
04
1E
23
61
41
7F
C3
C2
C6
C4
78
ENDCHAR
STARTCHAR 04E9
ENCODING 1257
SWIDTH 480 0
DWIDTH 8 0
BBX 7 8 1 0
BITMAP
1C
36
62
42
FE
C6
CC
78
ENDCHAR
STARTCHAR 04EA
ENCODING 1258
SWIDTH 480 0
DWIDTH 8 0
BBX 8 13 1 0
BITMAP
0B
08
04
1E
23
61
41
7F
C3
C2
C6
C4
78
ENDCHAR
STARTCHAR 04EB
ENCODING 1259
SWIDTH 480 0
DWIDTH 8 0
BBX 8 11 1 0
BITMAP
1B
1A
00
1C
36
62
42
FE
C6
CC
78
ENDCHAR
STARTCHAR 04EC
ENCODING 1260
SWIDTH 480 0
DWIDTH 8 0
BBX 8 13 1 0
BITMAP
1B
00
08
3E
03
01
01
1F
03
02
06
8C
F8
ENDCHAR
STARTCHAR 04ED
ENCODING 1261
SWIDTH 480 0
DWIDTH 8 0
BBX 7 11 1 0
BITMAP
1A
12
00
3C
06
02
3E
3E
06
0C
F8
ENDCHAR
STARTCHAR 04EE
ENCODING 1262
SWIDTH 480 0
DWIDTH 8 0
BBX 9 13 1 0
BITMAP
0F00
0000
0000
2080
2180
3100
3200
1600
1400
1C00
1800
3000
E000
ENDCHAR
STARTCHAR 04EF
ENCODING 1263
SWIDTH 480 0
DWIDTH 8 0
BBX 9 14 0 -3
BITMAP
0F00
0000
0000
3180
3180
3100
1300
1200
1600
1C00
0C00
1800
3000
E000
ENDCHAR
STARTCHAR 04F0
ENCODING 1264
SWIDTH 480 0
DWIDTH 8 0
BBX 9 13 1 0
BITMAP
0B00
0800
0000
2080
2180
3100
3200
1600
1400
1C00
1800
3000
E000
ENDCHAR
STARTCHAR 04F1
ENCODING 1265
SWIDTH 480 0
DWIDTH 8 0
BBX 9 14 0 -3
BITMAP
0900
0900
0000
3180
3180
3100
1300
1200
1600
1C00
0C00
1800
3000
E000
ENDCHAR
STARTCHAR 04F2
ENCODING 1266
SWIDTH 480 0
DWIDTH 8 0
BBX 9 14 1 0
BITMAP
0080
0580
0A00
0000
2080
2180
3100
3200
1600
1400
1C00
1800
3000
E000
ENDCHAR
STARTCHAR 04F3
ENCODING 1267
SWIDTH 480 0
DWIDTH 8 0
BBX 9 14 0 -2
BITMAP
0680
0D00
0000
3180
3180
3100
1300
1200
1600
1C00
0C00
1800
3000
E000
ENDCHAR
STARTCHAR 04F4
ENCODING 1268
SWIDTH 480 0
DWIDTH 8 0
BBX 7 13 2 0
BITMAP
36
00
00
42
42
C2
C6
C4
7C
04
0C
0C
08
ENDCHAR
STARTCHAR 04F5
ENCODING 1269
SWIDTH 480 0
DWIDTH 8 0
BBX 7 11 2 0
BITMAP
34
24
00
C6
84
84
84
FC
08
08
08
ENDCHAR
STARTCHAR 04F6
ENCODING 1270
SWIDTH 480 0
DWIDTH 8 0
BBX 8 13 1 -3
BITMAP
1F
10
10
30
30
20
20
20
60
F8
10
10
10
ENDCHAR
STARTCHAR 04F7
ENCODING 1271
SWIDTH 480 0
DWIDTH 8 0
BBX 7 10 1 -2
BITMAP
3C
06
02
0C
70
C0
C0
7C
0C
08
ENDCHAR
STARTCHAR 04F8
ENCODING 1272
SWIDTH 480 0
DWIDTH 8 0
BBX 10 13 0 0
BITMAP
0D80
0000
0000
10C0
3080
2080
3880
3D80
6500
4500
4D00
4B00
F300
ENDCHAR
STARTCHAR 04F9
ENCODING 1273
SWIDTH 480 0
DWIDTH 8 0
BBX 8 11 1 0
BITMAP
1A
12
00
61
41
43
F2
DA
8A
9E
F4
ENDCHAR
STARTCHAR 1E80
ENCODING 7808
SWIDTH 480 0
DWIDTH 8 0
BBX 9 13 1 1
BITMAP
0C00
0600
0000
2180
6100
4100
4100
5B00
5A00
EA00
AA00
CC00
CC00
ENDCHAR
STARTCHAR 1E81
ENCODING 7809
SWIDTH 480 0
DWIDTH 8 0
BBX 9 11 1 1
BITMAP
0800
0400
0400
4180
4100
4900
5A00
DA00
EA00
CC00
CC00
ENDCHAR
STARTCHAR 1E82
ENCODING 7810
SWIDTH 480 0
DWIDTH 8 0
BBX 9 13 1 1
BITMAP
0200
0400
0000
2180
6100
4100
4100
5B00
5A00
EA00
AA00
CC00
CC00
ENDCHAR
STARTCHAR 1E83
ENCODING 7811
SWIDTH 480 0
DWIDTH 8 0
BBX 9 11 1 1
BITMAP
0600
0C00
0000
4180
4100
4900
5A00
DA00
EA00
CC00
CC00
ENDCHAR
STARTCHAR 1E84
ENCODING 7812
SWIDTH 480 0
DWIDTH 8 0
BBX 9 13 1 0
BITMAP
0B00
0800
0000
2180
6100
4100
4100
5B00
5A00
EA00
AA00
CC00
CC00
ENDCHAR
STARTCHAR 1E85
ENCODING 7813
SWIDTH 480 0
DWIDTH 8 0
BBX 9 11 1 0
BITMAP
1A00
1200
0000
4180
4100
4900
5A00
DA00
EA00
CC00
CC00
ENDCHAR
STARTCHAR 1EF2
ENCODING 7922
SWIDTH 480 0
DWIDTH 8 0
BBX 7 14 3 0
BITMAP
20
30
18
00
86
84
88
D8
50
60
40
40
40
C0
ENDCHAR
STARTCHAR 1EF3
ENCODING 7923
SWIDTH 480 0
DWIDTH 8 0
BBX 9 14 0 -2
BITMAP
0C00
0600
0000
3180
3180
3100
1300
1200
1600
1C00
0C00
1800
3000
E000
ENDCHAR
STARTCHAR 1F00
ENCODING 7936
SWIDTH 480 0
DWIDTH 8 0
BBX 8 12 1 0
BITMAP
04
06
04
00
1F
32
62
46
C6
C4
C4
7E
ENDCHAR
STARTCHAR 1F01
ENCODING 7937
SWIDTH 480 0
DWIDTH 8 0
BBX 8 12 1 0
BITMAP
04
0C
04
00
1F
32
62
46
C6
C4
C4
7E
ENDCHAR
STARTCHAR 1F02
ENCODING 7938
SWIDTH 480 0
DWIDTH 8 0
BBX 8 12 1 0
BITMAP
0A
0A
1B
00
1F
32
62
46
C6
C4
C4
7E
ENDCHAR
STARTCHAR 1F03
ENCODING 7939
SWIDTH 480 0
DWIDTH 8 0
BBX 8 12 1 0
BITMAP
10
16
12
00
1F
32
62
46
C6
C4
C4
7E
ENDCHAR
STARTCHAR 1F04
ENCODING 7940
SWIDTH 480 0
DWIDTH 8 0
BBX 8 12 1 0
BITMAP
09
0D
0A
00
1F
32
62
46
C6
C4
C4
7E
ENDCHAR
STARTCHAR 1F05
ENCODING 7941
SWIDTH 480 0
DWIDTH 8 0
BBX 8 12 1 0
BITMAP
08
1B
16
00
1F
32
62
46
C6
C4
C4
7E
ENDCHAR
STARTCHAR 1F06
ENCODING 7942
SWIDTH 480 0
DWIDTH 8 0
BBX 8 13 1 0
BITMAP
0E
09
04
04
00
1F
32
62
46
C6
C4
C4
7E
ENDCHAR
STARTCHAR 1F07
ENCODING 7943
SWIDTH 480 0
DWIDTH 8 0
BBX 8 13 1 0
BITMAP
0E
09
04
04
00
1F
32
62
46
C6
C4
C4
7E
ENDCHAR
STARTCHAR 1F08
ENCODING 7944
SWIDTH 480 0
DWIDTH 8 0
BBX 8 11 0 0
BITMAP
10
36
2E
0A
1B
13
23
3F
43
43
83
ENDCHAR
STARTCHAR 1F09
ENCODING 7945
SWIDTH 480 0
DWIDTH 8 0
BBX 8 11 0 0
BITMAP
20
26
2E
0A
1B
13
23
3F
43
43
83
ENDCHAR
STARTCHAR 1F0A
ENCODING 7946
SWIDTH 480 0
DWIDTH 8 0
BBX 9 11 -1 0
BITMAP
5000
D300
9700
0500
0D80
0980
1180
1F80
2180
2180
4180
ENDCHAR
STARTCHAR 1F0B
ENCODING 7947
SWIDTH 480 0
DWIDTH 8 0
BBX 9 11 -1 0
BITMAP
5000
D300
9700
0500
0D80
0980
1180
1F80
2180
2180
4180
ENDCHAR
STARTCHAR 1F0C
ENCODING 7948
SWIDTH 480 0
DWIDTH 8 0
BBX 8 11 0 0
BITMAP
10
D6
AE
0A
1B
13
23
3F
43
43
83
ENDCHAR
STARTCHAR 1F0D
ENCODING 7949
SWIDTH 480 0
DWIDTH 8 0
BBX 8 11 0 0
BITMAP
90
96
AE
0A
1B
13
23
3F
43
43
83
ENDCHAR
STARTCHAR 1F0E
ENCODING 7950
SWIDTH 480 0
DWIDTH 8 0
BBX 8 11 0 1
BITMAP
58
26
2E
4A
1B
13
23
3F
43
43
83
ENDCHAR
STARTCHAR 1F0F
ENCODING 7951
SWIDTH 480 0
DWIDTH 8 0
BBX 8 12 0 0
BITMAP
20
50
26
6E
2A
1B
13
23
3F
43
43
83
ENDCHAR
STARTCHAR 1F10
ENCODING 7952
SWIDTH 480 0
DWIDTH 8 0
BBX 6 12 2 0
BITMAP
04
0C
08
00
3C
60
40
78
F0
80
80
F8
ENDCHAR
STARTCHAR 1F11
ENCODING 7953
SWIDTH 480 0
DWIDTH 8 0
BBX 6 12 2 0
BITMAP
08
08
08
00
3C
60
40
78
F0
80
80
F8
ENDCHAR
STARTCHAR 1F12
ENCODING 7954
SWIDTH 480 0
DWIDTH 8 0
BBX 7 12 2 0
BITMAP
10
14
12
00
3C
60
40
78
F0
80
80
F8
ENDCHAR
STARTCHAR 1F13
ENCODING 7955
SWIDTH 480 0
DWIDTH 8 0
BBX 6 11 2 1
BITMAP
3C
24
00
3C
60
40
78
F0
80
80
F8
ENDCHAR
STARTCHAR 1F14
ENCODING 7956
SWIDTH 480 0
DWIDTH 8 0
BBX 7 12 2 0
BITMAP
08
1A
14
00
3C
60
40
78
F0
80
80
F8
ENDCHAR
STARTCHAR 1F15
ENCODING 7957
SWIDTH 480 0
DWIDTH 8 0
BBX 7 12 2 0
BITMAP
10
36
14
00
3C
60
40
78
F0
80
80
F8
ENDCHAR
STARTCHAR 1F18
ENCODING 7960
SWIDTH 480 0
DWIDTH 8 0
BBX 8 11 1 0
BITMAP
80
BF
A0
20
60
7C
40
40
40
C0
FC
ENDCHAR
STARTCHAR 1F19
ENCODING 7961
SWIDTH 480 0
DWIDTH 8 0
BBX 8 11 1 0
BITMAP
80
BF
A0
20
60
7C
40
40
40
C0
FC
ENDCHAR
STARTCHAR 1F1A
ENCODING 7962
SWIDTH 480 0
DWIDTH 8 0
BBX 11 10 -2 1
BITMAP
F7E0
9400
0400
0C00
0F80
0800
0800
0800
1800
1F80
ENDCHAR
STARTCHAR 1F1B
ENCODING 7963
SWIDTH 480 0
DWIDTH 8 0
BBX 11 10 -2 1
BITMAP
F7E0
9400
0400
0C00
0F80
0800
0800
0800
1800
1F80
ENDCHAR
STARTCHAR 1F1C
ENCODING 7964
SWIDTH 480 0
DWIDTH 8 0
BBX 11 11 -2 0
BITMAP
4000
D7E0
B400
0400
0C00
0F80
0800
0800
0800
1800
1F80
ENDCHAR
STARTCHAR 1F1D
ENCODING 7965
SWIDTH 480 0
DWIDTH 8 0
BBX 11 11 -2 0
BITMAP
8000
97E0
B400
0400
0C00
0F80
0800
0800
0800
1800
1F80
ENDCHAR
STARTCHAR 1F20
ENCODING 7968
SWIDTH 480 0
DWIDTH 8 0
BBX 7 15 1 -3
BITMAP
04
06
04
00
3C
26
62
42
42
46
C4
C4
04
0C
08
ENDCHAR
STARTCHAR 1F21
ENCODING 7969
SWIDTH 480 0
DWIDTH 8 0
BBX 7 15 1 -3
BITMAP
04
0C
04
00
3C
26
62
42
42
46
C4
C4
04
0C
08
ENDCHAR
STARTCHAR 1F22
ENCODING 7970
SWIDTH 480 0
DWIDTH 8 0
BBX 8 15 1 -3
BITMAP
0A
0A
1B
00
3C
26
62
42
42
46
C4
C4
04
0C
08
ENDCHAR
STARTCHAR 1F23
ENCODING 7971
SWIDTH 480 0
DWIDTH 8 0
BBX 7 15 1 -3
BITMAP
10
16
12
00
3C
26
62
42
42
46
C4
C4
04
0C
08
ENDCHAR
STARTCHAR 1F24
ENCODING 7972
SWIDTH 480 0
DWIDTH 8 0
BBX 8 15 1 -3
BITMAP
09
0D
0A
00
3C
26
62
42
42
46
C4
C4
04
0C
08
ENDCHAR
STARTCHAR 1F25
ENCODING 7973
SWIDTH 480 0
DWIDTH 8 0
BBX 8 14 1 -2
BITMAP
1B
16
00
3C
26
62
42
42
46
C4
C4
04
0C
08
ENDCHAR
STARTCHAR 1F26
ENCODING 7974
SWIDTH 480 0
DWIDTH 8 0
BBX 8 16 1 -3
BITMAP
0E
09
04
04
00
3C
26
62
42
42
46
C4
C4
04
0C
08
ENDCHAR
STARTCHAR 1F27
ENCODING 7975
SWIDTH 480 0
DWIDTH 8 0
BBX 8 16 1 -3
BITMAP
0E
09
04
04
00
3C
26
62
42
42
46
C4
C4
04
0C
08
ENDCHAR
STARTCHAR 1F28
ENCODING 7976
SWIDTH 480 0
DWIDTH 8 0
BBX 9 11 0 0
BITMAP
4000
5080
D080
3080
3180
3F00
2100
6100
6300
4300
4200
ENDCHAR
STARTCHAR 1F29
ENCODING 7977
SWIDTH 480 0
DWIDTH 8 0
BBX 9 11 0 0
BITMAP
4000
D080
9080
3080
3180
3F00
2100
6100
6300
4300
4200
ENDCHAR
STARTCHAR 1F2A
ENCODING 7978
SWIDTH 480 0
DWIDTH 8 0
BBX 11 11 -2 0
BITMAP
8000
A420
9420
0C20
0C60
0FC0
0840
1840
18C0
10C0
1080
ENDCHAR
STARTCHAR 1F2B
ENCODING 7979
SWIDTH 480 0
DWIDTH 8 0
BBX 11 11 -2 0
BITMAP
8000
A420
9420
0C20
0C60
0FC0
0840
1840
18C0
10C0
1080
ENDCHAR
STARTCHAR 1F2C
ENCODING 7980
SWIDTH 480 0
DWIDTH 8 0
BBX 11 11 -2 0
BITMAP
1000
D420
A420
0C20
0C60
0FC0
0840
1840
18C0
10C0
1080
ENDCHAR
STARTCHAR 1F2D
ENCODING 7981
SWIDTH 480 0
DWIDTH 8 0
BBX 11 11 -2 0
BITMAP
9000
9420
A420
0C20
0C60
0FC0
0840
1840
18C0
10C0
1080
ENDCHAR
STARTCHAR 1F2E
ENCODING 7982
SWIDTH 480 0
DWIDTH 8 0
BBX 10 12 -1 0
BITMAP
4000
A000
4840
4840
9840
18C0
1F80
1080
3080
3180
2180
2100
ENDCHAR
STARTCHAR 1F2F
ENCODING 7983
SWIDTH 480 0
DWIDTH 8 0
BBX 10 12 -1 0
BITMAP
4000
A000
4840
C840
5840
18C0
1F80
1080
3080
3180
2180
2100
ENDCHAR
STARTCHAR 1F30
ENCODING 7984
SWIDTH 480 0
DWIDTH 8 0
BBX 5 12 2 0
BITMAP
10
18
10
00
F0
30
30
20
20
20
20
38
ENDCHAR
STARTCHAR 1F31
ENCODING 7985
SWIDTH 480 0
DWIDTH 8 0
BBX 5 12 2 0
BITMAP
10
30
10
00
F0
30
30
20
20
20
20
38
ENDCHAR
STARTCHAR 1F32
ENCODING 7986
SWIDTH 480 0
DWIDTH 8 0
BBX 5 12 2 0
BITMAP
28
28
48
00
F0
30
30
20
20
20
20
38
ENDCHAR
STARTCHAR 1F33
ENCODING 7987
SWIDTH 480 0
DWIDTH 8 0
BBX 5 12 2 0
BITMAP
40
50
48
00
F0
30
30
20
20
20
20
38
ENDCHAR
STARTCHAR 1F34
ENCODING 7988
SWIDTH 480 0
DWIDTH 8 0
BBX 6 12 2 0
BITMAP
24
34
28
00
F0
30
30
20
20
20
20
38
ENDCHAR
STARTCHAR 1F35
ENCODING 7989
SWIDTH 480 0
DWIDTH 8 0
BBX 6 12 2 0
BITMAP
40
6C
58
00
F0
30
30
20
20
20
20
38
ENDCHAR
STARTCHAR 1F36
ENCODING 7990
SWIDTH 480 0
DWIDTH 8 0
BBX 6 13 2 0
BITMAP
38
24
10
10
00
F0
30
30
20
20
20
20
38
ENDCHAR
STARTCHAR 1F37
ENCODING 7991
SWIDTH 480 0
DWIDTH 8 0
BBX 6 13 2 0
BITMAP
38
24
10
10
00
F0
30
30
20
20
20
20
38
ENDCHAR
STARTCHAR 1F38
ENCODING 7992
SWIDTH 480 0
DWIDTH 8 0
BBX 8 10 1 1
BITMAP
FF
8C
08
08
18
18
10
10
10
FC
ENDCHAR
STARTCHAR 1F39
ENCODING 7993
SWIDTH 480 0
DWIDTH 8 0
BBX 8 11 1 0
BITMAP
80
BF
8C
08
08
18
18
10
10
10
FC
ENDCHAR
STARTCHAR 1F3A
ENCODING 7994
SWIDTH 480 0
DWIDTH 8 0
BBX 11 11 -2 0
BITMAP
5000
D7E0
9180
0100
0100
0300
0300
0200
0200
0200
1F80
ENDCHAR
STARTCHAR 1F3B
ENCODING 7995
SWIDTH 480 0
DWIDTH 8 0
BBX 11 11 -2 0
BITMAP
5000
D7E0
5180
0100
0100
0300
0300
0200
0200
0200
1F80
ENDCHAR
STARTCHAR 1F3C
ENCODING 7996
SWIDTH 480 0
DWIDTH 8 0
BBX 11 11 -2 0
BITMAP
4000
5FE0
7180
8100
0100
0300
0300
0200
0200
0200
1F80
ENDCHAR
STARTCHAR 1F3D
ENCODING 7997
SWIDTH 480 0
DWIDTH 8 0
BBX 11 10 -2 1
BITMAP
DFE0
B180
0100
0100
0300
0300
0200
0200
0200
1F80
ENDCHAR
STARTCHAR 1F3E
ENCODING 7998
SWIDTH 480 0
DWIDTH 8 0
BBX 10 12 -1 0
BITMAP
2000
D000
0FC0
6300
C200
0200
0600
0600
0400
0400
0400
3F00
ENDCHAR
STARTCHAR 1F3F
ENCODING 7999
SWIDTH 480 0
DWIDTH 8 0
BBX 10 12 -1 0
BITMAP
2000
D000
4FC0
4300
2200
0200
0600
0600
0400
0400
0400
3F00
ENDCHAR
STARTCHAR 1F40
ENCODING 8000
SWIDTH 480 0
DWIDTH 8 0
BBX 7 12 1 0
BITMAP
04
06
04
00
1C
36
62
42
C2
C6
CC
78
ENDCHAR
STARTCHAR 1F41
ENCODING 8001
SWIDTH 480 0
DWIDTH 8 0
BBX 7 12 1 0
BITMAP
04
0C
04
00
1C
36
62
42
C2
C6
CC
78
ENDCHAR
STARTCHAR 1F42
ENCODING 8002
SWIDTH 480 0
DWIDTH 8 0
BBX 8 12 1 0
BITMAP
0A
0A
13
00
1C
36
62
42
C2
C6
CC
78
ENDCHAR
STARTCHAR 1F43
ENCODING 8003
SWIDTH 480 0
DWIDTH 8 0
BBX 7 12 1 0
BITMAP
10
16
12
00
1C
36
62
42
C2
C6
CC
78
ENDCHAR
STARTCHAR 1F44
ENCODING 8004
SWIDTH 480 0
DWIDTH 8 0
BBX 8 12 1 0
BITMAP
09
0D
0A
00
1C
36
62
42
C2
C6
CC
78
ENDCHAR
STARTCHAR 1F45
ENCODING 8005
SWIDTH 480 0
DWIDTH 8 0
BBX 8 11 1 1
BITMAP
1B
16
00
1C
36
62
42
C2
C6
CC
78
ENDCHAR
STARTCHAR 1F48
ENCODING 8008
SWIDTH 480 0
DWIDTH 8 0
BBX 8 11 1 0
BITMAP
84
DE
A3
63
43
43
C2
C2
C6
CC
78
ENDCHAR
STARTCHAR 1F49
ENCODING 8009
SWIDTH 480 0
DWIDTH 8 0
BBX 9 11 0 0
BITMAP
0200
CF00
9180
3180
2180
2180
6100
6100
6300
6600
3C00
ENDCHAR
STARTCHAR 1F4A
ENCODING 8010
SWIDTH 480 0
DWIDTH 8 0
BBX 11 11 -2 0
BITMAP
8080
A3C0
9460
0C60
0860
0860
1840
1840
18C0
1980
0F00
ENDCHAR
STARTCHAR 1F4B
ENCODING 8011
SWIDTH 480 0
DWIDTH 8 0
BBX 11 11 -2 0
BITMAP
8080
A3C0
9460
0C60
0860
0860
1840
1840
18C0
1980
0F00
ENDCHAR
STARTCHAR 1F4C
ENCODING 8012
SWIDTH 480 0
DWIDTH 8 0
BBX 11 11 -2 0
BITMAP
4080
5BC0
7460
8C60
0860
0860
1840
1840
18C0
1980
0F00
ENDCHAR
STARTCHAR 1F4D
ENCODING 8013
SWIDTH 480 0
DWIDTH 8 0
BBX 11 11 -2 0
BITMAP
0080
DBC0
B460
0C60
0860
0860
1840
1840
18C0
1980
0F00
ENDCHAR
STARTCHAR 1F50
ENCODING 8016
SWIDTH 480 0
DWIDTH 8 0
BBX 8 12 1 0
BITMAP
04
04
04
08
23
62
42
46
46
C4
4C
78
ENDCHAR
STARTCHAR 1F51
ENCODING 8017
SWIDTH 480 0
DWIDTH 8 0
BBX 8 12 1 0
BITMAP
04
0C
08
00
23
62
42
46
46
C4
4C
78
ENDCHAR
STARTCHAR 1F52
ENCODING 8018
SWIDTH 480 0
DWIDTH 8 0
BBX 8 12 1 0
BITMAP
0A
1A
12
00
23
62
42
46
46
C4
4C
78
ENDCHAR
STARTCHAR 1F53
ENCODING 8019
SWIDTH 480 0
DWIDTH 8 0
BBX 8 12 1 0
BITMAP
10
14
12
00
23
62
42
46
46
C4
4C
78
ENDCHAR
STARTCHAR 1F54
ENCODING 8020
SWIDTH 480 0
DWIDTH 8 0
BBX 8 12 1 0
BITMAP
08
0B
0A
00
23
62
42
46
46
C4
4C
78
ENDCHAR
STARTCHAR 1F55
ENCODING 8021
SWIDTH 480 0
DWIDTH 8 0
BBX 8 12 1 0
BITMAP
10
12
14
00
23
62
42
46
46
C4
4C
78
ENDCHAR
STARTCHAR 1F56
ENCODING 8022
SWIDTH 480 0
DWIDTH 8 0
BBX 8 13 1 0
BITMAP
0E
08
04
0C
00
23
62
42
46
46
C4
4C
78
ENDCHAR
STARTCHAR 1F57
ENCODING 8023
SWIDTH 480 0
DWIDTH 8 0
BBX 8 13 1 0
BITMAP
0E
08
04
04
00
23
62
42
46
46
C4
4C
78
ENDCHAR
STARTCHAR 1F59
ENCODING 8025
SWIDTH 480 0
DWIDTH 8 0
BBX 10 10 0 1
BITMAP
D0C0
9080
1100
1B00
0A00
0C00
0800
0800
0800
1800
ENDCHAR
STARTCHAR 1F5B
ENCODING 8027
SWIDTH 480 0
DWIDTH 8 0
BBX 12 11 -2 0
BITMAP
8000
B430
9420
0440
06C0
0280
0300
0200
0200
0200
0600
ENDCHAR
STARTCHAR 1F5D
ENCODING 8029
SWIDTH 480 0
DWIDTH 8 0
BBX 13 11 -3 0
BITMAP
4000
DA18
9210
0220
0360
0140
0180
0100
0100
0100
0300
ENDCHAR
STARTCHAR 1F5F
ENCODING 8031
SWIDTH 480 0
DWIDTH 8 0
BBX 12 12 -2 0
BITMAP
2000
D000
4430
4420
4440
06C0
0280
0300
0200
0200
0200
0600
ENDCHAR
STARTCHAR 1F60
ENCODING 8032
SWIDTH 480 0
DWIDTH 8 0
BBX 7 12 1 0
BITMAP
04
04
04
08
22
62
42
92
92
92
B6
FC
ENDCHAR
STARTCHAR 1F61
ENCODING 8033
SWIDTH 480 0
DWIDTH 8 0
BBX 7 12 1 0
BITMAP
04
0C
08
00
22
62
42
92
92
92
B6
FC
ENDCHAR
STARTCHAR 1F62
ENCODING 8034
SWIDTH 480 0
DWIDTH 8 0
BBX 7 12 1 0
BITMAP
08
1A
12
00
22
62
42
92
92
92
B6
FC
ENDCHAR
STARTCHAR 1F63
ENCODING 8035
SWIDTH 480 0
DWIDTH 8 0
BBX 7 12 1 0
BITMAP
14
14
16
00
22
62
42
92
92
92
B6
FC
ENDCHAR
STARTCHAR 1F64
ENCODING 8036
SWIDTH 480 0
DWIDTH 8 0
BBX 8 12 1 0
BITMAP
08
0B
0A
00
22
62
42
92
92
92
B6
FC
ENDCHAR
STARTCHAR 1F65
ENCODING 8037
SWIDTH 480 0
DWIDTH 8 0
BBX 7 12 1 0
BITMAP
10
12
14
00
22
62
42
92
92
92
B6
FC
ENDCHAR
STARTCHAR 1F66
ENCODING 8038
SWIDTH 480 0
DWIDTH 8 0
BBX 7 13 1 0
BITMAP
0E
00
04
0C
00
22
62
42
92
92
92
B6
FC
ENDCHAR
STARTCHAR 1F67
ENCODING 8039
SWIDTH 480 0
DWIDTH 8 0
BBX 7 13 1 0
BITMAP
0E
00
0C
04
00
22
62
42
92
92
92
B6
FC
ENDCHAR
STARTCHAR 1F68
ENCODING 8040
SWIDTH 480 0
DWIDTH 8 0
BBX 9 11 0 0
BITMAP
4200
4F00
5180
B080
2080
6180
6100
6100
6200
2600
EF00
ENDCHAR
STARTCHAR 1F69
ENCODING 8041
SWIDTH 480 0
DWIDTH 8 0
BBX 9 11 0 0
BITMAP
0200
CF00
9180
3080
2080
6180
6100
6100
6200
2600
EF00
ENDCHAR
STARTCHAR 1F6A
ENCODING 8042
SWIDTH 480 0
DWIDTH 8 0
BBX 12 11 -3 0
BITMAP
4040
51E0
5A30
8610
0410
0C30
0C20
0C20
0C40
04C0
1DE0
ENDCHAR
STARTCHAR 1F6B
ENCODING 8043
SWIDTH 480 0
DWIDTH 8 0
BBX 11 11 -2 0
BITMAP
8080
A3C0
B460
0C20
0820
1860
1840
1840
1880
0980
3BC0
ENDCHAR
STARTCHAR 1F6C
ENCODING 8044
SWIDTH 480 0
DWIDTH 8 0
BBX 11 11 -2 0
BITMAP
4080
5BC0
B460
0C20
0820
1860
1840
1840
1880
0980
3BC0
ENDCHAR
STARTCHAR 1F6D
ENCODING 8045
SWIDTH 480 0
DWIDTH 8 0
BBX 11 11 -2 0
BITMAP
0080
DBC0
B460
0C20
0820
1860
1840
1840
1880
0980
3BC0
ENDCHAR
STARTCHAR 1F6E
ENCODING 8046
SWIDTH 480 0
DWIDTH 8 0
BBX 10 12 -1 0
BITMAP
2000
D100
2780
68C0
5840
1040
30C0
3080
3080
3100
1300
7780
ENDCHAR
STARTCHAR 1F6F
ENCODING 8047
SWIDTH 480 0
DWIDTH 8 0
BBX 10 12 -1 0
BITMAP
2000
D100
4780
48C0
5840
1040
30C0
3080
3080
3100
1300
7780
ENDCHAR
STARTCHAR 1F70
ENCODING 8048
SWIDTH 480 0
DWIDTH 8 0
BBX 8 11 1 1
BITMAP
18
04
00
1F
32
62
46
C6
C4
C4
7E
ENDCHAR
STARTCHAR 1F71
ENCODING 8049
SWIDTH 480 0
DWIDTH 8 0
BBX 8 12 1 0
BITMAP
02
06
0C
00
1F
32
62
46
C6
C4
C4
7E
ENDCHAR
STARTCHAR 1F72
ENCODING 8050
SWIDTH 480 0
DWIDTH 8 0
BBX 6 12 2 0
BITMAP
10
18
08
00
3C
60
40
78
F0
80
80
F8
ENDCHAR
STARTCHAR 1F73
ENCODING 8051
SWIDTH 480 0
DWIDTH 8 0
BBX 6 12 2 0
BITMAP
04
0C
18
00
3C
60
40
78
F0
80
80
F8
ENDCHAR
STARTCHAR 1F74
ENCODING 8052
SWIDTH 480 0
DWIDTH 8 0
BBX 7 14 1 -2
BITMAP
18
04
00
3C
26
62
42
42
46
C4
C4
04
0C
08
ENDCHAR
STARTCHAR 1F75
ENCODING 8053
SWIDTH 480 0
DWIDTH 8 0
BBX 7 15 1 -3
BITMAP
02
06
0C
00
3C
26
62
42
42
46
C4
C4
04
0C
08
ENDCHAR
STARTCHAR 1F76
ENCODING 8054
SWIDTH 480 0
DWIDTH 8 0
BBX 5 11 2 1
BITMAP
20
10
00
F0
30
30
20
20
20
20
38
ENDCHAR
STARTCHAR 1F77
ENCODING 8055
SWIDTH 480 0
DWIDTH 8 0
BBX 5 12 2 0
BITMAP
08
18
30
00
F0
30
30
20
20
20
20
38
ENDCHAR
STARTCHAR 1F78
ENCODING 8056
SWIDTH 480 0
DWIDTH 8 0
BBX 7 11 1 1
BITMAP
18
04
00
1C
36
62
42
C2
C6
CC
78
ENDCHAR
STARTCHAR 1F79
ENCODING 8057
SWIDTH 480 0
DWIDTH 8 0
BBX 7 12 1 0
BITMAP
02
06
0C
00
1C
36
62
42
C2
C6
CC
78
ENDCHAR
STARTCHAR 1F7A
ENCODING 8058
SWIDTH 480 0
DWIDTH 8 0
BBX 8 11 1 1
BITMAP
18
0C
00
23
62
42
46
46
C4
4C
78
ENDCHAR
STARTCHAR 1F7B
ENCODING 8059
SWIDTH 480 0
DWIDTH 8 0
BBX 8 11 1 1
BITMAP
06
08
00
23
62
42
46
46
C4
4C
78
ENDCHAR
STARTCHAR 1F7C
ENCODING 8060
SWIDTH 480 0
DWIDTH 8 0
BBX 7 11 1 1
BITMAP
18
0C
00
22
62
42
92
92
92
B6
FC
ENDCHAR
STARTCHAR 1F7D
ENCODING 8061
SWIDTH 480 0
DWIDTH 8 0
BBX 7 11 1 1
BITMAP
06
0C
00
22
62
42
92
92
92
B6
FC
ENDCHAR
STARTCHAR 1F80
ENCODING 8064
SWIDTH 480 0
DWIDTH 8 0
BBX 8 15 1 -3
BITMAP
04
06
04
00
1F
32
62
46
C6
C4
C4
7E
00
20
10
ENDCHAR
STARTCHAR 1F81
ENCODING 8065
SWIDTH 480 0
DWIDTH 8 0
BBX 8 15 1 -3
BITMAP
04
0C
04
00
1F
32
62
46
C6
C4
C4
7E
00
20
10
ENDCHAR
STARTCHAR 1F82
ENCODING 8066
SWIDTH 480 0
DWIDTH 8 0
BBX 8 15 1 -3
BITMAP
0A
0A
1B
00
1F
32
62
46
C6
C4
C4
7E
00
20
10
ENDCHAR
STARTCHAR 1F83
ENCODING 8067
SWIDTH 480 0
DWIDTH 8 0
BBX 8 15 1 -3
BITMAP
10
16
12
00
1F
32
62
46
C6
C4
C4
7E
00
20
10
ENDCHAR
STARTCHAR 1F84
ENCODING 8068
SWIDTH 480 0
DWIDTH 8 0
BBX 8 15 1 -3
BITMAP
09
0D
0A
00
1F
32
62
46
C6
C4
C4
7E
00
20
10
ENDCHAR
STARTCHAR 1F85
ENCODING 8069
SWIDTH 480 0
DWIDTH 8 0
BBX 8 15 1 -3
BITMAP
08
1B
16
00
1F
32
62
46
C6
C4
C4
7E
00
20
10
ENDCHAR
STARTCHAR 1F86
ENCODING 8070
SWIDTH 480 0
DWIDTH 8 0
BBX 8 16 1 -3
BITMAP
0E
09
04
04
00
1F
32
62
46
C6
C4
C4
7E
00
20
10
ENDCHAR
STARTCHAR 1F87
ENCODING 8071
SWIDTH 480 0
DWIDTH 8 0
BBX 8 16 1 -3
BITMAP
0E
09
04
04
00
1F
32
62
46
C6
C4
C4
7E
00
20
10
ENDCHAR
STARTCHAR 1F88
ENCODING 8072
SWIDTH 480 0
DWIDTH 8 0
BBX 9 11 0 0
BITMAP
4000
7800
5800
1880
2980
2900
2900
7900
4B00
CB00
8900
ENDCHAR
STARTCHAR 1F89
ENCODING 8073
SWIDTH 480 0
DWIDTH 8 0
BBX 9 11 0 0
BITMAP
4000
D800
9800
1880
2980
2900
2900
7900
4B00
CB00
8900
ENDCHAR
STARTCHAR 1F8A
ENCODING 8074
SWIDTH 480 0
DWIDTH 8 0
BBX 11 11 -2 0
BITMAP
8000
A600
9600
0620
0A60
0A40
0A40
1E40
12C0
32C0
2240
ENDCHAR
STARTCHAR 1F8B
ENCODING 8075
SWIDTH 480 0
DWIDTH 8 0
BBX 11 11 -2 0
BITMAP
8000
A600
9600
0620
0A60
0A40
0A40
1E40
12C0
32C0
2240
ENDCHAR
STARTCHAR 1F8C
ENCODING 8076
SWIDTH 480 0
DWIDTH 8 0
BBX 11 11 -2 0
BITMAP
4000
5E00
F600
0620
0A60
0A40
0A40
1E40
12C0
32C0
2240
ENDCHAR
STARTCHAR 1F8D
ENCODING 8077
SWIDTH 480 0
DWIDTH 8 0
BBX 11 10 -2 1
BITMAP
DE00
B600
0620
0A60
0A40
0A40
1E40
12C0
32C0
2240
ENDCHAR
STARTCHAR 1F8E
ENCODING 8078
SWIDTH 480 0
DWIDTH 8 0
BBX 9 12 0 0
BITMAP
4000
A000
5800
D800
9880
2980
2900
2900
7900
4B00
CB00
8900
ENDCHAR
STARTCHAR 1F8F
ENCODING 8079
SWIDTH 480 0
DWIDTH 8 0
BBX 10 12 -1 0
BITMAP
2000
D000
2C00
4C00
2C40
14C0
1480
1480
3C80
2580
6580
4480
ENDCHAR
STARTCHAR 1F90
ENCODING 8080
SWIDTH 480 0
DWIDTH 8 0
BBX 7 15 1 -3
BITMAP
04
06
04
00
3C
26
62
42
42
46
C4
C4
04
8C
C8
ENDCHAR
STARTCHAR 1F91
ENCODING 8081
SWIDTH 480 0
DWIDTH 8 0
BBX 7 15 1 -3
BITMAP
04
0C
04
00
3C
26
62
42
42
46
C4
C4
04
8C
C8
ENDCHAR
STARTCHAR 1F92
ENCODING 8082
SWIDTH 480 0
DWIDTH 8 0
BBX 8 15 1 -3
BITMAP
0A
0A
1B
00
3C
26
62
42
42
46
C4
C4
04
8C
C8
ENDCHAR
STARTCHAR 1F93
ENCODING 8083
SWIDTH 480 0
DWIDTH 8 0
BBX 7 15 1 -3
BITMAP
10
16
12
00
3C
26
62
42
42
46
C4
C4
04
8C
C8
ENDCHAR
STARTCHAR 1F94
ENCODING 8084
SWIDTH 480 0
DWIDTH 8 0
BBX 8 15 1 -3
BITMAP
09
0D
0A
00
3C
26
62
42
42
46
C4
C4
04
8C
C8
ENDCHAR
STARTCHAR 1F95
ENCODING 8085
SWIDTH 480 0
DWIDTH 8 0
BBX 8 14 1 -2
BITMAP
1B
16
00
3C
26
62
42
42
46
C4
C4
04
8C
C8
ENDCHAR
STARTCHAR 1F96
ENCODING 8086
SWIDTH 480 0
DWIDTH 8 0
BBX 8 16 1 -3
BITMAP
0E
09
04
04
00
3C
26
62
42
42
46
C4
C4
04
8C
C8
ENDCHAR
STARTCHAR 1F97
ENCODING 8087
SWIDTH 480 0
DWIDTH 8 0
BBX 8 16 1 -3
BITMAP
0E
09
04
04
00
3C
26
62
42
42
46
C4
C4
04
8C
C8
ENDCHAR
STARTCHAR 1F98
ENCODING 8088
SWIDTH 480 0
DWIDTH 8 0
BBX 9 11 0 0
BITMAP
4000
5200
F200
2680
2580
3D00
6500
4D00
4B00
4B00
C900
ENDCHAR
STARTCHAR 1F99
ENCODING 8089
SWIDTH 480 0
DWIDTH 8 0
BBX 9 11 0 0
BITMAP
4000
D200
B200
2680
2580
3D00
6500
4D00
4B00
4B00
C900
ENDCHAR
STARTCHAR 1F9A
ENCODING 8090
SWIDTH 480 0
DWIDTH 8 0
BBX 11 11 -2 0
BITMAP
8000
A480
9C80
09A0
0960
0F40
1940
1340
12C0
12C0
3240
ENDCHAR
STARTCHAR 1F9B
ENCODING 8091
SWIDTH 480 0
DWIDTH 8 0
BBX 11 11 -2 0
BITMAP
8000
A480
9C80
09A0
0960
0F40
1940
1340
12C0
12C0
3240
ENDCHAR
STARTCHAR 1F9C
ENCODING 8092
SWIDTH 480 0
DWIDTH 8 0
BBX 11 11 -2 0
BITMAP
1000
D480
AC80
09A0
0960
0F40
1940
1340
12C0
12C0
3240
ENDCHAR
STARTCHAR 1F9D
ENCODING 8093
SWIDTH 480 0
DWIDTH 8 0
BBX 11 11 -2 0
BITMAP
9000
9480
AC80
09A0
0960
0F40
1940
1340
12C0
12C0
3240
ENDCHAR
STARTCHAR 1F9E
ENCODING 8094
SWIDTH 480 0
DWIDTH 8 0
BBX 10 12 -1 0
BITMAP
4000
A000
4900
5900
9340
12C0
1E80
3280
2680
2580
2580
6480
ENDCHAR
STARTCHAR 1F9F
ENCODING 8095
SWIDTH 480 0
DWIDTH 8 0
BBX 10 12 -1 0
BITMAP
4000
A000
4900
D900
5340
12C0
1E80
3280
2680
2580
2580
6480
ENDCHAR
STARTCHAR 1FA0
ENCODING 8096
SWIDTH 480 0
DWIDTH 8 0
BBX 7 15 1 -3
BITMAP
04
04
04
08
22
62
42
92
92
92
B6
FC
00
20
30
ENDCHAR
STARTCHAR 1FA1
ENCODING 8097
SWIDTH 480 0
DWIDTH 8 0
BBX 7 15 1 -3
BITMAP
04
0C
08
00
22
62
42
92
92
92
B6
FC
00
20
30
ENDCHAR
STARTCHAR 1FA2
ENCODING 8098
SWIDTH 480 0
DWIDTH 8 0
BBX 7 15 1 -3
BITMAP
08
1A
12
00
22
62
42
92
92
92
B6
FC
00
20
30
ENDCHAR
STARTCHAR 1FA3
ENCODING 8099
SWIDTH 480 0
DWIDTH 8 0
BBX 7 15 1 -3
BITMAP
14
14
16
00
22
62
42
92
92
92
B6
FC
00
20
30
ENDCHAR
STARTCHAR 1FA4
ENCODING 8100
SWIDTH 480 0
DWIDTH 8 0
BBX 8 15 1 -3
BITMAP
08
0B
0A
00
22
62
42
92
92
92
B6
FC
00
20
30
ENDCHAR
STARTCHAR 1FA5
ENCODING 8101
SWIDTH 480 0
DWIDTH 8 0
BBX 7 15 1 -3
BITMAP
10
12
14
00
22
62
42
92
92
92
B6
FC
00
20
30
ENDCHAR
STARTCHAR 1FA6
ENCODING 8102
SWIDTH 480 0
DWIDTH 8 0
BBX 7 16 1 -3
BITMAP
0E
00
04
0C
00
22
62
42
92
92
92
B6
FC
00
20
30
ENDCHAR
STARTCHAR 1FA7
ENCODING 8103
SWIDTH 480 0
DWIDTH 8 0
BBX 7 16 1 -3
BITMAP
0E
00
0C
04
00
22
62
42
92
92
92
B6
FC
00
20
30
ENDCHAR
STARTCHAR 1FA8
ENCODING 8104
SWIDTH 480 0
DWIDTH 8 0
BBX 9 11 0 0
BITMAP
0800
DC00
A400
2480
6580
4500
4500
4900
4B00
5300
D900
ENDCHAR
STARTCHAR 1FA9
ENCODING 8105
SWIDTH 480 0
DWIDTH 8 0
BBX 10 11 -1 0
BITMAP
4400
CE00
5200
1240
32C0
2280
2280
2480
2580
2980
6C80
ENDCHAR
STARTCHAR 1FAA
ENCODING 8106
SWIDTH 480 0
DWIDTH 8 0
BBX 12 11 -3 0
BITMAP
0100
F380
9480
0490
0CB0
08A0
08A0
0920
0960
0A60
1B20
ENDCHAR
STARTCHAR 1FAB
ENCODING 8107
SWIDTH 480 0
DWIDTH 8 0
BBX 12 11 -3 0
BITMAP
0100
F380
9480
0490
0CB0
08A0
08A0
0920
0960
0A60
1B20
ENDCHAR
STARTCHAR 1FAC
ENCODING 8108
SWIDTH 480 0
DWIDTH 8 0
BBX 11 11 -2 0
BITMAP
8200
F700
A900
0920
1960
1140
1140
1240
12C0
14C0
3640
ENDCHAR
STARTCHAR 1FAD
ENCODING 8109
SWIDTH 480 0
DWIDTH 8 0
BBX 12 11 -3 0
BITMAP
4100
DB80
5480
0490
0CB0
08A0
08A0
0920
0960
0A60
1B20
ENDCHAR
STARTCHAR 1FAE
ENCODING 8110
SWIDTH 480 0
DWIDTH 8 0
BBX 10 12 -1 0
BITMAP
4000
A400
4E00
5200
9240
32C0
2280
2280
2480
2580
2980
6C80
ENDCHAR
STARTCHAR 1FAF
ENCODING 8111
SWIDTH 480 0
DWIDTH 8 0
BBX 10 12 -1 0
BITMAP
4000
A400
4E00
5200
5240
32C0
2280
2280
2480
2580
2980
6C80
ENDCHAR
STARTCHAR 1FB0
ENCODING 8112
SWIDTH 480 0
DWIDTH 8 0
BBX 8 11 1 0
BITMAP
0B
0E
00
1F
32
62
46
C6
C4
C4
7E
ENDCHAR
STARTCHAR 1FB1
ENCODING 8113
SWIDTH 480 0
DWIDTH 8 0
BBX 8 11 1 0
BITMAP
1F
00
00
1F
32
62
46
C6
C4
C4
7E
ENDCHAR
STARTCHAR 1FB2
ENCODING 8114
SWIDTH 480 0
DWIDTH 8 0
BBX 8 14 1 -2
BITMAP
18
04
00
1F
32
62
46
C6
C4
C4
7E
00
20
10
ENDCHAR
STARTCHAR 1FB3
ENCODING 8115
SWIDTH 480 0
DWIDTH 8 0
BBX 8 11 1 -3
BITMAP
1F
32
62
46
C6
C4
C4
7E
00
20
10
ENDCHAR
STARTCHAR 1FB4
ENCODING 8116
SWIDTH 480 0
DWIDTH 8 0
BBX 8 15 1 -3
BITMAP
02
06
0C
00
1F
32
62
46
C6
C4
C4
7E
00
20
10
ENDCHAR
STARTCHAR 1FB6
ENCODING 8118
SWIDTH 480 0
DWIDTH 8 0
BBX 8 11 1 0
BITMAP
0E
12
00
1F
32
62
46
C6
C4
C4
7E
ENDCHAR
STARTCHAR 1FB7
ENCODING 8119
SWIDTH 480 0
DWIDTH 8 0
BBX 8 14 1 -3
BITMAP
0E
12
00
1F
32
62
46
C6
C4
C4
7E
00
20
10
ENDCHAR
STARTCHAR 1FB8
ENCODING 8120
SWIDTH 480 0
DWIDTH 8 0
BBX 9 13 0 0
BITMAP
0580
0200
0000
0600
0E00
0A00
1200
1300
2300
3F00
4300
4300
8300
ENDCHAR
STARTCHAR 1FB9
ENCODING 8121
SWIDTH 480 0
DWIDTH 8 0
BBX 9 13 0 0
BITMAP
0780
0000
0000
0600
0E00
0A00
1200
1300
2300
3F00
4300
4300
8300
ENDCHAR
STARTCHAR 1FBA
ENCODING 8122
SWIDTH 480 0
DWIDTH 8 0
BBX 8 10 0 1
BITMAP
C6
2E
0A
1B
13
23
3F
43
43
83
ENDCHAR
STARTCHAR 1FBB
ENCODING 8123
SWIDTH 480 0
DWIDTH 8 0
BBX 8 10 0 1
BITMAP
36
6E
0B
1B
13
23
3F
41
41
C1
ENDCHAR
STARTCHAR 1FBC
ENCODING 8124
SWIDTH 480 0
DWIDTH 8 0
BBX 9 10 0 0
BITMAP
1800
1800
1880
2980
2900
2900
7900
4B00
CB00
8900
ENDCHAR
STARTCHAR 1FBD
ENCODING 8125
SWIDTH 480 0
DWIDTH 8 0
BBX 2 3 5 9
BITMAP
40
C0
80
ENDCHAR
STARTCHAR 1FBE
ENCODING 8126
SWIDTH 480 0
DWIDTH 8 0
BBX 2 2 3 -3
BITMAP
80
C0
ENDCHAR
STARTCHAR 1FBF
ENCODING 8127
SWIDTH 480 0
DWIDTH 8 0
BBX 2 3 5 9
BITMAP
40
C0
80
ENDCHAR
STARTCHAR 1FC0
ENCODING 8128
SWIDTH 480 0
DWIDTH 8 0
BBX 4 2 4 9
BITMAP
70
90
ENDCHAR
STARTCHAR 1FC1
ENCODING 8129
SWIDTH 480 0
DWIDTH 8 0
BBX 5 4 4 9
BITMAP
30
48
00
D8
ENDCHAR
STARTCHAR 1FC2
ENCODING 8130
SWIDTH 480 0
DWIDTH 8 0
BBX 7 14 1 -2
BITMAP
18
04
00
3C
26
62
42
42
46
C4
C4
04
8C
C8
ENDCHAR
STARTCHAR 1FC3
ENCODING 8131
SWIDTH 480 0
DWIDTH 8 0
BBX 7 11 1 -3
BITMAP
3C
26
62
42
42
46
C4
C4
04
8C
C8
ENDCHAR
STARTCHAR 1FC4
ENCODING 8132
SWIDTH 480 0
DWIDTH 8 0
BBX 7 14 1 -2
BITMAP
06
0C
00
3C
26
62
42
42
46
C4
C4
04
8C
C8
ENDCHAR
STARTCHAR 1FC6
ENCODING 8134
SWIDTH 480 0
DWIDTH 8 0
BBX 7 14 1 -3
BITMAP
0E
12
00
3C
26
62
42
42
46
C4
C4
04
0C
08
ENDCHAR
STARTCHAR 1FC7
ENCODING 8135
SWIDTH 480 0
DWIDTH 8 0
BBX 7 14 1 -3
BITMAP
0E
12
00
3C
26
62
42
42
46
C4
C4
04
8C
C8
ENDCHAR
STARTCHAR 1FC8
ENCODING 8136
SWIDTH 480 0
DWIDTH 8 0
BBX 9 11 0 0
BITMAP
8000
9F80
5800
1000
1000
1F00
3000
2000
2000
2000
7E00
ENDCHAR
STARTCHAR 1FC9
ENCODING 8137
SWIDTH 480 0
DWIDTH 8 0
BBX 9 10 0 1
BITMAP
7F80
D800
1000
1000
1F00
3000
2000
2000
2000
7E00
ENDCHAR
STARTCHAR 1FCA
ENCODING 8138
SWIDTH 480 0
DWIDTH 8 0
BBX 10 10 -1 1
BITMAP
C840
6840
1840
18C0
1F80
1080
3080
3180
2180
2100
ENDCHAR
STARTCHAR 1FCB
ENCODING 8139
SWIDTH 480 0
DWIDTH 8 0
BBX 10 10 -1 1
BITMAP
6840
C840
1840
18C0
1F80
1080
3080
3180
2180
2100
ENDCHAR
STARTCHAR 1FCC
ENCODING 8140
SWIDTH 480 0
DWIDTH 8 0
BBX 9 10 0 0
BITMAP
1200
3200
2680
2580
3D00
6500
4D00
4B00
4B00
C900
ENDCHAR
STARTCHAR 1FCD
ENCODING 8141
SWIDTH 480 0
DWIDTH 8 0
BBX 4 3 4 9
BITMAP
80
F0
90
ENDCHAR
STARTCHAR 1FCE
ENCODING 8142
SWIDTH 480 0
DWIDTH 8 0
BBX 5 3 4 9
BITMAP
40
58
B0
ENDCHAR
STARTCHAR 1FCF
ENCODING 8143
SWIDTH 480 0
DWIDTH 8 0
BBX 3 4 5 9
BITMAP
E0
00
40
C0
ENDCHAR
STARTCHAR 1FD0
ENCODING 8144
SWIDTH 480 0
DWIDTH 8 0
BBX 5 11 2 0
BITMAP
48
30
00
F0
30
30
20
20
20
20
38
ENDCHAR
STARTCHAR 1FD1
ENCODING 8145
SWIDTH 480 0
DWIDTH 8 0
BBX 6 11 2 0
BITMAP
7C
00
00
F0
30
30
20
20
20
20
38
ENDCHAR
STARTCHAR 1FD2
ENCODING 8146
SWIDTH 480 0
DWIDTH 8 0
BBX 6 12 2 0
BITMAP
10
54
54
00
F0
30
30
20
20
20
20
38
ENDCHAR
STARTCHAR 1FD3
ENCODING 8147
SWIDTH 480 0
DWIDTH 8 0
BBX 6 11 2 1
BITMAP
54
74
00
F0
30
30
20
20
20
20
38
ENDCHAR
STARTCHAR 1FD6
ENCODING 8150
SWIDTH 480 0
DWIDTH 8 0
BBX 5 11 2 0
BITMAP
38
48
00
F0
30
30
20
20
20
20
38
ENDCHAR
STARTCHAR 1FD7
ENCODING 8151
SWIDTH 480 0
DWIDTH 8 0
BBX 6 13 2 0
BITMAP
18
24
00
6C
00
F0
30
30
20
20
20
20
38
ENDCHAR
STARTCHAR 1FD8
ENCODING 8152
SWIDTH 480 0
DWIDTH 8 0
BBX 8 13 1 0
BITMAP
0B
04
00
3F
0C
08
08
18
18
10
10
10
FC
ENDCHAR
STARTCHAR 1FD9
ENCODING 8153
SWIDTH 480 0
DWIDTH 8 0
BBX 8 13 1 0
BITMAP
0F
00
00
3F
0C
08
08
18
18
10
10
10
FC
ENDCHAR
STARTCHAR 1FDA
ENCODING 8154
SWIDTH 480 0
DWIDTH 8 0
BBX 9 11 0 0
BITMAP
8000
9F80
4600
0400
0400
0C00
0C00
0800
0800
0800
7E00
ENDCHAR
STARTCHAR 1FDB
ENCODING 8155
SWIDTH 480 0
DWIDTH 8 0
BBX 9 10 0 1
BITMAP
7F80
C600
0400
0400
0C00
0C00
0800
0800
0800
7E00
ENDCHAR
STARTCHAR 1FDD
ENCODING 8157
SWIDTH 480 0
DWIDTH 8 0
BBX 4 2 4 10
BITMAP
F0
90
ENDCHAR
STARTCHAR 1FDE
ENCODING 8158
SWIDTH 480 0
DWIDTH 8 0
BBX 4 3 4 9
BITMAP
80
90
A0
ENDCHAR
STARTCHAR 1FDF
ENCODING 8159
SWIDTH 480 0
DWIDTH 8 0
BBX 3 4 5 9
BITMAP
E0
00
C0
40
ENDCHAR
STARTCHAR 1FE0
ENCODING 8160
SWIDTH 480 0
DWIDTH 8 0
BBX 8 11 1 0
BITMAP
12
0E
00
23
62
42
46
46
C4
4C
78
ENDCHAR
STARTCHAR 1FE1
ENCODING 8161
SWIDTH 480 0
DWIDTH 8 0
BBX 8 11 1 0
BITMAP
1E
00
00
23
62
42
46
46
C4
4C
78
ENDCHAR
STARTCHAR 1FE2
ENCODING 8162
SWIDTH 480 0
DWIDTH 8 0
BBX 8 11 1 1
BITMAP
3D
35
00
23
62
42
46
46
C4
4C
78
ENDCHAR
STARTCHAR 1FE3
ENCODING 8163
SWIDTH 480 0
DWIDTH 8 0
BBX 8 12 1 0
BITMAP
04
35
39
00
23
62
42
46
46
C4
4C
78
ENDCHAR
STARTCHAR 1FE4
ENCODING 8164
SWIDTH 480 0
DWIDTH 8 0
BBX 8 15 0 -3
BITMAP
02
03
02
00
0E
1B
31
21
21
23
62
7C
40
40
C0
ENDCHAR
STARTCHAR 1FE5
ENCODING 8165
SWIDTH 480 0
DWIDTH 8 0
BBX 8 15 0 -3
BITMAP
02
06
02
00
0E
1B
31
21
21
23
62
7C
40
40
C0
ENDCHAR
STARTCHAR 1FE6
ENCODING 8166
SWIDTH 480 0
DWIDTH 8 0
BBX 8 11 1 0
BITMAP
0E
12
00
23
62
42
46
46
C4
4C
78
ENDCHAR
STARTCHAR 1FE7
ENCODING 8167
SWIDTH 480 0
DWIDTH 8 0
BBX 8 13 1 0
BITMAP
0E
08
00
12
00
23
62
42
46
46
C4
4C
78
ENDCHAR
STARTCHAR 1FE8
ENCODING 8168
SWIDTH 480 0
DWIDTH 8 0
BBX 7 13 3 0
BITMAP
2C
10
00
86
84
88
D8
50
60
40
40
40
C0
ENDCHAR
STARTCHAR 1FE9
ENCODING 8169
SWIDTH 480 0
DWIDTH 8 0
BBX 7 13 3 0
BITMAP
3C
00
00
86
84
88
D8
50
60
40
40
40
C0
ENDCHAR
STARTCHAR 1FEA
ENCODING 8170
SWIDTH 480 0
DWIDTH 8 0
BBX 11 10 -1 1
BITMAP
C860
6840
0880
0D80
0500
0600
0400
0400
0400
0C00
ENDCHAR
STARTCHAR 1FEB
ENCODING 8171
SWIDTH 480 0
DWIDTH 8 0
BBX 11 10 -1 1
BITMAP
6860
8840
0880
0D80
0500
0600
0400
0400
0400
0C00
ENDCHAR
STARTCHAR 1FEC
ENCODING 8172
SWIDTH 480 0
DWIDTH 8 0
BBX 9 11 0 0
BITMAP
4000
DF00
5180
1080
3180
3100
3E00
2000
6000
6000
4000
ENDCHAR
STARTCHAR 1FED
ENCODING 8173
SWIDTH 480 0
DWIDTH 8 0
BBX 6 2 3 10
BITMAP
F4
D4
ENDCHAR
STARTCHAR 1FEE
ENCODING 8174
SWIDTH 480 0
DWIDTH 8 0
BBX 6 3 3 9
BITMAP
10
D4
E4
ENDCHAR
STARTCHAR 1FEF
ENCODING 8175
SWIDTH 480 0
DWIDTH 8 0
BBX 3 2 4 10
BITMAP
C0
20
ENDCHAR
STARTCHAR 1FF2
ENCODING 8178
SWIDTH 480 0
DWIDTH 8 0
BBX 7 14 1 -2
BITMAP
18
0C
00
22
62
42
92
92
92
B6
FC
00
20
30
ENDCHAR
STARTCHAR 1FF3
ENCODING 8179
SWIDTH 480 0
DWIDTH 8 0
BBX 7 11 1 -3
BITMAP
22
62
42
92
92
92
B6
FC
00
20
30
ENDCHAR
STARTCHAR 1FF4
ENCODING 8180
SWIDTH 480 0
DWIDTH 8 0
BBX 7 14 1 -2
BITMAP
06
08
00
22
62
42
92
92
92
B6
FC
00
20
30
ENDCHAR
STARTCHAR 1FF6
ENCODING 8182
SWIDTH 480 0
DWIDTH 8 0
BBX 7 11 1 0
BITMAP
0E
12
00
22
62
42
92
92
92
B6
FC
ENDCHAR
STARTCHAR 1FF7
ENCODING 8183
SWIDTH 480 0
DWIDTH 8 0
BBX 7 14 1 -3
BITMAP
0E
12
00
22
62
42
92
92
92
B6
FC
00
20
30
ENDCHAR
STARTCHAR 1FF8
ENCODING 8184
SWIDTH 480 0
DWIDTH 8 0
BBX 10 11 -1 0
BITMAP
0100
C780
68C0
18C0
10C0
10C0
3080
3080
3180
3300
1E00
ENDCHAR
STARTCHAR 1FF9
ENCODING 8185
SWIDTH 480 0
DWIDTH 8 0
BBX 9 11 0 0
BITMAP
0200
6F00
D180
3180
2180
2180
6100
6100
6300
6600
3C00
ENDCHAR
STARTCHAR 1FFA
ENCODING 8186
SWIDTH 480 0
DWIDTH 8 0
BBX 10 11 -1 0
BITMAP
8100
C780
48C0
1840
1040
30C0
3080
3080
3100
1300
7780
ENDCHAR
STARTCHAR 1FFB
ENCODING 8187
SWIDTH 480 0
DWIDTH 8 0
BBX 9 11 0 0
BITMAP
0200
6F00
9180
3080
2080
6180
6100
6100
6200
2600
EF00
ENDCHAR
STARTCHAR 1FFC
ENCODING 8188
SWIDTH 480 0
DWIDTH 8 0
BBX 9 11 0 0
BITMAP
0800
1C00
2400
2480
6580
4500
4500
4900
4B00
5300
D900
ENDCHAR
STARTCHAR 1FFD
ENCODING 8189
SWIDTH 480 0
DWIDTH 8 0
BBX 3 2 5 10
BITMAP
60
80
ENDCHAR
STARTCHAR 1FFE
ENCODING 8190
SWIDTH 480 0
DWIDTH 8 0
BBX 2 3 5 9
BITMAP
40
C0
40
ENDCHAR
STARTCHAR 2013
ENCODING 8211
SWIDTH 480 0
DWIDTH 8 0
BBX 6 1 2 4
BITMAP
FC
ENDCHAR
STARTCHAR 2014
ENCODING 8212
SWIDTH 480 0
DWIDTH 8 0
BBX 8 1 1 4
BITMAP
FF
ENDCHAR
STARTCHAR 2015
ENCODING 8213
SWIDTH 480 0
DWIDTH 8 0
BBX 8 1 1 4
BITMAP
FF
ENDCHAR
STARTCHAR 2018
ENCODING 8216
SWIDTH 480 0
DWIDTH 8 0
BBX 4 5 4 7
BITMAP
10
60
40
E0
60
ENDCHAR
STARTCHAR 2019
ENCODING 8217
SWIDTH 480 0
DWIDTH 8 0
BBX 4 5 4 7
BITMAP
20
70
20
60
C0
ENDCHAR
STARTCHAR 201A
ENCODING 8218
SWIDTH 480 0
DWIDTH 8 0
BBX 3 4 2 -2
BITMAP
60
60
20
C0
ENDCHAR
STARTCHAR 201C
ENCODING 8220
SWIDTH 480 0
DWIDTH 8 0
BBX 6 4 3 8
BITMAP
CC
88
DC
88
ENDCHAR
STARTCHAR 201D
ENCODING 8221
SWIDTH 480 0
DWIDTH 8 0
BBX 6 5 3 7
BITMAP
40
CC
4C
CC
10
ENDCHAR
STARTCHAR 201E
ENCODING 8222
SWIDTH 480 0
DWIDTH 8 0
BBX 6 4 1 -2
BITMAP
CC
EC
44
98
ENDCHAR
STARTCHAR 2020
ENCODING 8224
SWIDTH 480 0
DWIDTH 8 0
BBX 6 12 2 -2
BITMAP
08
10
10
FC
10
30
20
20
20
60
40
40
ENDCHAR
STARTCHAR 2021
ENCODING 8225
SWIDTH 480 0
DWIDTH 8 0
BBX 7 12 1 -2
BITMAP
04
08
08
7E
08
18
10
FC
10
30
20
20
ENDCHAR
STARTCHAR 2022
ENCODING 8226
SWIDTH 480 0
DWIDTH 8 0
BBX 4 5 3 2
BITMAP
F0
F0
F0
F0
60
ENDCHAR
STARTCHAR 2026
ENCODING 8230
SWIDTH 480 0
DWIDTH 8 0
BBX 8 2 0 0
BITMAP
4A
DB
ENDCHAR
STARTCHAR 2030
ENCODING 8240
SWIDTH 480 0
DWIDTH 8 0
BBX 9 10 1 1
BITMAP
7000
5080
5300
6C00
3000
4000
B600
5600
5A00
6600
ENDCHAR
STARTCHAR 2039
ENCODING 8249
SWIDTH 480 0
DWIDTH 8 0
BBX 4 6 3 2
BITMAP
30
60
C0
40
40
20
ENDCHAR
STARTCHAR 203A
ENCODING 8250
SWIDTH 480 0
DWIDTH 8 0
BBX 3 6 3 2
BITMAP
40
20
20
60
40
80
ENDCHAR
STARTCHAR 2044
ENCODING 8260
SWIDTH 480 0
DWIDTH 8 0
BBX 8 10 1 0
BITMAP
01
02
06
0C
08
10
20
60
40
80
ENDCHAR
STARTCHAR 2070
ENCODING 8304
SWIDTH 480 0
DWIDTH 8 0
BBX 5 6 3 5
BITMAP
10
68
48
A8
98
F0
ENDCHAR
STARTCHAR 2074
ENCODING 8308
SWIDTH 480 0
DWIDTH 8 0
BBX 4 5 3 5
BITMAP
30
50
90
F0
20
ENDCHAR
STARTCHAR 2075
ENCODING 8309
SWIDTH 480 0
DWIDTH 8 0
BBX 5 5 3 5
BITMAP
38
40
30
10
F0
ENDCHAR
STARTCHAR 2076
ENCODING 8310
SWIDTH 480 0
DWIDTH 8 0
BBX 5 5 3 5
BITMAP
38
40
F0
98
F0
ENDCHAR
STARTCHAR 2077
ENCODING 8311
SWIDTH 480 0
DWIDTH 8 0
BBX 4 5 4 5
BITMAP
F0
20
40
40
80
ENDCHAR
STARTCHAR 2078
ENCODING 8312
SWIDTH 480 0
DWIDTH 8 0
BBX 4 6 4 5
BITMAP
20
D0
90
E0
90
E0
ENDCHAR
STARTCHAR 2079
ENCODING 8313
SWIDTH 480 0
DWIDTH 8 0
BBX 5 6 3 5
BITMAP
20
58
48
78
10
E0
ENDCHAR
STARTCHAR 2080
ENCODING 8320
SWIDTH 480 0
DWIDTH 8 0
BBX 5 6 2 0
BITMAP
38
48
48
A8
98
70
ENDCHAR
STARTCHAR 2081
ENCODING 8321
SWIDTH 480 0
DWIDTH 8 0
BBX 4 6 2 0
BITMAP
10
70
20
20
20
F0
ENDCHAR
STARTCHAR 2082
ENCODING 8322
SWIDTH 480 0
DWIDTH 8 0
BBX 5 6 2 0
BITMAP
38
08
18
30
40
F0
ENDCHAR
STARTCHAR 2083
ENCODING 8323
SWIDTH 480 0
DWIDTH 8 0
BBX 5 6 2 0
BITMAP
38
08
30
10
10
F0
ENDCHAR
STARTCHAR 2084
ENCODING 8324
SWIDTH 480 0
DWIDTH 8 0
BBX 5 6 2 0
BITMAP
18
30
50
90
F0
20
ENDCHAR
STARTCHAR 2085
ENCODING 8325
SWIDTH 480 0
DWIDTH 8 0
BBX 5 6 2 0
BITMAP
38
40
60
10
10
F0
ENDCHAR
STARTCHAR 2086
ENCODING 8326
SWIDTH 480 0
DWIDTH 8 0
BBX 5 6 2 0
BITMAP
18
60
70
90
90
70
ENDCHAR
STARTCHAR 2087
ENCODING 8327
SWIDTH 480 0
DWIDTH 8 0
BBX 4 6 3 0
BITMAP
F0
10
20
40
80
80
ENDCHAR
STARTCHAR 2088
ENCODING 8328
SWIDTH 480 0
DWIDTH 8 0
BBX 5 6 2 0
BITMAP
38
48
68
50
88
70
ENDCHAR
STARTCHAR 2089
ENCODING 8329
SWIDTH 480 0
DWIDTH 8 0
BBX 5 6 2 0
BITMAP
38
48
48
78
10
E0
ENDCHAR
STARTCHAR 20AC
ENCODING 8364
SWIDTH 480 0
DWIDTH 8 0
BBX 8 10 1 1
BITMAP
0F
18
30
7E
20
60
FC
60
20
3E
ENDCHAR
STARTCHAR 20AE
ENCODING 8366
SWIDTH 480 0
DWIDTH 8 0
BBX 8 10 2 0
BITMAP
FF
18
10
1C
70
B0
38
E0
60
60
ENDCHAR
STARTCHAR 20B4
ENCODING 8372
SWIDTH 480 0
DWIDTH 8 0
BBX 8 11 1 0
BITMAP
08
1E
02
02
7F
0C
30
FE
40
40
7C
ENDCHAR
STARTCHAR 20B9
ENCODING 8377
SWIDTH 480 0
DWIDTH 8 0
BBX 8 10 2 0
BITMAP
7F
0C
FE
0C
18
E0
C0
40
60
30
ENDCHAR
STARTCHAR 2113
ENCODING 8467
SWIDTH 480 0
DWIDTH 8 0
BBX 6 12 2 0
BITMAP
10
78
68
48
48
48
50
60
40
C0
60
3C
ENDCHAR
STARTCHAR 2116
ENCODING 8470
SWIDTH 480 0
DWIDTH 8 0
BBX 10 11 0 0
BITMAP
0080
3540
3540
3540
3D80
7980
5800
5800
5B00
5000
9000
ENDCHAR
STARTCHAR 2122
ENCODING 8482
SWIDTH 480 0
DWIDTH 8 0
BBX 8 4 2 6
BITMAP
EA
5E
56
51
ENDCHAR
STARTCHAR 2126
ENCODING 8486
SWIDTH 480 0
DWIDTH 8 0
BBX 9 11 0 0
BITMAP
0200
0F00
1180
3080
2080
6180
6100
6100
6200
2600
EF00
ENDCHAR
STARTCHAR 212E
ENCODING 8494
SWIDTH 480 0
DWIDTH 8 0
BBX 7 6 1 1
BITMAP
7C
82
82
FC
80
7C
ENDCHAR
STARTCHAR 2153
ENCODING 8531
SWIDTH 480 0
DWIDTH 8 0
BBX 8 10 1 0
BITMAP
31
12
24
2C
08
10
2E
66
C2
8E
ENDCHAR
STARTCHAR 2154
ENCODING 8532
SWIDTH 480 0
DWIDTH 8 0
BBX 8 11 1 0
BITMAP
20
51
22
46
EC
08
10
2E
66
42
8E
ENDCHAR
STARTCHAR 2155
ENCODING 8533
SWIDTH 480 0
DWIDTH 8 0
BBX 8 10 1 0
BITMAP
31
12
26
24
08
10
26
66
42
8E
ENDCHAR
STARTCHAR 2156
ENCODING 8534
SWIDTH 480 0
DWIDTH 8 0
BBX 8 11 1 0
BITMAP
20
51
22
46
E4
08
10
26
66
42
8E
ENDCHAR
STARTCHAR 2157
ENCODING 8535
SWIDTH 480 0
DWIDTH 8 0
BBX 8 11 1 0
BITMAP
20
51
22
16
E4
08
10
26
66
42
8E
ENDCHAR
STARTCHAR 2158
ENCODING 8536
SWIDTH 480 0
DWIDTH 8 0
BBX 8 10 1 0
BITMAP
31
53
F6
24
08
10
36
26
42
8E
ENDCHAR
STARTCHAR 2159
ENCODING 8537
SWIDTH 480 0
DWIDTH 8 0
BBX 8 10 1 0
BITMAP
31
12
26
24
08
10
26
6E
4A
8E
ENDCHAR
STARTCHAR 215A
ENCODING 8538
SWIDTH 480 0
DWIDTH 8 0
BBX 8 10 1 0
BITMAP
31
73
16
E4
08
10
36
2E
4A
8E
ENDCHAR
STARTCHAR 215B
ENCODING 8539
SWIDTH 480 0
DWIDTH 8 0
BBX 8 10 1 0
BITMAP
31
12
24
2C
08
10
2E
6E
CA
8E
ENDCHAR
STARTCHAR 215C
ENCODING 8540
SWIDTH 480 0
DWIDTH 8 0
BBX 8 11 1 0
BITMAP
20
51
22
14
EC
08
10
2E
6E
CA
8E
ENDCHAR
STARTCHAR 215D
ENCODING 8541
SWIDTH 480 0
DWIDTH 8 0
BBX 8 10 1 0
BITMAP
31
72
14
EC
08
10
2E
6E
CA
8E
ENDCHAR
STARTCHAR 215E
ENCODING 8542
SWIDTH 480 0
DWIDTH 8 0
BBX 8 10 1 0
BITMAP
19
12
24
2C
08
10
2E
6E
CA
8E
ENDCHAR
STARTCHAR 2202
ENCODING 8706
SWIDTH 480 0
DWIDTH 8 0
BBX 8 12 1 0
BITMAP
08
3E
03
03
03
3F
63
42
C2
C6
CC
78
ENDCHAR
STARTCHAR 2206
ENCODING 8710
SWIDTH 480 0
DWIDTH 8 0
BBX 8 10 0 0
BITMAP
06
0E
0A
13
13
23
23
43
43
FF
ENDCHAR
STARTCHAR 220F
ENCODING 8719
SWIDTH 480 0
DWIDTH 8 0
BBX 9 12 0 -2
BITMAP
1F80
1080
3180
3180
2100
2100
6100
6300
4200
4200
4200
C600
ENDCHAR
STARTCHAR 2211
ENCODING 8721
SWIDTH 480 0
DWIDTH 8 0
BBX 8 12 1 -2
BITMAP
3F
10
10
18
08
0C
18
30
60
40
FC
FC
ENDCHAR
STARTCHAR 2212
ENCODING 8722
SWIDTH 480 0
DWIDTH 8 0
BBX 6 1 2 4
BITMAP
FC
ENDCHAR
STARTCHAR 2215
ENCODING 8725
SWIDTH 480 0
DWIDTH 8 0
BBX 8 10 1 0
BITMAP
01
02
06
0C
08
10
20
60
40
80
ENDCHAR
STARTCHAR 2219
ENCODING 8729
SWIDTH 480 0
DWIDTH 8 0
BBX 2 3 4 3
BITMAP
C0
C0
80
ENDCHAR
STARTCHAR 221A
ENCODING 8730
SWIDTH 480 0
DWIDTH 8 0
BBX 9 12 1 0
BITMAP
0080
0080
0100
0100
0200
0200
6400
A400
2800
2800
3000
3000
ENDCHAR
STARTCHAR 221E
ENCODING 8734
SWIDTH 480 0
DWIDTH 8 0
BBX 8 4 1 2
BITMAP
7E
93
9A
6C
ENDCHAR
STARTCHAR 222B
ENCODING 8747
SWIDTH 480 0
DWIDTH 8 0
BBX 9 15 0 -3
BITMAP
0080
0380
0600
0400
0400
0400
0C00
0800
0800
0800
1800
1800
1000
3000
E000
ENDCHAR
STARTCHAR 2248
ENCODING 8776
SWIDTH 480 0
DWIDTH 8 0
BBX 8 5 1 2
BITMAP
79
4E
00
72
9E
ENDCHAR
STARTCHAR 2260
ENCODING 8800
SWIDTH 480 0
DWIDTH 8 0
BBX 8 8 1 1
BITMAP
06
7F
7F
18
10
FE
60
40
ENDCHAR
STARTCHAR 2264
ENCODING 8804
SWIDTH 480 0
DWIDTH 8 0
BBX 8 8 1 1
BITMAP
07
1C
60
70
1C
06
00
FC
ENDCHAR
STARTCHAR 2265
ENCODING 8805
SWIDTH 480 0
DWIDTH 8 0
BBX 8 8 1 1
BITMAP
30
0E
03
0E
78
40
00
FC
ENDCHAR
STARTCHAR 2500
ENCODING 9472
SWIDTH 480 0
DWIDTH 8 0
BBX 8 1 0 5
BITMAP
FF
ENDCHAR
STARTCHAR 2502
ENCODING 9474
SWIDTH 480 0
DWIDTH 8 0
BBX 2 17 3 -3
BITMAP
C0
C0
C0
C0
C0
C0
C0
C0
C0
C0
C0
C0
C0
C0
C0
C0
C0
ENDCHAR
STARTCHAR 250C
ENCODING 9484
SWIDTH 480 0
DWIDTH 8 0
BBX 5 9 3 -3
BITMAP
F8
C0
C0
C0
C0
C0
C0
C0
C0
ENDCHAR
STARTCHAR 2510
ENCODING 9488
SWIDTH 480 0
DWIDTH 8 0
BBX 5 9 0 -3
BITMAP
F8
18
18
18
18
18
18
18
18
ENDCHAR
STARTCHAR 2514
ENCODING 9492
SWIDTH 480 0
DWIDTH 8 0
BBX 5 9 3 5
BITMAP
C0
C0
C0
C0
C0
C0
C0
C0
F8
ENDCHAR
STARTCHAR 2518
ENCODING 9496
SWIDTH 480 0
DWIDTH 8 0
BBX 5 9 0 5
BITMAP
18
18
18
18
18
18
18
18
F8
ENDCHAR
STARTCHAR 251C
ENCODING 9500
SWIDTH 480 0
DWIDTH 8 0
BBX 5 17 3 -3
BITMAP
C0
C0
C0
C0
C0
C0
C0
C0
F8
C0
C0
C0
C0
C0
C0
C0
C0
ENDCHAR
STARTCHAR 2524
ENCODING 9508
SWIDTH 480 0
DWIDTH 8 0
BBX 5 17 0 -3
BITMAP
18
18
18
18
18
18
18
18
F8
18
18
18
18
18
18
18
18
ENDCHAR
STARTCHAR 252C
ENCODING 9516
SWIDTH 480 0
DWIDTH 8 0
BBX 8 9 0 -3
BITMAP
FF
18
18
18
18
18
18
18
18
ENDCHAR
STARTCHAR 2534
ENCODING 9524
SWIDTH 480 0
DWIDTH 8 0
BBX 8 9 0 5
BITMAP
18
18
18
18
18
18
18
18
FF
ENDCHAR
STARTCHAR 253C
ENCODING 9532
SWIDTH 480 0
DWIDTH 8 0
BBX 8 17 0 -3
BITMAP
18
18
18
18
18
18
18
18
FF
18
18
18
18
18
18
18
18
ENDCHAR
STARTCHAR 2550
ENCODING 9552
SWIDTH 480 0
DWIDTH 8 0
BBX 8 5 0 3
BITMAP
FF
FF
00
FF
FF
ENDCHAR
STARTCHAR 2551
ENCODING 9553
SWIDTH 480 0
DWIDTH 8 0
BBX 4 17 2 -3
BITMAP
D0
D0
D0
D0
D0
D0
D0
D0
D0
D0
D0
D0
D0
D0
D0
D0
D0
ENDCHAR
STARTCHAR 2552
ENCODING 9554
SWIDTH 480 0
DWIDTH 8 0
BBX 5 11 3 -3
BITMAP
F8
F8
00
F8
F8
C0
C0
C0
C0
C0
C0
ENDCHAR
STARTCHAR 2553
ENCODING 9555
SWIDTH 480 0
DWIDTH 8 0
BBX 6 9 2 -3
BITMAP
DC
D0
D0
D0
D0
D0
D0
D0
D0
ENDCHAR
STARTCHAR 2554
ENCODING 9556
SWIDTH 480 0
DWIDTH 8 0
BBX 6 11 2 -3
BITMAP
FC
FC
C0
DC
DC
D0
D0
D0
D0
D0
D0
ENDCHAR
STARTCHAR 2555
ENCODING 9557
SWIDTH 480 0
DWIDTH 8 0
BBX 5 11 0 -3
BITMAP
F8
F8
00
F8
F8
18
18
18
18
18
18
ENDCHAR
STARTCHAR 2556
ENCODING 9558
SWIDTH 480 0
DWIDTH 8 0
BBX 6 9 0 -3
BITMAP
F4
34
34
34
34
34
34
34
34
ENDCHAR
STARTCHAR 2557
ENCODING 9559
SWIDTH 480 0
DWIDTH 8 0
BBX 6 11 0 -3
BITMAP
FC
FC
04
F4
F4
34
34
34
34
34
34
ENDCHAR
STARTCHAR 2558
ENCODING 9560
SWIDTH 480 0
DWIDTH 8 0
BBX 5 11 3 3
BITMAP
C0
C0
C0
C0
C0
C0
F8
F8
00
F8
F8
ENDCHAR
STARTCHAR 2559
ENCODING 9561
SWIDTH 480 0
DWIDTH 8 0
BBX 6 9 2 5
BITMAP
D0
D0
D0
D0
D0
D0
D0
D0
DC
ENDCHAR
STARTCHAR 255A
ENCODING 9562
SWIDTH 480 0
DWIDTH 8 0
BBX 6 11 2 3
BITMAP
D0
D0
D0
D0
D0
D0
DC
DC
C0
FC
FC
ENDCHAR
STARTCHAR 255B
ENCODING 9563
SWIDTH 480 0
DWIDTH 8 0
BBX 5 11 0 3
BITMAP
18
18
18
18
18
18
F8
F8
00
F8
F8
ENDCHAR
STARTCHAR 255C
ENCODING 9564
SWIDTH 480 0
DWIDTH 8 0
BBX 6 9 0 5
BITMAP
34
34
34
34
34
34
34
34
F4
ENDCHAR
STARTCHAR 255D
ENCODING 9565
SWIDTH 480 0
DWIDTH 8 0
BBX 6 11 0 3
BITMAP
34
34
34
34
34
34
F4
F4
04
FC
FC
ENDCHAR
STARTCHAR 255E
ENCODING 9566
SWIDTH 480 0
DWIDTH 8 0
BBX 5 17 3 -3
BITMAP
C0
C0
C0
C0
C0
C0
F8
F8
00
F8
F8
C0
C0
C0
C0
C0
C0
ENDCHAR
STARTCHAR 255F
ENCODING 9567
SWIDTH 480 0
DWIDTH 8 0
BBX 6 17 2 -3
BITMAP
D0
D0
D0
D0
D0
D0
D0
D0
DC
D0
D0
D0
D0
D0
D0
D0
D0
ENDCHAR
STARTCHAR 2560
ENCODING 9568
SWIDTH 480 0
DWIDTH 8 0
BBX 6 17 2 -3
BITMAP
D0
D0
D0
D0
D0
D0
DC
DC
C0
DC
DC
D0
D0
D0
D0
D0
D0
ENDCHAR
STARTCHAR 2561
ENCODING 9569
SWIDTH 480 0
DWIDTH 8 0
BBX 5 17 0 -3
BITMAP
18
18
18
18
18
18
F8
F8
00
F8
F8
18
18
18
18
18
18
ENDCHAR
STARTCHAR 2562
ENCODING 9570
SWIDTH 480 0
DWIDTH 8 0
BBX 6 17 0 -3
BITMAP
34
34
34
34
34
34
34
34
F4
34
34
34
34
34
34
34
34
ENDCHAR
STARTCHAR 2563
ENCODING 9571
SWIDTH 480 0
DWIDTH 8 0
BBX 6 17 0 -3
BITMAP
34
34
34
34
34
34
F4
F4
04
F4
F4
34
34
34
34
34
34
ENDCHAR
STARTCHAR 2564
ENCODING 9572
SWIDTH 480 0
DWIDTH 8 0
BBX 8 11 0 -3
BITMAP
FF
FF
00
FF
FF
18
18
18
18
18
18
ENDCHAR
STARTCHAR 2565
ENCODING 9573
SWIDTH 480 0
DWIDTH 8 0
BBX 8 9 0 -3
BITMAP
FF
34
34
34
34
34
34
34
34
ENDCHAR
STARTCHAR 2566
ENCODING 9574
SWIDTH 480 0
DWIDTH 8 0
BBX 8 11 0 -3
BITMAP
FF
FF
00
F7
F7
34
34
34
34
34
34
ENDCHAR
STARTCHAR 2567
ENCODING 9575
SWIDTH 480 0
DWIDTH 8 0
BBX 8 11 0 3
BITMAP
18
18
18
18
18
18
FF
FF
00
FF
FF
ENDCHAR
STARTCHAR 2568
ENCODING 9576
SWIDTH 480 0
DWIDTH 8 0
BBX 8 9 0 5
BITMAP
34
34
34
34
34
34
34
34
FF
ENDCHAR
STARTCHAR 2569
ENCODING 9577
SWIDTH 480 0
DWIDTH 8 0
BBX 8 11 0 3
BITMAP
34
34
34
34
34
34
F7
F7
00
FF
FF
ENDCHAR
STARTCHAR 256A
ENCODING 9578
SWIDTH 480 0
DWIDTH 8 0
BBX 8 17 0 -3
BITMAP
18
18
18
18
18
18
FF
FF
18
FF
FF
18
18
18
18
18
18
ENDCHAR
STARTCHAR 256B
ENCODING 9579
SWIDTH 480 0
DWIDTH 8 0
BBX 8 17 0 -3
BITMAP
34
34
34
34
34
34
34
34
FF
34
34
34
34
34
34
34
34
ENDCHAR
STARTCHAR 256C
ENCODING 9580
SWIDTH 480 0
DWIDTH 8 0
BBX 8 17 0 -3
BITMAP
34
34
34
34
34
34
F7
F7
00
F7
F7
34
34
34
34
34
34
ENDCHAR
STARTCHAR 2588
ENCODING 9608
SWIDTH 480 0
DWIDTH 8 0
BBX 8 17 0 -3
BITMAP
FF
FF
FF
FF
FF
FF
FF
FF
FF
FF
FF
FF
FF
FF
FF
FF
FF
ENDCHAR
STARTCHAR 2591
ENCODING 9617
SWIDTH 480 0
DWIDTH 8 0
BBX 7 15 0 -2
BITMAP
84
4A
00
00
4A
84
00
00
84
4A
00
00
4A
84
4A
ENDCHAR
STARTCHAR 2592
ENCODING 9618
SWIDTH 480 0
DWIDTH 8 0
BBX 8 15 0 -2
BITMAP
CE
33
00
00
33
CE
00
00
CE
33
00
00
33
CE
33
ENDCHAR
STARTCHAR 2593
ENCODING 9619
SWIDTH 480 0
DWIDTH 8 0
BBX 8 17 0 -3
BITMAP
FF
FF
EF
FF
FF
FF
EF
FF
FF
FF
EF
FF
FF
FF
FF
EF
DE
ENDCHAR
STARTCHAR 25CA
ENCODING 9674
SWIDTH 480 0
DWIDTH 8 0
BBX 7 10 2 1
BITMAP
18
38
2C
44
86
84
C8
50
60
60
ENDCHAR
STARTCHAR E0FF
ENCODING 57599
SWIDTH 480 0
DWIDTH 8 0
BBX 6 7 3 5
BITMAP
20
F8
BC
F4
BC
E8
70
ENDCHAR
STARTCHAR EFFD
ENCODING 61437
SWIDTH 480 0
DWIDTH 8 0
BBX 10 11 0 0
BITMAP
1080
6B40
4A40
AB80
9440
F680
0100
0000
0000
3800
3800
ENDCHAR
STARTCHAR F000
ENCODING 61440
SWIDTH 480 0
DWIDTH 8 0
BBX 14 12 -3 0
BITMAP
7CFC
8000
8504
8504
8504
8000
3878
8000
8504
8504
8000
3878
ENDCHAR
STARTCHAR F001
ENCODING 61441
SWIDTH 480 0
DWIDTH 8 0
BBX 12 15 -2 -3
BITMAP
0080
03B0
0620
0400
0F20
0460
0C40
0C40
0840
08C0
0880
1880
1800
3000
E000
ENDCHAR
STARTCHAR F002
ENCODING 61442
SWIDTH 480 0
DWIDTH 8 0
BBX 12 15 -2 -3
BITMAP
0090
03A0
0620
0420
0F60
0440
0C40
0C40
08C0
0880
08C0
1840
1800
3000
E000
ENDCHAR
STARTCHAR F506
ENCODING 62726
SWIDTH 480 0
DWIDTH 8 0
BBX 8 10 1 0
BITMAP
31
12
24
2C
08
10
27
42
C4
88
ENDCHAR
STARTCHAR F507
ENCODING 62727
SWIDTH 480 0
DWIDTH 8 0
BBX 8 11 1 0
BITMAP
20
51
22
44
EC
08
10
27
62
44
88
ENDCHAR
STARTCHAR F508
ENCODING 62728
SWIDTH 480 0
DWIDTH 8 0
BBX 8 11 1 0
BITMAP
20
51
22
14
EC
08
10
27
62
44
88
ENDCHAR
STARTCHAR F509
ENCODING 62729
SWIDTH 480 0
DWIDTH 8 0
BBX 8 10 1 0
BITMAP
31
52
F6
24
08
10
27
62
44
88
ENDCHAR
STARTCHAR F50A
ENCODING 62730
SWIDTH 480 0
DWIDTH 8 0
BBX 8 10 1 0
BITMAP
31
72
16
E4
08
10
27
62
44
88
ENDCHAR
STARTCHAR F50B
ENCODING 62731
SWIDTH 480 0
DWIDTH 8 0
BBX 8 11 1 0
BITMAP
10
21
72
56
64
08
10
27
62
44
88
ENDCHAR
STARTCHAR F50C
ENCODING 62732
SWIDTH 480 0
DWIDTH 8 0
BBX 8 10 1 0
BITMAP
31
12
26
24
08
10
2E
6A
46
8C
ENDCHAR
STARTCHAR F50D
ENCODING 62733
SWIDTH 480 0
DWIDTH 8 0
BBX 8 11 1 0
BITMAP
20
51
22
46
E4
08
10
2E
6A
46
8C
ENDCHAR
STARTCHAR F50E
ENCODING 62734
SWIDTH 480 0
DWIDTH 8 0
BBX 8 10 1 0
BITMAP
31
52
F6
24
08
10
2E
6A
46
8C
ENDCHAR
STARTCHAR F50F
ENCODING 62735
SWIDTH 480 0
DWIDTH 8 0
BBX 8 10 1 0
BITMAP
31
72
16
E4
08
10
2E
6A
46
8C
ENDCHAR
STARTCHAR F510
ENCODING 62736
SWIDTH 480 0
DWIDTH 8 0
BBX 8 10 1 0
BITMAP
19
12
26
24
08
10
2E
6A
46
8C
ENDCHAR
STARTCHAR F511
ENCODING 62737
SWIDTH 480 0
DWIDTH 8 0
BBX 8 11 1 0
BITMAP
20
51
72
96
64
08
10
2E
6A
46
8C
ENDCHAR
STARTCHAR F80A
ENCODING 63498
SWIDTH 480 0
DWIDTH 8 0
BBX 4 6 4 6
BITMAP
70
90
B0
90
B0
40
ENDCHAR
STARTCHAR F80B
ENCODING 63499
SWIDTH 480 0
DWIDTH 8 0
BBX 4 6 4 6
BITMAP
20
60
20
20
40
F0
ENDCHAR
STARTCHAR F80C
ENCODING 63500
SWIDTH 480 0
DWIDTH 8 0
BBX 5 6 3 6
BITMAP
78
08
10
60
40
F0
ENDCHAR
STARTCHAR F80D
ENCODING 63501
SWIDTH 480 0
DWIDTH 8 0
BBX 4 6 4 6
BITMAP
70
10
60
10
30
C0
ENDCHAR
STARTCHAR F80E
ENCODING 63502
SWIDTH 480 0
DWIDTH 8 0
BBX 4 6 4 6
BITMAP
30
50
90
F0
20
20
ENDCHAR
STARTCHAR F80F
ENCODING 63503
SWIDTH 480 0
DWIDTH 8 0
BBX 5 6 4 6
BITMAP
78
40
60
10
30
C0
ENDCHAR
STARTCHAR F810
ENCODING 63504
SWIDTH 480 0
DWIDTH 8 0
BBX 5 6 4 6
BITMAP
38
40
F0
90
90
60
ENDCHAR
STARTCHAR F811
ENCODING 63505
SWIDTH 480 0
DWIDTH 8 0
BBX 5 6 4 6
BITMAP
F8
30
20
40
C0
80
ENDCHAR
STARTCHAR F812
ENCODING 63506
SWIDTH 480 0
DWIDTH 8 0
BBX 5 6 4 6
BITMAP
78
48
70
90
90
60
ENDCHAR
STARTCHAR F813
ENCODING 63507
SWIDTH 480 0
DWIDTH 8 0
BBX 4 6 4 6
BITMAP
70
90
D0
30
60
80
ENDCHAR
STARTCHAR F814
ENCODING 63508
SWIDTH 480 0
DWIDTH 8 0
BBX 4 6 2 -3
BITMAP
70
90
F0
90
B0
40
ENDCHAR
STARTCHAR F815
ENCODING 63509
SWIDTH 480 0
DWIDTH 8 0
BBX 4 6 2 -3
BITMAP
30
60
20
20
20
F0
ENDCHAR
STARTCHAR F816
ENCODING 63510
SWIDTH 480 0
DWIDTH 8 0
BBX 4 6 2 -3
BITMAP
70
10
30
40
80
F0
ENDCHAR
STARTCHAR F817
ENCODING 63511
SWIDTH 480 0
DWIDTH 8 0
BBX 4 6 2 -3
BITMAP
70
10
60
10
30
C0
ENDCHAR
STARTCHAR F818
ENCODING 63512
SWIDTH 480 0
DWIDTH 8 0
BBX 4 6 2 -3
BITMAP
30
50
90
F0
20
20
ENDCHAR
STARTCHAR F819
ENCODING 63513
SWIDTH 480 0
DWIDTH 8 0
BBX 4 6 2 -3
BITMAP
70
40
E0
10
30
C0
ENDCHAR
STARTCHAR F81A
ENCODING 63514
SWIDTH 480 0
DWIDTH 8 0
BBX 4 6 2 -3
BITMAP
30
C0
F0
90
90
60
ENDCHAR
STARTCHAR F81B
ENCODING 63515
SWIDTH 480 0
DWIDTH 8 0
BBX 5 6 2 -3
BITMAP
78
10
20
60
40
C0
ENDCHAR
STARTCHAR F81C
ENCODING 63516
SWIDTH 480 0
DWIDTH 8 0
BBX 5 6 2 -3
BITMAP
70
48
70
90
90
60
ENDCHAR
STARTCHAR F81D
ENCODING 63517
SWIDTH 480 0
DWIDTH 8 0
BBX 5 6 2 -3
BITMAP
70
88
D0
30
20
C0
ENDCHAR
STARTCHAR FB01
ENCODING 64257
SWIDTH 480 0
DWIDTH 8 0
BBX 12 15 -2 -3
BITMAP
0080
03B0
0620
0400
0F20
0460
0C40
0C40
0840
08C0
0880
1880
1800
3000
E000
ENDCHAR
STARTCHAR FB02
ENCODING 64258
SWIDTH 480 0
DWIDTH 8 0
BBX 12 15 -2 -3
BITMAP
0090
03A0
0620
0420
0F60
0440
0C40
0C40
08C0
0880
08C0
1840
1800
3000
E000
ENDCHAR
STARTCHAR FFFD
ENCODING 65533
SWIDTH 480 0
DWIDTH 8 0
BBX 7 8 1 0
BITMAP
10
38
64
F6
EE
7C
28
10
ENDCHAR
ENDFONT
